G04 #@! TF.FileFunction,Legend,Bot*
%FSLAX46Y46*%
G04 Gerber Fmt 4.6, Leading zero omitted, Abs format (unit mm)*
G04 Created by KiCad (PCBNEW 0.201511171411+6319~30~ubuntu15.10.1-product) date Fr 04 Dez 2015 11:26:38 CET*
%MOMM*%
G01*
G04 APERTURE LIST*
%ADD10C,0.100000*%
%ADD11C,0.200000*%
%ADD12C,0.150000*%
G04 APERTURE END LIST*
D10*
D11*
X144272000Y-39497000D02*
X153543000Y-39497000D01*
X143002000Y-40767000D02*
X144272000Y-39497000D01*
X143002000Y-47625000D02*
X143002000Y-40767000D01*
X140335000Y-50292000D02*
X143002000Y-47625000D01*
X137160000Y-50292000D02*
X140335000Y-50292000D01*
X175514000Y-65151000D02*
X160655000Y-65151000D01*
X159639000Y-64135000D02*
X159639000Y-39497000D01*
X159639000Y-64135000D02*
X160655000Y-65151000D01*
X156591000Y-42418000D02*
X156591000Y-79375000D01*
X153543000Y-40640000D02*
X153543000Y-39497000D01*
X155321000Y-42418000D02*
X153543000Y-40640000D01*
X156591000Y-42418000D02*
X155321000Y-42418000D01*
X205232000Y-79248000D02*
X214249000Y-79248000D01*
X205232000Y-60198000D02*
X205232000Y-79248000D01*
X215392000Y-60198000D02*
X215519000Y-60325000D01*
X205232000Y-60198000D02*
X215392000Y-60198000D01*
X202692000Y-60325000D02*
X184023000Y-60325000D01*
X202692000Y-79375000D02*
X202692000Y-60325000D01*
X202692000Y-79375000D02*
X181356000Y-79375000D01*
X215519000Y-60325000D02*
X215138000Y-60325000D01*
X215519000Y-78105000D02*
X215519000Y-60325000D01*
X214249000Y-79375000D02*
X215519000Y-78105000D01*
X156591000Y-79375000D02*
X130175000Y-79375000D01*
X179070000Y-79375000D02*
X159512000Y-79375000D01*
X181356000Y-68707000D02*
X181356000Y-79375000D01*
X180848000Y-68199000D02*
X181356000Y-68707000D01*
X179070000Y-71247000D02*
X179070000Y-79375000D01*
X176022000Y-68199000D02*
X179070000Y-71247000D01*
X178562000Y-65786000D02*
X184023000Y-60325000D01*
X208026000Y-39624000D02*
X186309000Y-39624000D01*
X215138000Y-46736000D02*
X208026000Y-39624000D01*
X215138000Y-58674000D02*
X215138000Y-46736000D01*
X186309000Y-57531000D02*
X186309000Y-57404000D01*
X187452000Y-58674000D02*
X186309000Y-57531000D01*
X215138000Y-58674000D02*
X187452000Y-58674000D01*
X186309000Y-39624000D02*
X186309000Y-57404000D01*
X183261000Y-39497000D02*
X159639000Y-39497000D01*
X183261000Y-57404000D02*
X183261000Y-39497000D01*
X175514000Y-65151000D02*
X183261000Y-57404000D01*
X159512000Y-68199000D02*
X159512000Y-79375000D01*
X130175000Y-78105000D02*
X130175000Y-79375000D01*
X130175000Y-50673000D02*
X130175000Y-78105000D01*
X130556000Y-50292000D02*
X130175000Y-50673000D01*
X137160000Y-50292000D02*
X130556000Y-50292000D01*
X178562000Y-65913000D02*
X178562000Y-65786000D01*
X180848000Y-68199000D02*
X178562000Y-65913000D01*
X159512000Y-68199000D02*
X176149000Y-68199000D01*
D12*
X172601000Y-72429000D02*
X173601000Y-72429000D01*
X173601000Y-74129000D02*
X172601000Y-74129000D01*
X131834000Y-50966000D02*
X132834000Y-50966000D01*
X132834000Y-52666000D02*
X131834000Y-52666000D01*
X131834000Y-53506000D02*
X132834000Y-53506000D01*
X132834000Y-55206000D02*
X131834000Y-55206000D01*
X131834000Y-56173000D02*
X132834000Y-56173000D01*
X132834000Y-57873000D02*
X131834000Y-57873000D01*
X131834000Y-58713000D02*
X132834000Y-58713000D01*
X132834000Y-60413000D02*
X131834000Y-60413000D01*
X137073000Y-65651000D02*
X137073000Y-64651000D01*
X135723000Y-64651000D02*
X135723000Y-65651000D01*
X134315200Y-64916240D02*
X135216000Y-63915480D01*
X135216000Y-63915480D02*
X133516000Y-63915480D01*
X133516000Y-63915480D02*
X134366000Y-64916240D01*
X135216000Y-64916240D02*
X133516000Y-64916240D01*
X136759760Y-51638200D02*
X137760520Y-52539000D01*
X137760520Y-52539000D02*
X137760520Y-50839000D01*
X137760520Y-50839000D02*
X136759760Y-51689000D01*
X136759760Y-52539000D02*
X136759760Y-50839000D01*
X136759760Y-54305200D02*
X137760520Y-55206000D01*
X137760520Y-55206000D02*
X137760520Y-53506000D01*
X137760520Y-53506000D02*
X136759760Y-54356000D01*
X136759760Y-55206000D02*
X136759760Y-53506000D01*
X136759760Y-57099200D02*
X137760520Y-58000000D01*
X137760520Y-58000000D02*
X137760520Y-56300000D01*
X137760520Y-56300000D02*
X136759760Y-57150000D01*
X136759760Y-58000000D02*
X136759760Y-56300000D01*
X136759760Y-59893200D02*
X137760520Y-60794000D01*
X137760520Y-60794000D02*
X137760520Y-59094000D01*
X137760520Y-59094000D02*
X136759760Y-59944000D01*
X136759760Y-60794000D02*
X136759760Y-59094000D01*
X152773000Y-66763000D02*
X151773000Y-66763000D01*
X151773000Y-65063000D02*
X152773000Y-65063000D01*
X163017200Y-74695240D02*
X163918000Y-73694480D01*
X163918000Y-73694480D02*
X162218000Y-73694480D01*
X162218000Y-73694480D02*
X163068000Y-74695240D01*
X163918000Y-74695240D02*
X162218000Y-74695240D01*
X153154000Y-67778000D02*
X152154000Y-67778000D01*
X152154000Y-69128000D02*
X153154000Y-69128000D01*
X151519000Y-64810000D02*
X152519000Y-64810000D01*
X152519000Y-63460000D02*
X151519000Y-63460000D01*
X173743857Y-71536143D02*
X173791476Y-71583762D01*
X173934333Y-71631381D01*
X174029571Y-71631381D01*
X174172429Y-71583762D01*
X174267667Y-71488524D01*
X174315286Y-71393286D01*
X174362905Y-71202810D01*
X174362905Y-71059952D01*
X174315286Y-70869476D01*
X174267667Y-70774238D01*
X174172429Y-70679000D01*
X174029571Y-70631381D01*
X173934333Y-70631381D01*
X173791476Y-70679000D01*
X173743857Y-70726619D01*
X172791476Y-71631381D02*
X173362905Y-71631381D01*
X173077191Y-71631381D02*
X173077191Y-70631381D01*
X173172429Y-70774238D01*
X173267667Y-70869476D01*
X173362905Y-70917095D01*
X172315286Y-71631381D02*
X172124810Y-71631381D01*
X172029571Y-71583762D01*
X171981952Y-71536143D01*
X171886714Y-71393286D01*
X171839095Y-71202810D01*
X171839095Y-70821857D01*
X171886714Y-70726619D01*
X171934333Y-70679000D01*
X172029571Y-70631381D01*
X172220048Y-70631381D01*
X172315286Y-70679000D01*
X172362905Y-70726619D01*
X172410524Y-70821857D01*
X172410524Y-71059952D01*
X172362905Y-71155190D01*
X172315286Y-71202810D01*
X172220048Y-71250429D01*
X172029571Y-71250429D01*
X171934333Y-71202810D01*
X171886714Y-71155190D01*
X171839095Y-71059952D01*
X130182857Y-52300143D02*
X130230476Y-52347762D01*
X130373333Y-52395381D01*
X130468571Y-52395381D01*
X130611429Y-52347762D01*
X130706667Y-52252524D01*
X130754286Y-52157286D01*
X130801905Y-51966810D01*
X130801905Y-51823952D01*
X130754286Y-51633476D01*
X130706667Y-51538238D01*
X130611429Y-51443000D01*
X130468571Y-51395381D01*
X130373333Y-51395381D01*
X130230476Y-51443000D01*
X130182857Y-51490619D01*
X129801905Y-51490619D02*
X129754286Y-51443000D01*
X129659048Y-51395381D01*
X129420952Y-51395381D01*
X129325714Y-51443000D01*
X129278095Y-51490619D01*
X129230476Y-51585857D01*
X129230476Y-51681095D01*
X129278095Y-51823952D01*
X129849524Y-52395381D01*
X129230476Y-52395381D01*
X128849524Y-51490619D02*
X128801905Y-51443000D01*
X128706667Y-51395381D01*
X128468571Y-51395381D01*
X128373333Y-51443000D01*
X128325714Y-51490619D01*
X128278095Y-51585857D01*
X128278095Y-51681095D01*
X128325714Y-51823952D01*
X128897143Y-52395381D01*
X128278095Y-52395381D01*
X130055857Y-54840143D02*
X130103476Y-54887762D01*
X130246333Y-54935381D01*
X130341571Y-54935381D01*
X130484429Y-54887762D01*
X130579667Y-54792524D01*
X130627286Y-54697286D01*
X130674905Y-54506810D01*
X130674905Y-54363952D01*
X130627286Y-54173476D01*
X130579667Y-54078238D01*
X130484429Y-53983000D01*
X130341571Y-53935381D01*
X130246333Y-53935381D01*
X130103476Y-53983000D01*
X130055857Y-54030619D01*
X129674905Y-54030619D02*
X129627286Y-53983000D01*
X129532048Y-53935381D01*
X129293952Y-53935381D01*
X129198714Y-53983000D01*
X129151095Y-54030619D01*
X129103476Y-54125857D01*
X129103476Y-54221095D01*
X129151095Y-54363952D01*
X129722524Y-54935381D01*
X129103476Y-54935381D01*
X128770143Y-53935381D02*
X128151095Y-53935381D01*
X128484429Y-54316333D01*
X128341571Y-54316333D01*
X128246333Y-54363952D01*
X128198714Y-54411571D01*
X128151095Y-54506810D01*
X128151095Y-54744905D01*
X128198714Y-54840143D01*
X128246333Y-54887762D01*
X128341571Y-54935381D01*
X128627286Y-54935381D01*
X128722524Y-54887762D01*
X128770143Y-54840143D01*
X130055857Y-57507143D02*
X130103476Y-57554762D01*
X130246333Y-57602381D01*
X130341571Y-57602381D01*
X130484429Y-57554762D01*
X130579667Y-57459524D01*
X130627286Y-57364286D01*
X130674905Y-57173810D01*
X130674905Y-57030952D01*
X130627286Y-56840476D01*
X130579667Y-56745238D01*
X130484429Y-56650000D01*
X130341571Y-56602381D01*
X130246333Y-56602381D01*
X130103476Y-56650000D01*
X130055857Y-56697619D01*
X129674905Y-56697619D02*
X129627286Y-56650000D01*
X129532048Y-56602381D01*
X129293952Y-56602381D01*
X129198714Y-56650000D01*
X129151095Y-56697619D01*
X129103476Y-56792857D01*
X129103476Y-56888095D01*
X129151095Y-57030952D01*
X129722524Y-57602381D01*
X129103476Y-57602381D01*
X128246333Y-56935714D02*
X128246333Y-57602381D01*
X128484429Y-56554762D02*
X128722524Y-57269048D01*
X128103476Y-57269048D01*
X130055857Y-59920143D02*
X130103476Y-59967762D01*
X130246333Y-60015381D01*
X130341571Y-60015381D01*
X130484429Y-59967762D01*
X130579667Y-59872524D01*
X130627286Y-59777286D01*
X130674905Y-59586810D01*
X130674905Y-59443952D01*
X130627286Y-59253476D01*
X130579667Y-59158238D01*
X130484429Y-59063000D01*
X130341571Y-59015381D01*
X130246333Y-59015381D01*
X130103476Y-59063000D01*
X130055857Y-59110619D01*
X129674905Y-59110619D02*
X129627286Y-59063000D01*
X129532048Y-59015381D01*
X129293952Y-59015381D01*
X129198714Y-59063000D01*
X129151095Y-59110619D01*
X129103476Y-59205857D01*
X129103476Y-59301095D01*
X129151095Y-59443952D01*
X129722524Y-60015381D01*
X129103476Y-60015381D01*
X128198714Y-59015381D02*
X128674905Y-59015381D01*
X128722524Y-59491571D01*
X128674905Y-59443952D01*
X128579667Y-59396333D01*
X128341571Y-59396333D01*
X128246333Y-59443952D01*
X128198714Y-59491571D01*
X128151095Y-59586810D01*
X128151095Y-59824905D01*
X128198714Y-59920143D01*
X128246333Y-59967762D01*
X128341571Y-60015381D01*
X128579667Y-60015381D01*
X128674905Y-59967762D01*
X128722524Y-59920143D01*
X213177381Y-55141905D02*
X212177381Y-55141905D01*
X212177381Y-55522858D01*
X212225000Y-55618096D01*
X212272619Y-55665715D01*
X212367857Y-55713334D01*
X212510714Y-55713334D01*
X212605952Y-55665715D01*
X212653571Y-55618096D01*
X212701190Y-55522858D01*
X212701190Y-55141905D01*
X212272619Y-56094286D02*
X212225000Y-56141905D01*
X212177381Y-56237143D01*
X212177381Y-56475239D01*
X212225000Y-56570477D01*
X212272619Y-56618096D01*
X212367857Y-56665715D01*
X212463095Y-56665715D01*
X212605952Y-56618096D01*
X213177381Y-56046667D01*
X213177381Y-56665715D01*
X138247381Y-64984334D02*
X137771190Y-64651000D01*
X138247381Y-64412905D02*
X137247381Y-64412905D01*
X137247381Y-64793858D01*
X137295000Y-64889096D01*
X137342619Y-64936715D01*
X137437857Y-64984334D01*
X137580714Y-64984334D01*
X137675952Y-64936715D01*
X137723571Y-64889096D01*
X137771190Y-64793858D01*
X137771190Y-64412905D01*
X137342619Y-65365286D02*
X137295000Y-65412905D01*
X137247381Y-65508143D01*
X137247381Y-65746239D01*
X137295000Y-65841477D01*
X137342619Y-65889096D01*
X137437857Y-65936715D01*
X137533095Y-65936715D01*
X137675952Y-65889096D01*
X138247381Y-65317667D01*
X138247381Y-65936715D01*
X134945381Y-67079905D02*
X133945381Y-67079905D01*
X133945381Y-67318000D01*
X133993000Y-67460858D01*
X134088238Y-67556096D01*
X134183476Y-67603715D01*
X134373952Y-67651334D01*
X134516810Y-67651334D01*
X134707286Y-67603715D01*
X134802524Y-67556096D01*
X134897762Y-67460858D01*
X134945381Y-67318000D01*
X134945381Y-67079905D01*
X134945381Y-68603715D02*
X134945381Y-68032286D01*
X134945381Y-68318000D02*
X133945381Y-68318000D01*
X134088238Y-68222762D01*
X134183476Y-68127524D01*
X134231095Y-68032286D01*
X133167381Y-66032095D02*
X132167381Y-66032095D01*
X133167381Y-66603524D02*
X132595952Y-66174952D01*
X132167381Y-66603524D02*
X132738810Y-66032095D01*
X132881667Y-62626905D02*
X132881667Y-63103096D01*
X133167381Y-62531667D02*
X132167381Y-62865000D01*
X133167381Y-63198334D01*
X141454095Y-52141381D02*
X141454095Y-51141381D01*
X141216000Y-51141381D01*
X141073142Y-51189000D01*
X140977904Y-51284238D01*
X140930285Y-51379476D01*
X140882666Y-51569952D01*
X140882666Y-51712810D01*
X140930285Y-51903286D01*
X140977904Y-51998524D01*
X141073142Y-52093762D01*
X141216000Y-52141381D01*
X141454095Y-52141381D01*
X140501714Y-51236619D02*
X140454095Y-51189000D01*
X140358857Y-51141381D01*
X140120761Y-51141381D01*
X140025523Y-51189000D01*
X139977904Y-51236619D01*
X139930285Y-51331857D01*
X139930285Y-51427095D01*
X139977904Y-51569952D01*
X140549333Y-52141381D01*
X139930285Y-52141381D01*
X135643905Y-50744381D02*
X135643905Y-49744381D01*
X135072476Y-50744381D02*
X135501048Y-50172952D01*
X135072476Y-49744381D02*
X135643905Y-50315810D01*
X139176095Y-50458667D02*
X138699904Y-50458667D01*
X139271333Y-50744381D02*
X138938000Y-49744381D01*
X138604666Y-50744381D01*
X141454095Y-54808381D02*
X141454095Y-53808381D01*
X141216000Y-53808381D01*
X141073142Y-53856000D01*
X140977904Y-53951238D01*
X140930285Y-54046476D01*
X140882666Y-54236952D01*
X140882666Y-54379810D01*
X140930285Y-54570286D01*
X140977904Y-54665524D01*
X141073142Y-54760762D01*
X141216000Y-54808381D01*
X141454095Y-54808381D01*
X140549333Y-53808381D02*
X139930285Y-53808381D01*
X140263619Y-54189333D01*
X140120761Y-54189333D01*
X140025523Y-54236952D01*
X139977904Y-54284571D01*
X139930285Y-54379810D01*
X139930285Y-54617905D01*
X139977904Y-54713143D01*
X140025523Y-54760762D01*
X140120761Y-54808381D01*
X140406476Y-54808381D01*
X140501714Y-54760762D01*
X140549333Y-54713143D01*
X135643905Y-53538381D02*
X135643905Y-52538381D01*
X135072476Y-53538381D02*
X135501048Y-52966952D01*
X135072476Y-52538381D02*
X135643905Y-53109810D01*
X139176095Y-53252667D02*
X138699904Y-53252667D01*
X139271333Y-53538381D02*
X138938000Y-52538381D01*
X138604666Y-53538381D01*
X141454095Y-57602381D02*
X141454095Y-56602381D01*
X141216000Y-56602381D01*
X141073142Y-56650000D01*
X140977904Y-56745238D01*
X140930285Y-56840476D01*
X140882666Y-57030952D01*
X140882666Y-57173810D01*
X140930285Y-57364286D01*
X140977904Y-57459524D01*
X141073142Y-57554762D01*
X141216000Y-57602381D01*
X141454095Y-57602381D01*
X140025523Y-56935714D02*
X140025523Y-57602381D01*
X140263619Y-56554762D02*
X140501714Y-57269048D01*
X139882666Y-57269048D01*
X135643905Y-56332381D02*
X135643905Y-55332381D01*
X135072476Y-56332381D02*
X135501048Y-55760952D01*
X135072476Y-55332381D02*
X135643905Y-55903810D01*
X139176095Y-55919667D02*
X138699904Y-55919667D01*
X139271333Y-56205381D02*
X138938000Y-55205381D01*
X138604666Y-56205381D01*
X141581095Y-60269381D02*
X141581095Y-59269381D01*
X141343000Y-59269381D01*
X141200142Y-59317000D01*
X141104904Y-59412238D01*
X141057285Y-59507476D01*
X141009666Y-59697952D01*
X141009666Y-59840810D01*
X141057285Y-60031286D01*
X141104904Y-60126524D01*
X141200142Y-60221762D01*
X141343000Y-60269381D01*
X141581095Y-60269381D01*
X140104904Y-59269381D02*
X140581095Y-59269381D01*
X140628714Y-59745571D01*
X140581095Y-59697952D01*
X140485857Y-59650333D01*
X140247761Y-59650333D01*
X140152523Y-59697952D01*
X140104904Y-59745571D01*
X140057285Y-59840810D01*
X140057285Y-60078905D01*
X140104904Y-60174143D01*
X140152523Y-60221762D01*
X140247761Y-60269381D01*
X140485857Y-60269381D01*
X140581095Y-60221762D01*
X140628714Y-60174143D01*
X135643905Y-59126381D02*
X135643905Y-58126381D01*
X135072476Y-59126381D02*
X135501048Y-58554952D01*
X135072476Y-58126381D02*
X135643905Y-58697810D01*
X139176095Y-58840667D02*
X138699904Y-58840667D01*
X139271333Y-59126381D02*
X138938000Y-58126381D01*
X138604666Y-59126381D01*
X155836857Y-66397143D02*
X155884476Y-66444762D01*
X156027333Y-66492381D01*
X156122571Y-66492381D01*
X156265429Y-66444762D01*
X156360667Y-66349524D01*
X156408286Y-66254286D01*
X156455905Y-66063810D01*
X156455905Y-65920952D01*
X156408286Y-65730476D01*
X156360667Y-65635238D01*
X156265429Y-65540000D01*
X156122571Y-65492381D01*
X156027333Y-65492381D01*
X155884476Y-65540000D01*
X155836857Y-65587619D01*
X155503524Y-65492381D02*
X154884476Y-65492381D01*
X155217810Y-65873333D01*
X155074952Y-65873333D01*
X154979714Y-65920952D01*
X154932095Y-65968571D01*
X154884476Y-66063810D01*
X154884476Y-66301905D01*
X154932095Y-66397143D01*
X154979714Y-66444762D01*
X155074952Y-66492381D01*
X155360667Y-66492381D01*
X155455905Y-66444762D01*
X155503524Y-66397143D01*
X154503524Y-65587619D02*
X154455905Y-65540000D01*
X154360667Y-65492381D01*
X154122571Y-65492381D01*
X154027333Y-65540000D01*
X153979714Y-65587619D01*
X153932095Y-65682857D01*
X153932095Y-65778095D01*
X153979714Y-65920952D01*
X154551143Y-66492381D01*
X153932095Y-66492381D01*
X165425381Y-73556905D02*
X164425381Y-73556905D01*
X164425381Y-73795000D01*
X164473000Y-73937858D01*
X164568238Y-74033096D01*
X164663476Y-74080715D01*
X164853952Y-74128334D01*
X164996810Y-74128334D01*
X165187286Y-74080715D01*
X165282524Y-74033096D01*
X165377762Y-73937858D01*
X165425381Y-73795000D01*
X165425381Y-73556905D01*
X164425381Y-74985477D02*
X164425381Y-74795000D01*
X164473000Y-74699762D01*
X164520619Y-74652143D01*
X164663476Y-74556905D01*
X164853952Y-74509286D01*
X165234905Y-74509286D01*
X165330143Y-74556905D01*
X165377762Y-74604524D01*
X165425381Y-74699762D01*
X165425381Y-74890239D01*
X165377762Y-74985477D01*
X165330143Y-75033096D01*
X165234905Y-75080715D01*
X164996810Y-75080715D01*
X164901571Y-75033096D01*
X164853952Y-74985477D01*
X164806333Y-74890239D01*
X164806333Y-74699762D01*
X164853952Y-74604524D01*
X164901571Y-74556905D01*
X164996810Y-74509286D01*
X161570381Y-75833095D02*
X160570381Y-75833095D01*
X161570381Y-76404524D02*
X160998952Y-75975952D01*
X160570381Y-76404524D02*
X161141810Y-75833095D01*
X161284667Y-72256905D02*
X161284667Y-72733096D01*
X161570381Y-72161667D02*
X160570381Y-72495000D01*
X161570381Y-72828334D01*
X176601286Y-62301381D02*
X176601286Y-61301381D01*
X176220333Y-61301381D01*
X176125095Y-61349000D01*
X176077476Y-61396619D01*
X176029857Y-61491857D01*
X176029857Y-61634714D01*
X176077476Y-61729952D01*
X176125095Y-61777571D01*
X176220333Y-61825190D01*
X176601286Y-61825190D01*
X175077476Y-62301381D02*
X175648905Y-62301381D01*
X175363191Y-62301381D02*
X175363191Y-61301381D01*
X175458429Y-61444238D01*
X175553667Y-61539476D01*
X175648905Y-61587095D01*
X174696524Y-61396619D02*
X174648905Y-61349000D01*
X174553667Y-61301381D01*
X174315571Y-61301381D01*
X174220333Y-61349000D01*
X174172714Y-61396619D01*
X174125095Y-61491857D01*
X174125095Y-61587095D01*
X174172714Y-61729952D01*
X174744143Y-62301381D01*
X174125095Y-62301381D01*
X199715381Y-74223714D02*
X198715381Y-74223714D01*
X198715381Y-74604667D01*
X198763000Y-74699905D01*
X198810619Y-74747524D01*
X198905857Y-74795143D01*
X199048714Y-74795143D01*
X199143952Y-74747524D01*
X199191571Y-74699905D01*
X199239190Y-74604667D01*
X199239190Y-74223714D01*
X199715381Y-75747524D02*
X199715381Y-75176095D01*
X199715381Y-75461809D02*
X198715381Y-75461809D01*
X198858238Y-75366571D01*
X198953476Y-75271333D01*
X199001095Y-75176095D01*
X198715381Y-76080857D02*
X198715381Y-76699905D01*
X199096333Y-76366571D01*
X199096333Y-76509429D01*
X199143952Y-76604667D01*
X199191571Y-76652286D01*
X199286810Y-76699905D01*
X199524905Y-76699905D01*
X199620143Y-76652286D01*
X199667762Y-76604667D01*
X199715381Y-76509429D01*
X199715381Y-76223714D01*
X199667762Y-76128476D01*
X199620143Y-76080857D01*
X153296857Y-70302381D02*
X153630191Y-69826190D01*
X153868286Y-70302381D02*
X153868286Y-69302381D01*
X153487333Y-69302381D01*
X153392095Y-69350000D01*
X153344476Y-69397619D01*
X153296857Y-69492857D01*
X153296857Y-69635714D01*
X153344476Y-69730952D01*
X153392095Y-69778571D01*
X153487333Y-69826190D01*
X153868286Y-69826190D01*
X152915905Y-69397619D02*
X152868286Y-69350000D01*
X152773048Y-69302381D01*
X152534952Y-69302381D01*
X152439714Y-69350000D01*
X152392095Y-69397619D01*
X152344476Y-69492857D01*
X152344476Y-69588095D01*
X152392095Y-69730952D01*
X152963524Y-70302381D01*
X152344476Y-70302381D01*
X151487333Y-69635714D02*
X151487333Y-70302381D01*
X151725429Y-69254762D02*
X151963524Y-69969048D01*
X151344476Y-69969048D01*
X152661857Y-63190381D02*
X152995191Y-62714190D01*
X153233286Y-63190381D02*
X153233286Y-62190381D01*
X152852333Y-62190381D01*
X152757095Y-62238000D01*
X152709476Y-62285619D01*
X152661857Y-62380857D01*
X152661857Y-62523714D01*
X152709476Y-62618952D01*
X152757095Y-62666571D01*
X152852333Y-62714190D01*
X153233286Y-62714190D01*
X152328524Y-62190381D02*
X151709476Y-62190381D01*
X152042810Y-62571333D01*
X151899952Y-62571333D01*
X151804714Y-62618952D01*
X151757095Y-62666571D01*
X151709476Y-62761810D01*
X151709476Y-62999905D01*
X151757095Y-63095143D01*
X151804714Y-63142762D01*
X151899952Y-63190381D01*
X152185667Y-63190381D01*
X152280905Y-63142762D01*
X152328524Y-63095143D01*
X151233286Y-63190381D02*
X151042810Y-63190381D01*
X150947571Y-63142762D01*
X150899952Y-63095143D01*
X150804714Y-62952286D01*
X150757095Y-62761810D01*
X150757095Y-62380857D01*
X150804714Y-62285619D01*
X150852333Y-62238000D01*
X150947571Y-62190381D01*
X151138048Y-62190381D01*
X151233286Y-62238000D01*
X151280905Y-62285619D01*
X151328524Y-62380857D01*
X151328524Y-62618952D01*
X151280905Y-62714190D01*
X151233286Y-62761810D01*
X151138048Y-62809429D01*
X150947571Y-62809429D01*
X150852333Y-62761810D01*
X150804714Y-62714190D01*
X150757095Y-62618952D01*
M02*
