M48
;DRILL file {KiCad 0.201511171411+6319~30~ubuntu15.10.1-product} date Fr 04 Dez 2015 11:27:08 CET
;FORMAT={3:3/ absolute / metric / suppress leading zeros}
FMAT,2
METRIC,TZ
T1C0.400
T2C0.800
T3C1.016
T4C1.200
T5C2.000
%
G90
G05
M71
T1
X129286Y-64008
X129286Y-65024
X129286Y-66040
X129286Y-67056
X129286Y-68072
X129286Y-69088
X129286Y-70104
X129286Y-71120
X129286Y-72136
X129286Y-73279
X129286Y-74422
X131953Y-80137
X132334Y-69088
X132334Y-73279
X133223Y-77089
X134112Y-57023
X134112Y-59563
X134239Y-51816
X134239Y-54356
X136271Y-63754
X137033Y-62738
X137414Y-40640
X138430Y-40640
X138811Y-43561
X138811Y-80137
X139446Y-40640
X139827Y-43561
X139827Y-44704
X140462Y-51816
X140462Y-54356
X140462Y-57150
X140462Y-59436
X140970Y-67818
X141097Y-60579
X141224Y-75565
X142621Y-57150
X144272Y-66294
X144272Y-68707
X145542Y-57150
X146558Y-66929
X146812Y-80137
X146939Y-38862
X147320Y-65405
X147828Y-59944
X147955Y-38862
X148209Y-64516
X148336Y-65405
X148717Y-60452
X148971Y-38862
X148971Y-70231
X149225Y-59817
X149860Y-59182
X149860Y-66294
X150495Y-58674
X153670Y-80137
X153797Y-64643
X153797Y-69723
X153924Y-73025
X156083Y-43053
X157226Y-73787
X157353Y-43053
X157353Y-45339
X157353Y-46863
X157353Y-54102
X157353Y-56388
X157353Y-58674
X157988Y-68072
X158115Y-42672
X158115Y-45847
X158115Y-76327
X158115Y-80137
X158242Y-73787
X158369Y-61722
X158496Y-55245
X158496Y-57531
X158877Y-41402
X158877Y-43053
X158877Y-45339
X158877Y-46863
X159004Y-68072
X159258Y-73787
X159766Y-80137
X160655Y-42926
X160655Y-44196
X161036Y-48387
X161036Y-51816
X161036Y-52832
X161163Y-66040
X161163Y-67056
X161544Y-80137
X162052Y-48387
X162179Y-38735
X162179Y-66040
X162179Y-67056
X163068Y-48387
X163195Y-38735
X163195Y-42926
X163195Y-44196
X163195Y-80137
X164719Y-45466
X164719Y-76073
X164846Y-41021
X165481Y-80137
X165735Y-45466
X166624Y-38735
X166624Y-68961
X166751Y-45466
X167640Y-38735
X170180Y-46863
X170307Y-42672
X171069Y-66040
X171196Y-42672
X171196Y-46863
X171323Y-76073
X171958Y-65532
X171958Y-66548
X171958Y-67564
X172085Y-42672
X172085Y-46863
X172466Y-76073
X172466Y-80264
X173355Y-80137
X173609Y-49784
X173609Y-76073
X174371Y-50546
X174371Y-80645
X175006Y-65659
X175006Y-66675
X175006Y-67691
X175133Y-51308
X175387Y-80010
X176911Y-49022
X176911Y-55118
X177292Y-55880
X177546Y-77851
X177800Y-64008
X177927Y-55118
X178181Y-69469
X178308Y-75565
X178562Y-55880
X178562Y-64770
X178562Y-77343
X178943Y-38735
X178943Y-68707
X179070Y-55118
X179070Y-75565
X179324Y-77343
X179705Y-67945
X179832Y-75565
X180086Y-77343
X180467Y-51435
X180594Y-75565
X180594Y-77978
X180848Y-43688
X180848Y-45339
X181102Y-38735
X181102Y-41529
X181229Y-60579
X181991Y-61341
X183007Y-38735
X184150Y-48006
X184531Y-59436
X184785Y-47244
X184912Y-48641
X185547Y-39497
X185547Y-40513
X185547Y-47879
X185547Y-56769
X185928Y-57785
X186309Y-38735
X186309Y-70866
X187579Y-66040
X187706Y-59563
X187960Y-76073
X188087Y-63246
X188087Y-67056
X189103Y-59563
X189103Y-63246
X189611Y-72009
X189865Y-67945
X190119Y-63246
X190246Y-69088
X190246Y-69977
X190246Y-70866
X190373Y-72009
X190627Y-38735
X190627Y-67945
X191008Y-69088
X191008Y-69977
X191008Y-70866
X191135Y-72009
X191389Y-67945
X191516Y-49911
X191516Y-54737
X191643Y-38735
X191770Y-69088
X191770Y-69977
X191770Y-70866
X191897Y-72009
X192024Y-59563
X192659Y-38735
X192786Y-46609
X192786Y-53848
X193040Y-59563
X193421Y-74803
X193421Y-75565
X193929Y-43688
X195707Y-61849
X195707Y-63119
X195707Y-64389
X196088Y-46736
X196088Y-50419
X196342Y-47879
X196342Y-48641
X196342Y-49403
X196469Y-63754
X196850Y-46736
X196850Y-50419
X197104Y-47879
X197104Y-48641
X197104Y-49403
X197612Y-46736
X197612Y-50419
X197866Y-47879
X197866Y-48641
X197866Y-49403
X198120Y-59563
X198374Y-50419
X198501Y-53213
X199009Y-38735
X199136Y-59563
X199263Y-53213
X199263Y-74803
X199263Y-75946
X199898Y-75311
X200025Y-38735
X200025Y-53213
X200533Y-74803
X200533Y-75946
X201676Y-41021
X201676Y-42291
X202692Y-41656
X202692Y-59563
X203327Y-74422
X203454Y-76962
X203835Y-73660
X203962Y-77851
X204216Y-74422
X204597Y-76962
X205486Y-59563
X206248Y-41148
X206248Y-42037
X206502Y-38862
X206502Y-59563
X206502Y-66675
X206502Y-67818
X207518Y-59563
X208153Y-45720
X209042Y-46609
X209169Y-45593
X209296Y-73025
X209296Y-78613
X209550Y-39624
X209804Y-62357
X210693Y-62357
X211455Y-41529
X211963Y-59563
X212979Y-54737
X212979Y-55753
X212979Y-56769
X212979Y-59563
X213741Y-43815
X213995Y-54737
X213995Y-55753
X213995Y-56769
X213995Y-60579
X213995Y-64389
X214503Y-66675
X214757Y-59563
X215138Y-45212
X215773Y-59563
X216027Y-46101
X216027Y-53848
X216154Y-57912
X216916Y-54356
X216916Y-58547
X218567Y-47244
X218567Y-48514
X218567Y-49784
X218567Y-51181
T2
X131488Y-44450
X137488Y-44450
T3
X124206Y-76962
X126238Y-51816
X126238Y-54356
X126238Y-56896
X126238Y-59436
X126238Y-61976
X126746Y-76962
X138176Y-77343
X140716Y-77343
X143256Y-77343
X146939Y-45720
X147066Y-50673
X147193Y-75184
X147193Y-77724
X149479Y-45720
X149606Y-50673
X149733Y-75184
X149733Y-77724
X152019Y-45720
X152146Y-50673
X152273Y-75184
X152273Y-77724
X161163Y-70485
T4
X126238Y-66802
X126238Y-71882
X126492Y-42164
X126492Y-47244
X221234Y-46101
X221234Y-51181
X221234Y-56261
X221234Y-61341
X221234Y-66421
X221234Y-71501
X221234Y-76581
T5
X129064Y-79624
X131064Y-39624
X156064Y-40124
X158564Y-66124
X184064Y-54624
X213564Y-75624
X215064Y-41624
T0
M30
