G04 #@! TF.FileFunction,Copper,L2,Bot,Signal*
%FSLAX46Y46*%
G04 Gerber Fmt 4.6, Leading zero omitted, Abs format (unit mm)*
G04 Created by KiCad (PCBNEW 0.201511171411+6319~30~ubuntu15.10.1-product) date Fr 04 Dez 2015 11:26:38 CET*
%MOMM*%
G01*
G04 APERTURE LIST*
%ADD10C,0.100000*%
%ADD11R,2.235200X2.235200*%
%ADD12C,3.400000*%
%ADD13C,3.500000*%
%ADD14R,3.000000X2.500000*%
%ADD15O,3.000000X2.500000*%
%ADD16R,1.300000X1.300000*%
%ADD17C,1.300000*%
%ADD18R,1.000000X1.250000*%
%ADD19O,4.000000X3.000000*%
%ADD20R,2.999740X2.999740*%
%ADD21R,2.032000X2.032000*%
%ADD22O,2.032000X2.032000*%
%ADD23R,2.032000X1.727200*%
%ADD24O,2.032000X1.727200*%
%ADD25R,1.727200X2.032000*%
%ADD26O,1.727200X2.032000*%
%ADD27R,0.900000X0.500000*%
%ADD28R,1.699260X1.300480*%
%ADD29R,1.300480X1.699260*%
%ADD30R,0.500000X0.900000*%
%ADD31R,1.727200X1.727200*%
%ADD32O,1.727200X1.727200*%
%ADD33C,0.600000*%
%ADD34C,1.000000*%
%ADD35C,1.500000*%
%ADD36C,0.250000*%
%ADD37C,0.700000*%
%ADD38C,0.300000*%
%ADD39C,0.450000*%
%ADD40C,0.254000*%
G04 APERTURE END LIST*
D10*
D11*
X131064000Y-39624000D03*
D12*
X158564000Y-66124000D03*
X129064000Y-79624000D03*
X184064000Y-54624000D03*
X215064000Y-41624000D03*
X213564000Y-75624000D03*
D13*
X156064000Y-40124000D03*
D14*
X221234000Y-46101000D03*
D15*
X221234000Y-51181000D03*
X221234000Y-56261000D03*
X221234000Y-61341000D03*
X221234000Y-66421000D03*
X221234000Y-71501000D03*
X221234000Y-76581000D03*
D16*
X131488000Y-44450000D03*
D17*
X137488000Y-44450000D03*
D18*
X174101000Y-73279000D03*
X172101000Y-73279000D03*
X133334000Y-51816000D03*
X131334000Y-51816000D03*
X133334000Y-54356000D03*
X131334000Y-54356000D03*
X133334000Y-57023000D03*
X131334000Y-57023000D03*
X133334000Y-59563000D03*
X131334000Y-59563000D03*
D19*
X126492000Y-47244000D03*
X126492000Y-42164000D03*
D20*
X210312000Y-55880000D03*
D21*
X124206000Y-76962000D03*
D22*
X126746000Y-76962000D03*
D23*
X126238000Y-61976000D03*
D24*
X126238000Y-59436000D03*
X126238000Y-56896000D03*
X126238000Y-54356000D03*
X126238000Y-51816000D03*
D11*
X161163000Y-70485000D03*
D25*
X152146000Y-50673000D03*
D26*
X149606000Y-50673000D03*
X147066000Y-50673000D03*
D25*
X152019000Y-45720000D03*
D26*
X149479000Y-45720000D03*
X146939000Y-45720000D03*
D19*
X126238000Y-71882000D03*
X126238000Y-66802000D03*
D25*
X143256000Y-77343000D03*
D26*
X140716000Y-77343000D03*
X138176000Y-77343000D03*
D27*
X136398000Y-64401000D03*
X136398000Y-65901000D03*
D28*
X134366000Y-66266060D03*
X134366000Y-62765940D03*
D29*
X135409940Y-51689000D03*
X138910060Y-51689000D03*
X135409940Y-54356000D03*
X138910060Y-54356000D03*
X135409940Y-57150000D03*
X138910060Y-57150000D03*
X135409940Y-59944000D03*
X138910060Y-59944000D03*
D18*
X151273000Y-65913000D03*
X153273000Y-65913000D03*
D28*
X163068000Y-76045060D03*
X163068000Y-72544940D03*
D20*
X175260000Y-59436000D03*
X196977000Y-75438000D03*
D30*
X151904000Y-68453000D03*
X153404000Y-68453000D03*
X152769000Y-64135000D03*
X151269000Y-64135000D03*
D31*
X147193000Y-75184000D03*
D32*
X147193000Y-77724000D03*
X149733000Y-75184000D03*
X149733000Y-77724000D03*
X152273000Y-75184000D03*
X152273000Y-77724000D03*
D33*
X160655000Y-44196000D03*
X187960000Y-76073000D03*
X192786000Y-53848000D03*
X196469000Y-63754000D03*
X195707000Y-64389000D03*
X195707000Y-63119000D03*
X195707000Y-61849000D03*
X201676000Y-41021000D03*
X201676000Y-42291000D03*
X202692000Y-41656000D03*
X163195000Y-44196000D03*
X160655000Y-42926000D03*
X163195000Y-42926000D03*
X178562000Y-77343000D03*
X179324000Y-77343000D03*
X180086000Y-77343000D03*
X180594000Y-77978000D03*
X180594000Y-75565000D03*
X179832000Y-75565000D03*
X179070000Y-75565000D03*
X178308000Y-75565000D03*
X204216000Y-74422000D03*
X203327000Y-74422000D03*
X203835000Y-73660000D03*
X203454000Y-76962000D03*
X204597000Y-76962000D03*
X203962000Y-77851000D03*
X140970000Y-67818000D03*
X144272000Y-66294000D03*
X161036000Y-52832000D03*
X161036000Y-51816000D03*
X188087000Y-63246000D03*
X189103000Y-63246000D03*
X190119000Y-63246000D03*
X138811000Y-43561000D03*
X139827000Y-43561000D03*
X139827000Y-44704000D03*
X139446000Y-40640000D03*
X138430000Y-40640000D03*
X137414000Y-40640000D03*
X153670000Y-80137000D03*
X146812000Y-80137000D03*
X138811000Y-80137000D03*
X131953000Y-80137000D03*
X129286000Y-74422000D03*
X129286000Y-73279000D03*
X129286000Y-72136000D03*
X129286000Y-71120000D03*
X129286000Y-70104000D03*
X129286000Y-69088000D03*
X129286000Y-68072000D03*
X129286000Y-67056000D03*
X129286000Y-66040000D03*
X129286000Y-65024000D03*
X129286000Y-64008000D03*
X158115000Y-80137000D03*
X159766000Y-80137000D03*
X161544000Y-80137000D03*
X163195000Y-80137000D03*
X165481000Y-80137000D03*
X173355000Y-80137000D03*
X174371000Y-80645000D03*
X172466000Y-80264000D03*
X183007000Y-38735000D03*
X181102000Y-38735000D03*
X178943000Y-38735000D03*
X167640000Y-38735000D03*
X166624000Y-38735000D03*
X163195000Y-38735000D03*
X162179000Y-38735000D03*
X187706000Y-59563000D03*
X189103000Y-59563000D03*
X192024000Y-59563000D03*
X193040000Y-59563000D03*
X198120000Y-59563000D03*
X199136000Y-59563000D03*
X202692000Y-59563000D03*
X205486000Y-59563000D03*
X206502000Y-59563000D03*
X207518000Y-59563000D03*
X211963000Y-59563000D03*
X212979000Y-59563000D03*
X214757000Y-59563000D03*
X215773000Y-59563000D03*
X216154000Y-57912000D03*
X216916000Y-58547000D03*
X216916000Y-54356000D03*
X216027000Y-53848000D03*
X216027000Y-46101000D03*
X215138000Y-45212000D03*
X213741000Y-43815000D03*
X211455000Y-41529000D03*
X209550000Y-39624000D03*
X206502000Y-38862000D03*
X200025000Y-38735000D03*
X199009000Y-38735000D03*
X192659000Y-38735000D03*
X191643000Y-38735000D03*
X190627000Y-38735000D03*
X186309000Y-38735000D03*
X185547000Y-39497000D03*
X185547000Y-40513000D03*
X185547000Y-47879000D03*
X184785000Y-47244000D03*
X184150000Y-48006000D03*
X184912000Y-48641000D03*
X175006000Y-67691000D03*
X178562000Y-64770000D03*
X177800000Y-64008000D03*
X181229000Y-60579000D03*
X181991000Y-61341000D03*
X184531000Y-59436000D03*
X185547000Y-56769000D03*
X185928000Y-57785000D03*
X179705000Y-67945000D03*
X178181000Y-69469000D03*
X178943000Y-68707000D03*
X171958000Y-67564000D03*
X171958000Y-66548000D03*
X171958000Y-65532000D03*
X171069000Y-66040000D03*
X175006000Y-65659000D03*
X175006000Y-66675000D03*
X157226000Y-73787000D03*
X158242000Y-73787000D03*
X159258000Y-73787000D03*
X158115000Y-76327000D03*
X161163000Y-66040000D03*
X162179000Y-66040000D03*
X162179000Y-67056000D03*
X161163000Y-67056000D03*
X159004000Y-68072000D03*
X157988000Y-68072000D03*
X158369000Y-61722000D03*
X157353000Y-54102000D03*
X158496000Y-55245000D03*
X157353000Y-56388000D03*
X158496000Y-57531000D03*
X157353000Y-58674000D03*
X158115000Y-42672000D03*
X158115000Y-45847000D03*
X158877000Y-45339000D03*
X157353000Y-45339000D03*
X157353000Y-46863000D03*
X158877000Y-46863000D03*
X146939000Y-38862000D03*
X147955000Y-38862000D03*
X148971000Y-38862000D03*
X158877000Y-41402000D03*
X156083000Y-43053000D03*
X157353000Y-43053000D03*
X158877000Y-43053000D03*
X137033000Y-62738000D03*
X197612000Y-46736000D03*
X196850000Y-46736000D03*
X196088000Y-46736000D03*
X193421000Y-75565000D03*
X193421000Y-74803000D03*
X189865000Y-67945000D03*
X190627000Y-67945000D03*
X191389000Y-67945000D03*
X191770000Y-69088000D03*
X191008000Y-69088000D03*
X190246000Y-69088000D03*
X191770000Y-69977000D03*
X191008000Y-69977000D03*
X190246000Y-69977000D03*
X190246000Y-70866000D03*
X191008000Y-70866000D03*
X186309000Y-70866000D03*
X189611000Y-72009000D03*
X190373000Y-72009000D03*
X191135000Y-72009000D03*
X191897000Y-72009000D03*
X191770000Y-70866000D03*
X208153000Y-45720000D03*
X209042000Y-46609000D03*
X209169000Y-45593000D03*
X206248000Y-42037000D03*
X206248000Y-41148000D03*
X198501000Y-53213000D03*
X199263000Y-53213000D03*
X200025000Y-53213000D03*
X197866000Y-48641000D03*
X197866000Y-47879000D03*
X197104000Y-47879000D03*
X197104000Y-48641000D03*
X197866000Y-49403000D03*
X197104000Y-49403000D03*
X196342000Y-47879000D03*
X196342000Y-48641000D03*
X196342000Y-49403000D03*
X196088000Y-50419000D03*
X196850000Y-50419000D03*
X197612000Y-50419000D03*
X198374000Y-50419000D03*
X191516000Y-49911000D03*
X191516000Y-54737000D03*
X170307000Y-42672000D03*
X171196000Y-42672000D03*
X172085000Y-42672000D03*
X172085000Y-46863000D03*
X171196000Y-46863000D03*
X170180000Y-46863000D03*
X180467000Y-51435000D03*
X180848000Y-45339000D03*
X181102000Y-41529000D03*
X180848000Y-43688000D03*
X161036000Y-48387000D03*
X162052000Y-48387000D03*
X163068000Y-48387000D03*
X175133000Y-51308000D03*
X174371000Y-50546000D03*
X173609000Y-49784000D03*
X140462000Y-51816000D03*
X140462000Y-54356000D03*
X140462000Y-59436000D03*
X140462000Y-57150000D03*
X213995000Y-60579000D03*
X213995000Y-64389000D03*
X145542000Y-57150000D03*
X142621000Y-57150000D03*
X209296000Y-73025000D03*
X209296000Y-78613000D03*
X144272000Y-68707000D03*
X213995000Y-56769000D03*
X213995000Y-55753000D03*
X213995000Y-54737000D03*
X212979000Y-54737000D03*
X212979000Y-55753000D03*
X212979000Y-56769000D03*
X193929000Y-43688000D03*
X192786000Y-46609000D03*
X136271000Y-63754000D03*
X141097000Y-60579000D03*
X153797000Y-64643000D03*
X147828000Y-59944000D03*
X218567000Y-51181000D03*
X218567000Y-49784000D03*
X218567000Y-48514000D03*
X218567000Y-47244000D03*
X179070000Y-55118000D03*
X177927000Y-55118000D03*
X178562000Y-55880000D03*
X177292000Y-55880000D03*
X176911000Y-55118000D03*
X176911000Y-49022000D03*
X172466000Y-76073000D03*
X173609000Y-76073000D03*
X171323000Y-76073000D03*
X166624000Y-68961000D03*
X164719000Y-76073000D03*
X153797000Y-69723000D03*
X150495000Y-58674000D03*
X134239000Y-51816000D03*
X149860000Y-59182000D03*
X134239000Y-54356000D03*
X149225000Y-59817000D03*
X134112000Y-57023000D03*
X148717000Y-60452000D03*
X134112000Y-59563000D03*
X148209000Y-64516000D03*
X133223000Y-77089000D03*
X132334000Y-73279000D03*
X132334000Y-69088000D03*
X141224000Y-75565000D03*
X147320000Y-65405000D03*
X148336000Y-65405000D03*
X148971000Y-70231000D03*
X177546000Y-77851000D03*
X175387000Y-80010000D03*
X153924000Y-73025000D03*
X149860000Y-66294000D03*
X146558000Y-66929000D03*
X214503000Y-66675000D03*
X206502000Y-67818000D03*
X206502000Y-66675000D03*
X187579000Y-66040000D03*
X188087000Y-67056000D03*
X199898000Y-75311000D03*
X199263000Y-74803000D03*
X200533000Y-74803000D03*
X199263000Y-75946000D03*
X200533000Y-75946000D03*
X165735000Y-45466000D03*
X164846000Y-41021000D03*
X164719000Y-45466000D03*
X166751000Y-45466000D03*
X210693000Y-62357000D03*
X209804000Y-62357000D03*
D34*
X155829000Y-44704000D02*
X155956000Y-44704000D01*
X156464000Y-44196000D02*
X160655000Y-44196000D01*
X155956000Y-44704000D02*
X156464000Y-44196000D01*
D35*
X152908000Y-42164000D02*
X155829000Y-45085000D01*
X155448000Y-44704000D02*
X155829000Y-44704000D01*
X155829000Y-45085000D02*
X155448000Y-44704000D01*
D36*
X187960000Y-76073000D02*
X187579000Y-76454000D01*
X187579000Y-76454000D02*
X176784000Y-76454000D01*
X192786000Y-53848000D02*
X192786000Y-54864000D01*
X192786000Y-54864000D02*
X192024000Y-55626000D01*
X192024000Y-55626000D02*
X187706000Y-55626000D01*
X187706000Y-55626000D02*
X187071000Y-56261000D01*
D35*
X176784000Y-68834000D02*
X184594500Y-61023500D01*
D34*
X195707000Y-61849000D02*
X196469000Y-63754000D01*
X184594500Y-61023500D02*
X194881500Y-61023500D01*
X195707000Y-63119000D02*
X195707000Y-64389000D01*
X194881500Y-61023500D02*
X195707000Y-61849000D01*
D35*
X131699000Y-42164000D02*
X152908000Y-42164000D01*
X155829000Y-44704000D02*
X155829000Y-77724000D01*
X155829000Y-77724000D02*
X156718000Y-78613000D01*
X156718000Y-78613000D02*
X174625000Y-78613000D01*
X174625000Y-78613000D02*
X176784000Y-76454000D01*
X176784000Y-76454000D02*
X176784000Y-68834000D01*
D34*
X201676000Y-41021000D02*
X187833000Y-41021000D01*
X156718000Y-78613000D02*
X155829000Y-77724000D01*
X174625000Y-78613000D02*
X156718000Y-78613000D01*
X176784000Y-76454000D02*
X174625000Y-78613000D01*
X176784000Y-68834000D02*
X176784000Y-76454000D01*
X187071000Y-58547000D02*
X184594500Y-61023500D01*
X184594500Y-61023500D02*
X176784000Y-68834000D01*
X187071000Y-41783000D02*
X187071000Y-56261000D01*
X187071000Y-56261000D02*
X187071000Y-58547000D01*
X187833000Y-41021000D02*
X187071000Y-41783000D01*
X201676000Y-41021000D02*
X201676000Y-42291000D01*
X202692000Y-41656000D02*
X202057000Y-41021000D01*
X202057000Y-41021000D02*
X201676000Y-41021000D01*
D35*
X131699000Y-42164000D02*
X126492000Y-42164000D01*
D37*
X163195000Y-42926000D02*
X160655000Y-42926000D01*
X163195000Y-44196000D02*
X160655000Y-44196000D01*
X131699000Y-42164000D02*
X131488000Y-42164000D01*
X160655000Y-42926000D02*
X160655000Y-44196000D01*
X163195000Y-44196000D02*
X161925000Y-44196000D01*
X161925000Y-42926000D02*
X163195000Y-42926000D01*
D34*
X131488000Y-44450000D02*
X131488000Y-42164000D01*
X131488000Y-42164000D02*
X131615000Y-42037000D01*
X131826000Y-42164000D02*
X126492000Y-42164000D01*
X131826000Y-42037000D02*
X131826000Y-42164000D01*
X131615000Y-42037000D02*
X131826000Y-42037000D01*
X126492000Y-47244000D02*
X126492000Y-42164000D01*
D36*
X178562000Y-77343000D02*
X179324000Y-77343000D01*
X180086000Y-77343000D02*
X180594000Y-77851000D01*
X180594000Y-77851000D02*
X180594000Y-77978000D01*
X178181000Y-69469000D02*
X180213000Y-71501000D01*
X180213000Y-71501000D02*
X180213000Y-75184000D01*
X180213000Y-75184000D02*
X180594000Y-75565000D01*
X179832000Y-75565000D02*
X179070000Y-75565000D01*
X221234000Y-76581000D02*
X221234000Y-71501000D01*
X204216000Y-59563000D02*
X204216000Y-74422000D01*
X203327000Y-74422000D02*
X203835000Y-73914000D01*
X203835000Y-73914000D02*
X203835000Y-73660000D01*
X203454000Y-76962000D02*
X204597000Y-76962000D01*
D38*
X140970000Y-67818000D02*
X142494000Y-66294000D01*
X142494000Y-66294000D02*
X144272000Y-66294000D01*
D36*
X161036000Y-52832000D02*
X161036000Y-51816000D01*
X188087000Y-63246000D02*
X189103000Y-63246000D01*
X189103000Y-59563000D02*
X192024000Y-59563000D01*
D35*
X158496000Y-55245000D02*
X161417000Y-55245000D01*
X161417000Y-55245000D02*
X163639500Y-53022500D01*
D36*
X138811000Y-43561000D02*
X139827000Y-43561000D01*
X146939000Y-38862000D02*
X140208000Y-38862000D01*
X140208000Y-38862000D02*
X139446000Y-39624000D01*
X139446000Y-39624000D02*
X139446000Y-40640000D01*
X138430000Y-40640000D02*
X137414000Y-40640000D01*
X153670000Y-80137000D02*
X146812000Y-80137000D01*
X138811000Y-80137000D02*
X131953000Y-80137000D01*
X129286000Y-74422000D02*
X129286000Y-73279000D01*
X129286000Y-72136000D02*
X129286000Y-71120000D01*
X129286000Y-70104000D02*
X129286000Y-69088000D01*
X129286000Y-68072000D02*
X129286000Y-67056000D01*
X129286000Y-66040000D02*
X129286000Y-65024000D01*
X158115000Y-80137000D02*
X159766000Y-80137000D01*
X161544000Y-80137000D02*
X163195000Y-80137000D01*
X165481000Y-80137000D02*
X173355000Y-80137000D01*
X174371000Y-80645000D02*
X174244000Y-80772000D01*
X174244000Y-80772000D02*
X172466000Y-80264000D01*
X183007000Y-38735000D02*
X181102000Y-38735000D01*
X178943000Y-38735000D02*
X167640000Y-38735000D01*
X166624000Y-38735000D02*
X163195000Y-38735000D01*
X162179000Y-38735000D02*
X158877000Y-38735000D01*
X158877000Y-38735000D02*
X158623000Y-38989000D01*
X158623000Y-38989000D02*
X158623000Y-39751000D01*
X187706000Y-59563000D02*
X189103000Y-59563000D01*
X192024000Y-59563000D02*
X193040000Y-59563000D01*
X198120000Y-59563000D02*
X199136000Y-59563000D01*
X202692000Y-59563000D02*
X204216000Y-59563000D01*
X204216000Y-59563000D02*
X205486000Y-59563000D01*
X206502000Y-59563000D02*
X207518000Y-59563000D01*
X211963000Y-59563000D02*
X212979000Y-59563000D01*
X214757000Y-59563000D02*
X215773000Y-59563000D01*
X216154000Y-57912000D02*
X216789000Y-58547000D01*
X216789000Y-58547000D02*
X216916000Y-58547000D01*
X216916000Y-54356000D02*
X216408000Y-53848000D01*
X216408000Y-53848000D02*
X216027000Y-53848000D01*
X216027000Y-46101000D02*
X215138000Y-45212000D01*
X213741000Y-43815000D02*
X211455000Y-41529000D01*
X209550000Y-39624000D02*
X208788000Y-38862000D01*
X208788000Y-38862000D02*
X206502000Y-38862000D01*
X200025000Y-38735000D02*
X199009000Y-38735000D01*
X192659000Y-38735000D02*
X191643000Y-38735000D01*
X190627000Y-38735000D02*
X186309000Y-38735000D01*
X185547000Y-39497000D02*
X185547000Y-40513000D01*
X185547000Y-47879000D02*
X184912000Y-47244000D01*
X184912000Y-47244000D02*
X184785000Y-47244000D01*
X184150000Y-48006000D02*
X184785000Y-48641000D01*
X184785000Y-48641000D02*
X184912000Y-48641000D01*
X175006000Y-67691000D02*
X175895000Y-67691000D01*
X175895000Y-67691000D02*
X178562000Y-65024000D01*
X178562000Y-65024000D02*
X178562000Y-64770000D01*
X177800000Y-64008000D02*
X181229000Y-60579000D01*
X181991000Y-61341000D02*
X183896000Y-59436000D01*
X183896000Y-59436000D02*
X184531000Y-59436000D01*
X185547000Y-56769000D02*
X185928000Y-58039000D01*
X185928000Y-58039000D02*
X185928000Y-57785000D01*
X179705000Y-67945000D02*
X179832000Y-68072000D01*
X179832000Y-68072000D02*
X179832000Y-69088000D01*
X178181000Y-69469000D02*
X178943000Y-68707000D01*
X171958000Y-67564000D02*
X171958000Y-66548000D01*
X171958000Y-65532000D02*
X171450000Y-66040000D01*
X171450000Y-66040000D02*
X171069000Y-66040000D01*
X175006000Y-65659000D02*
X175006000Y-66675000D01*
X157988000Y-68072000D02*
X157988000Y-73025000D01*
X157988000Y-73025000D02*
X157226000Y-73787000D01*
X158242000Y-73787000D02*
X159258000Y-73787000D01*
X158115000Y-76327000D02*
X161897060Y-72544940D01*
X161897060Y-72544940D02*
X163068000Y-72544940D01*
X161163000Y-66040000D02*
X162179000Y-66040000D01*
X162179000Y-67056000D02*
X161163000Y-67056000D01*
X159004000Y-68072000D02*
X157988000Y-68072000D01*
X157353000Y-61722000D02*
X158369000Y-61722000D01*
X157353000Y-54102000D02*
X158496000Y-55245000D01*
X157353000Y-56388000D02*
X158496000Y-57531000D01*
X157353000Y-58674000D02*
X157353000Y-61722000D01*
X158115000Y-42672000D02*
X158877000Y-41910000D01*
X158877000Y-41910000D02*
X158877000Y-41402000D01*
X158115000Y-45339000D02*
X158115000Y-45847000D01*
D38*
X158877000Y-45339000D02*
X158115000Y-45339000D01*
X158115000Y-45339000D02*
X157353000Y-45339000D01*
X157353000Y-46863000D02*
X158877000Y-46863000D01*
X146939000Y-38862000D02*
X147955000Y-38862000D01*
X148971000Y-38862000D02*
X156210000Y-38862000D01*
X156210000Y-38862000D02*
X157734000Y-38862000D01*
X157734000Y-38862000D02*
X158623000Y-39751000D01*
X158623000Y-39751000D02*
X158877000Y-40005000D01*
X158877000Y-40005000D02*
X158877000Y-41402000D01*
X156083000Y-43053000D02*
X157353000Y-43053000D01*
X134366000Y-62765940D02*
X137005060Y-62765940D01*
X137005060Y-62765940D02*
X137033000Y-62738000D01*
X198501000Y-46863000D02*
X197739000Y-46863000D01*
X197739000Y-46863000D02*
X197612000Y-46736000D01*
X196850000Y-46736000D02*
X196088000Y-46736000D01*
X193421000Y-75565000D02*
X193421000Y-74803000D01*
X190246000Y-69088000D02*
X190246000Y-68326000D01*
X190246000Y-68326000D02*
X189865000Y-67945000D01*
X190627000Y-67945000D02*
X191389000Y-67945000D01*
X191008000Y-69088000D02*
X191770000Y-69088000D01*
X190246000Y-69088000D02*
X191008000Y-69088000D01*
X190246000Y-69977000D02*
X190246000Y-69088000D01*
X191770000Y-70866000D02*
X191770000Y-69977000D01*
X191008000Y-70866000D02*
X191008000Y-69977000D01*
X190246000Y-70866000D02*
X190246000Y-69977000D01*
X191008000Y-70866000D02*
X190246000Y-70866000D01*
X191770000Y-70866000D02*
X191008000Y-70866000D01*
X186309000Y-70866000D02*
X187452000Y-72009000D01*
X187452000Y-72009000D02*
X189611000Y-72009000D01*
X190373000Y-72009000D02*
X191135000Y-72009000D01*
X191897000Y-72009000D02*
X191770000Y-71882000D01*
X191770000Y-71882000D02*
X191770000Y-70866000D01*
D36*
X197866000Y-47879000D02*
X197866000Y-47498000D01*
X197866000Y-47498000D02*
X198501000Y-46863000D01*
X198501000Y-46863000D02*
X199644000Y-45720000D01*
X199644000Y-45720000D02*
X208153000Y-45720000D01*
X209042000Y-46609000D02*
X209169000Y-46482000D01*
X209169000Y-46482000D02*
X209169000Y-45593000D01*
X206248000Y-42037000D02*
X206248000Y-41148000D01*
X198374000Y-50419000D02*
X198374000Y-53086000D01*
X198374000Y-53086000D02*
X198501000Y-53213000D01*
X199263000Y-53213000D02*
X200025000Y-53213000D01*
X197104000Y-48641000D02*
X197866000Y-48641000D01*
X197104000Y-47879000D02*
X197866000Y-47879000D01*
X196342000Y-47879000D02*
X197104000Y-47879000D01*
X196342000Y-48641000D02*
X197104000Y-48641000D01*
X197104000Y-49403000D02*
X197866000Y-49403000D01*
X196342000Y-49403000D02*
X197104000Y-49403000D01*
X196342000Y-48641000D02*
X196342000Y-47879000D01*
X196342000Y-49403000D02*
X196342000Y-48641000D01*
X196088000Y-50419000D02*
X196088000Y-49657000D01*
X196088000Y-49657000D02*
X196342000Y-49403000D01*
X196088000Y-50419000D02*
X196850000Y-50419000D01*
X197612000Y-50419000D02*
X198374000Y-50419000D01*
X191516000Y-49911000D02*
X191516000Y-54737000D01*
D39*
X170307000Y-42672000D02*
X171196000Y-42672000D01*
X172085000Y-42672000D02*
X172085000Y-46863000D01*
X171196000Y-46863000D02*
X170180000Y-46863000D01*
X180467000Y-51435000D02*
X180848000Y-51054000D01*
X180848000Y-51054000D02*
X180848000Y-45339000D01*
X180848000Y-45339000D02*
X180848000Y-43688000D01*
X181102000Y-41529000D02*
X180848000Y-41783000D01*
X180848000Y-41783000D02*
X180848000Y-43688000D01*
X161036000Y-48387000D02*
X162052000Y-48387000D01*
X163068000Y-48387000D02*
X163195000Y-48514000D01*
X163195000Y-48514000D02*
X163195000Y-52578000D01*
X163195000Y-52578000D02*
X163639500Y-53022500D01*
X163639500Y-53022500D02*
X163703000Y-53086000D01*
X163703000Y-53086000D02*
X173355000Y-53086000D01*
X173355000Y-53086000D02*
X175133000Y-51308000D01*
X174371000Y-50546000D02*
X173609000Y-49784000D01*
D38*
X138910060Y-51689000D02*
X140335000Y-51689000D01*
X140335000Y-51689000D02*
X140462000Y-51816000D01*
X140462000Y-54356000D02*
X138910060Y-54356000D01*
X138910060Y-59944000D02*
X139954000Y-59944000D01*
X139954000Y-59944000D02*
X140462000Y-59436000D01*
X140462000Y-57150000D02*
X138910060Y-57150000D01*
X176022000Y-81407000D02*
X146431000Y-81407000D01*
X146431000Y-81407000D02*
X145161000Y-80137000D01*
X145161000Y-80137000D02*
X145161000Y-77343000D01*
X209296000Y-78613000D02*
X209296000Y-80899000D01*
X209296000Y-80899000D02*
X208788000Y-81407000D01*
X208788000Y-81407000D02*
X176022000Y-81407000D01*
X213995000Y-60071000D02*
X213995000Y-60579000D01*
X213995000Y-64389000D02*
X213995000Y-64770000D01*
D36*
X145542000Y-57150000D02*
X142621000Y-57150000D01*
D38*
X209296000Y-73025000D02*
X209550000Y-73025000D01*
X209550000Y-73025000D02*
X215265000Y-67310000D01*
X215265000Y-67310000D02*
X215265000Y-66040000D01*
X215265000Y-66040000D02*
X213995000Y-64770000D01*
X213995000Y-60071000D02*
X213995000Y-56769000D01*
X209296000Y-73025000D02*
X209296000Y-78613000D01*
X143256000Y-77343000D02*
X145161000Y-77343000D01*
X145161000Y-77343000D02*
X146812000Y-77343000D01*
X146812000Y-77343000D02*
X147193000Y-77724000D01*
X147193000Y-77724000D02*
X146939000Y-77724000D01*
X146939000Y-77724000D02*
X145796000Y-76581000D01*
X145796000Y-76581000D02*
X145796000Y-70231000D01*
X145796000Y-70231000D02*
X144272000Y-68707000D01*
X210312000Y-55880000D02*
X212852000Y-55880000D01*
X212852000Y-55880000D02*
X212979000Y-55753000D01*
D35*
X219329000Y-61341000D02*
X221234000Y-61341000D01*
X219329000Y-56261000D02*
X221234000Y-56261000D01*
X219329000Y-56261000D02*
X219329000Y-61341000D01*
X212979000Y-55753000D02*
X218821000Y-55753000D01*
X218821000Y-55753000D02*
X219329000Y-56261000D01*
D34*
X219329000Y-56261000D02*
X219329000Y-61341000D01*
X213995000Y-56769000D02*
X216535000Y-56769000D01*
X216535000Y-56769000D02*
X217043000Y-56261000D01*
X217043000Y-56261000D02*
X219329000Y-56261000D01*
D36*
X213995000Y-54737000D02*
X213995000Y-54356000D01*
X213995000Y-54356000D02*
X213233000Y-53594000D01*
X213233000Y-53594000D02*
X213233000Y-46863000D01*
X213233000Y-46863000D02*
X210058000Y-43688000D01*
X210058000Y-43688000D02*
X203581000Y-43688000D01*
X202946000Y-44450000D02*
X209804000Y-44450000D01*
X209804000Y-44450000D02*
X212725000Y-47371000D01*
X212725000Y-47371000D02*
X212725000Y-54483000D01*
X212725000Y-54483000D02*
X212979000Y-54737000D01*
D34*
X212979000Y-54737000D02*
X213995000Y-54737000D01*
X213995000Y-56769000D02*
X213995000Y-55753000D01*
X212979000Y-56769000D02*
X213995000Y-56769000D01*
X212979000Y-56769000D02*
X212979000Y-55753000D01*
X213995000Y-55753000D02*
X213995000Y-54737000D01*
X212979000Y-54737000D02*
X212979000Y-55753000D01*
D38*
X195072000Y-43942000D02*
X194183000Y-43942000D01*
X194183000Y-43942000D02*
X193929000Y-43688000D01*
X203581000Y-43688000D02*
X201168000Y-43688000D01*
X201168000Y-43688000D02*
X200914000Y-43942000D01*
X200914000Y-43942000D02*
X195072000Y-43942000D01*
X202946000Y-44450000D02*
X193548000Y-44450000D01*
X193548000Y-44450000D02*
X192786000Y-45212000D01*
X192786000Y-45212000D02*
X192786000Y-46609000D01*
D36*
X136398000Y-64401000D02*
X136398000Y-63881000D01*
X136398000Y-63881000D02*
X136271000Y-63754000D01*
D38*
X152769000Y-64135000D02*
X153289000Y-64135000D01*
X153289000Y-64135000D02*
X153797000Y-64643000D01*
X151904000Y-68453000D02*
X151904000Y-67282000D01*
X151904000Y-67282000D02*
X153273000Y-65913000D01*
X141732000Y-59944000D02*
X142367000Y-59944000D01*
X141097000Y-60579000D02*
X141732000Y-59944000D01*
X153273000Y-65167000D02*
X153273000Y-65913000D01*
X153797000Y-64643000D02*
X153273000Y-65167000D01*
X147828000Y-59944000D02*
X142367000Y-59944000D01*
D36*
X175260000Y-59436000D02*
X175260000Y-57912000D01*
X175260000Y-57912000D02*
X175260000Y-57785000D01*
X175260000Y-57785000D02*
X175260000Y-57912000D01*
D35*
X218567000Y-51181000D02*
X221234000Y-51181000D01*
X218567000Y-51181000D02*
X218567000Y-47244000D01*
X218567000Y-47244000D02*
X219710000Y-46101000D01*
X219710000Y-46101000D02*
X221234000Y-46101000D01*
X218567000Y-51181000D02*
X218567000Y-49784000D01*
X218567000Y-48514000D02*
X218567000Y-47244000D01*
X177292000Y-55880000D02*
X175260000Y-57912000D01*
X175260000Y-57912000D02*
X175260000Y-57912000D01*
X175260000Y-57912000D02*
X175260000Y-62103000D01*
X175260000Y-62103000D02*
X173482000Y-63881000D01*
X173482000Y-63881000D02*
X173482000Y-70612000D01*
X173482000Y-70612000D02*
X174117000Y-71247000D01*
X174117000Y-71247000D02*
X174117000Y-75565000D01*
X174117000Y-75565000D02*
X173609000Y-76073000D01*
X173609000Y-76073000D02*
X172466000Y-76073000D01*
X172466000Y-76073000D02*
X171323000Y-76073000D01*
D39*
X177292000Y-55880000D02*
X175260000Y-57912000D01*
X175260000Y-57912000D02*
X175260000Y-62103000D01*
X175260000Y-62103000D02*
X173482000Y-63881000D01*
X173482000Y-63881000D02*
X173482000Y-70612000D01*
X173482000Y-70612000D02*
X174117000Y-71247000D01*
D34*
X176911000Y-55118000D02*
X176911000Y-55499000D01*
X176911000Y-55499000D02*
X177292000Y-55880000D01*
X177927000Y-55118000D02*
X176911000Y-55118000D01*
X177292000Y-55880000D02*
X177292000Y-55753000D01*
X177292000Y-55753000D02*
X177927000Y-55118000D01*
X178562000Y-55880000D02*
X178562000Y-55753000D01*
X178562000Y-55753000D02*
X179070000Y-55118000D01*
X177927000Y-55118000D02*
X179070000Y-55118000D01*
X178562000Y-55880000D02*
X177292000Y-55880000D01*
D38*
X176911000Y-49022000D02*
X176911000Y-55118000D01*
X174117000Y-71247000D02*
X174117000Y-73263000D01*
X174117000Y-73263000D02*
X174101000Y-73279000D01*
D39*
X172466000Y-76073000D02*
X173609000Y-76073000D01*
X172466000Y-76073000D02*
X171323000Y-76073000D01*
X174117000Y-75565000D02*
X173609000Y-76073000D01*
X174117000Y-71247000D02*
X174117000Y-75565000D01*
D38*
X164719000Y-76073000D02*
X163095940Y-76073000D01*
X163095940Y-76073000D02*
X163068000Y-76045060D01*
X166624000Y-74168000D02*
X166624000Y-68961000D01*
X164719000Y-76073000D02*
X166624000Y-74168000D01*
X153404000Y-68453000D02*
X153404000Y-69330000D01*
X153404000Y-69330000D02*
X153797000Y-69723000D01*
X150495000Y-58674000D02*
X144907000Y-53086000D01*
X144907000Y-53086000D02*
X136806940Y-53086000D01*
X136806940Y-53086000D02*
X135409940Y-51689000D01*
D36*
X133334000Y-51816000D02*
X134239000Y-51816000D01*
X135409940Y-51689000D02*
X134366000Y-51689000D01*
X134366000Y-51689000D02*
X134239000Y-51816000D01*
D38*
X135409940Y-54356000D02*
X135409940Y-55399940D01*
X135409940Y-55399940D02*
X135763000Y-55753000D01*
X135763000Y-55753000D02*
X146431000Y-55753000D01*
X146431000Y-55753000D02*
X149860000Y-59182000D01*
D36*
X134239000Y-54356000D02*
X133334000Y-54356000D01*
X135409940Y-54356000D02*
X134239000Y-54356000D01*
D38*
X135409940Y-57150000D02*
X135409940Y-57939940D01*
X135409940Y-57939940D02*
X136017000Y-58547000D01*
X136017000Y-58547000D02*
X147955000Y-58547000D01*
X147955000Y-58547000D02*
X149225000Y-59817000D01*
D36*
X133207000Y-56896000D02*
X133985000Y-56896000D01*
X133985000Y-56896000D02*
X134112000Y-57023000D01*
X135409940Y-57150000D02*
X134239000Y-57150000D01*
X134239000Y-57150000D02*
X134112000Y-57023000D01*
D38*
X148717000Y-60452000D02*
X147828000Y-61341000D01*
X147828000Y-61341000D02*
X136806940Y-61341000D01*
X136806940Y-61341000D02*
X135409940Y-59944000D01*
D36*
X134112000Y-59563000D02*
X133334000Y-59563000D01*
X135409940Y-59944000D02*
X135409940Y-60098940D01*
X135409940Y-59944000D02*
X134493000Y-59944000D01*
X134493000Y-59944000D02*
X134112000Y-59563000D01*
D38*
X137668000Y-64631000D02*
X136398000Y-65901000D01*
X137668000Y-63500000D02*
X137668000Y-64631000D01*
X139065000Y-62103000D02*
X137668000Y-63500000D01*
X148082000Y-62103000D02*
X139065000Y-62103000D01*
X148209000Y-62230000D02*
X148082000Y-62103000D01*
X148209000Y-64516000D02*
X148209000Y-62230000D01*
X134366000Y-66266060D02*
X132361940Y-66266060D01*
X133223000Y-76962000D02*
X133223000Y-77089000D01*
X132334000Y-76073000D02*
X133223000Y-76962000D01*
X132334000Y-73279000D02*
X132334000Y-76073000D01*
X132334000Y-66294000D02*
X132334000Y-69088000D01*
X132361940Y-66266060D02*
X132334000Y-66294000D01*
X136398000Y-65901000D02*
X134731060Y-65901000D01*
X134731060Y-65901000D02*
X134366000Y-66266060D01*
X140716000Y-77343000D02*
X140716000Y-76073000D01*
X140716000Y-76073000D02*
X141224000Y-75565000D01*
X152146000Y-55372000D02*
X152146000Y-50673000D01*
X152527000Y-55753000D02*
X152146000Y-55372000D01*
X152527000Y-59436000D02*
X152527000Y-55753000D01*
X149987000Y-61976000D02*
X152527000Y-59436000D01*
X149987000Y-64770000D02*
X149987000Y-61976000D01*
X148463000Y-66294000D02*
X149987000Y-64770000D01*
X148209000Y-66294000D02*
X148463000Y-66294000D01*
X147320000Y-65405000D02*
X148209000Y-66294000D01*
X149606000Y-50673000D02*
X149606000Y-55372000D01*
X149352000Y-64389000D02*
X148336000Y-65405000D01*
X149352000Y-61722000D02*
X149352000Y-64389000D01*
X151892000Y-59182000D02*
X149352000Y-61722000D01*
X151892000Y-57658000D02*
X151892000Y-59182000D01*
X149606000Y-55372000D02*
X151892000Y-57658000D01*
X148971000Y-70231000D02*
X148463000Y-70739000D01*
X148463000Y-70739000D02*
X148463000Y-76454000D01*
X148463000Y-76454000D02*
X149733000Y-77724000D01*
X151269000Y-64135000D02*
X151269000Y-65909000D01*
X151269000Y-65909000D02*
X151273000Y-65913000D01*
X152019000Y-71120000D02*
X153924000Y-73025000D01*
X175387000Y-80010000D02*
X177546000Y-77851000D01*
X152031000Y-71120000D02*
X152019000Y-71120000D01*
X152019000Y-71120000D02*
X150749000Y-69850000D01*
X150749000Y-69850000D02*
X150749000Y-66437000D01*
X150749000Y-66437000D02*
X151273000Y-65913000D01*
X151273000Y-65913000D02*
X150241000Y-65913000D01*
X150241000Y-65913000D02*
X149860000Y-66294000D01*
X152273000Y-75184000D02*
X152273000Y-73406000D01*
X152273000Y-73406000D02*
X150241000Y-71374000D01*
X150241000Y-71374000D02*
X149987000Y-71374000D01*
X149987000Y-71374000D02*
X149733000Y-71120000D01*
X149733000Y-71120000D02*
X149733000Y-69977000D01*
X149733000Y-69977000D02*
X146685000Y-66929000D01*
X146685000Y-66929000D02*
X146558000Y-66929000D01*
X206502000Y-66675000D02*
X214503000Y-66675000D01*
D34*
X200533000Y-75946000D02*
X205105000Y-75946000D01*
X206502000Y-74549000D02*
X206502000Y-67818000D01*
X206502000Y-67818000D02*
X206502000Y-66675000D01*
X205105000Y-75946000D02*
X206502000Y-74549000D01*
D38*
X196977000Y-75438000D02*
X198755000Y-75438000D01*
X198755000Y-75438000D02*
X199263000Y-75946000D01*
X187579000Y-66040000D02*
X187706000Y-65913000D01*
X187706000Y-65913000D02*
X200914000Y-65913000D01*
X200914000Y-65913000D02*
X202184000Y-67183000D01*
X202184000Y-67183000D02*
X202184000Y-74295000D01*
X202184000Y-74295000D02*
X200533000Y-75946000D01*
X200533000Y-74803000D02*
X201676000Y-73660000D01*
X201676000Y-73660000D02*
X201676000Y-67437000D01*
X201676000Y-67437000D02*
X200660000Y-66421000D01*
X200660000Y-66421000D02*
X188722000Y-66421000D01*
X188722000Y-66421000D02*
X188087000Y-67056000D01*
D34*
X199263000Y-74803000D02*
X199390000Y-74803000D01*
X199390000Y-74803000D02*
X199898000Y-75311000D01*
X199263000Y-74803000D02*
X199263000Y-75946000D01*
X200533000Y-74803000D02*
X199263000Y-74803000D01*
X200533000Y-75946000D02*
X200533000Y-74803000D01*
X200533000Y-75946000D02*
X199263000Y-75946000D01*
D39*
X165735000Y-45466000D02*
X164719000Y-45466000D01*
D37*
X164719000Y-41148000D02*
X164719000Y-45466000D01*
X164846000Y-41021000D02*
X164719000Y-41148000D01*
D39*
X166751000Y-45466000D02*
X165735000Y-45466000D01*
D34*
X210693000Y-62357000D02*
X211328000Y-62357000D01*
X221234000Y-66421000D02*
X219964000Y-66421000D01*
X219964000Y-66421000D02*
X215900000Y-62357000D01*
X215900000Y-62357000D02*
X211328000Y-62357000D01*
X211328000Y-62357000D02*
X209804000Y-62357000D01*
D40*
G36*
X182753000Y-52705000D02*
X181610000Y-52705000D01*
X181563841Y-52713685D01*
X181521447Y-52740965D01*
X181493006Y-52782590D01*
X181483000Y-52832000D01*
X181483000Y-56515000D01*
X181491685Y-56561159D01*
X181518965Y-56603553D01*
X181560590Y-56631994D01*
X181610000Y-56642000D01*
X182753000Y-56642000D01*
X182753000Y-57224394D01*
X175334394Y-64643000D01*
X174659000Y-64643000D01*
X174659000Y-64368530D01*
X176092262Y-62935267D01*
X176092265Y-62935265D01*
X176347406Y-62553418D01*
X176437001Y-62103000D01*
X176437000Y-62102995D01*
X176437000Y-61371235D01*
X176759870Y-61371235D01*
X176918107Y-61341461D01*
X177063437Y-61247943D01*
X177160934Y-61105251D01*
X177195235Y-60935870D01*
X177195235Y-57936130D01*
X177165461Y-57777893D01*
X177123635Y-57712895D01*
X178029530Y-56807000D01*
X178562000Y-56807000D01*
X178916748Y-56736436D01*
X179217488Y-56535488D01*
X179418436Y-56234748D01*
X179436536Y-56143754D01*
X179793866Y-55697092D01*
X179853940Y-55581246D01*
X179926436Y-55472748D01*
X179936537Y-55421967D01*
X179960374Y-55376000D01*
X179971543Y-55245983D01*
X179997000Y-55118000D01*
X179986899Y-55067217D01*
X179991330Y-55015630D01*
X179951894Y-54891238D01*
X179926436Y-54763252D01*
X179897670Y-54720201D01*
X179882023Y-54670845D01*
X179797986Y-54571013D01*
X179725488Y-54462512D01*
X179682437Y-54433746D01*
X179649092Y-54394134D01*
X179533246Y-54334060D01*
X179424748Y-54261564D01*
X179373967Y-54251463D01*
X179328000Y-54227626D01*
X179197983Y-54216457D01*
X179070000Y-54191000D01*
X177488000Y-54191000D01*
X177488000Y-49473243D01*
X177526961Y-49434350D01*
X177637874Y-49167244D01*
X177638126Y-48878025D01*
X177527680Y-48610725D01*
X177323350Y-48406039D01*
X177056244Y-48295126D01*
X176767025Y-48294874D01*
X176499725Y-48405320D01*
X176295039Y-48609650D01*
X176184126Y-48876756D01*
X176183874Y-49165975D01*
X176294320Y-49433275D01*
X176334000Y-49473024D01*
X176334000Y-54410068D01*
X176255512Y-54462512D01*
X176054564Y-54763252D01*
X175984000Y-55118000D01*
X175984000Y-55499000D01*
X175988060Y-55519410D01*
X174427735Y-57079735D01*
X174172594Y-57461581D01*
X174164800Y-57500765D01*
X173760130Y-57500765D01*
X173601893Y-57530539D01*
X173456563Y-57624057D01*
X173359066Y-57766749D01*
X173324765Y-57936130D01*
X173324765Y-60935870D01*
X173354539Y-61094107D01*
X173448057Y-61239437D01*
X173590749Y-61336934D01*
X173760130Y-61371235D01*
X174083000Y-61371235D01*
X174083000Y-61615471D01*
X172649735Y-63048735D01*
X172394594Y-63430581D01*
X172305000Y-63881000D01*
X172305000Y-64643000D01*
X160147000Y-64643000D01*
X160147000Y-45123000D01*
X160655000Y-45123000D01*
X161009748Y-45052436D01*
X161128632Y-44973000D01*
X163195000Y-44973000D01*
X163492345Y-44913854D01*
X163744422Y-44745422D01*
X163912854Y-44493345D01*
X163942000Y-44346819D01*
X163942000Y-45466000D01*
X163957000Y-45541410D01*
X163957000Y-51562000D01*
X163965685Y-51608159D01*
X163992965Y-51650553D01*
X164034590Y-51678994D01*
X164084000Y-51689000D01*
X170180000Y-51689000D01*
X170226159Y-51680315D01*
X170268553Y-51653035D01*
X170296994Y-51611410D01*
X170307000Y-51562000D01*
X170307000Y-48006000D01*
X170298315Y-47959841D01*
X170271035Y-47917447D01*
X170229410Y-47889006D01*
X170180000Y-47879000D01*
X167132000Y-47879000D01*
X167132000Y-46355000D01*
X169418000Y-46355000D01*
X169464159Y-46346315D01*
X169506553Y-46319035D01*
X169534994Y-46277410D01*
X169545000Y-46228000D01*
X169545000Y-44958000D01*
X169536315Y-44911841D01*
X169509035Y-44869447D01*
X169467410Y-44841006D01*
X169418000Y-44831000D01*
X167117499Y-44831000D01*
X166896244Y-44739126D01*
X166607025Y-44738874D01*
X166425206Y-44814000D01*
X166060559Y-44814000D01*
X165880244Y-44739126D01*
X165591025Y-44738874D01*
X165496000Y-44778137D01*
X165496000Y-41419896D01*
X165563854Y-41318345D01*
X165623000Y-41021000D01*
X165563854Y-40723655D01*
X165395422Y-40471578D01*
X165143345Y-40303146D01*
X164846000Y-40244000D01*
X164548655Y-40303146D01*
X164296578Y-40471578D01*
X164169578Y-40598578D01*
X164001146Y-40850655D01*
X163942000Y-41148000D01*
X163942000Y-42775181D01*
X163912854Y-42628655D01*
X163744422Y-42376578D01*
X163492345Y-42208146D01*
X163195000Y-42149000D01*
X160655000Y-42149000D01*
X160357655Y-42208146D01*
X160147000Y-42348901D01*
X160147000Y-40005000D01*
X182753000Y-40005000D01*
X182753000Y-52705000D01*
X182753000Y-52705000D01*
G37*
X182753000Y-52705000D02*
X181610000Y-52705000D01*
X181563841Y-52713685D01*
X181521447Y-52740965D01*
X181493006Y-52782590D01*
X181483000Y-52832000D01*
X181483000Y-56515000D01*
X181491685Y-56561159D01*
X181518965Y-56603553D01*
X181560590Y-56631994D01*
X181610000Y-56642000D01*
X182753000Y-56642000D01*
X182753000Y-57224394D01*
X175334394Y-64643000D01*
X174659000Y-64643000D01*
X174659000Y-64368530D01*
X176092262Y-62935267D01*
X176092265Y-62935265D01*
X176347406Y-62553418D01*
X176437001Y-62103000D01*
X176437000Y-62102995D01*
X176437000Y-61371235D01*
X176759870Y-61371235D01*
X176918107Y-61341461D01*
X177063437Y-61247943D01*
X177160934Y-61105251D01*
X177195235Y-60935870D01*
X177195235Y-57936130D01*
X177165461Y-57777893D01*
X177123635Y-57712895D01*
X178029530Y-56807000D01*
X178562000Y-56807000D01*
X178916748Y-56736436D01*
X179217488Y-56535488D01*
X179418436Y-56234748D01*
X179436536Y-56143754D01*
X179793866Y-55697092D01*
X179853940Y-55581246D01*
X179926436Y-55472748D01*
X179936537Y-55421967D01*
X179960374Y-55376000D01*
X179971543Y-55245983D01*
X179997000Y-55118000D01*
X179986899Y-55067217D01*
X179991330Y-55015630D01*
X179951894Y-54891238D01*
X179926436Y-54763252D01*
X179897670Y-54720201D01*
X179882023Y-54670845D01*
X179797986Y-54571013D01*
X179725488Y-54462512D01*
X179682437Y-54433746D01*
X179649092Y-54394134D01*
X179533246Y-54334060D01*
X179424748Y-54261564D01*
X179373967Y-54251463D01*
X179328000Y-54227626D01*
X179197983Y-54216457D01*
X179070000Y-54191000D01*
X177488000Y-54191000D01*
X177488000Y-49473243D01*
X177526961Y-49434350D01*
X177637874Y-49167244D01*
X177638126Y-48878025D01*
X177527680Y-48610725D01*
X177323350Y-48406039D01*
X177056244Y-48295126D01*
X176767025Y-48294874D01*
X176499725Y-48405320D01*
X176295039Y-48609650D01*
X176184126Y-48876756D01*
X176183874Y-49165975D01*
X176294320Y-49433275D01*
X176334000Y-49473024D01*
X176334000Y-54410068D01*
X176255512Y-54462512D01*
X176054564Y-54763252D01*
X175984000Y-55118000D01*
X175984000Y-55499000D01*
X175988060Y-55519410D01*
X174427735Y-57079735D01*
X174172594Y-57461581D01*
X174164800Y-57500765D01*
X173760130Y-57500765D01*
X173601893Y-57530539D01*
X173456563Y-57624057D01*
X173359066Y-57766749D01*
X173324765Y-57936130D01*
X173324765Y-60935870D01*
X173354539Y-61094107D01*
X173448057Y-61239437D01*
X173590749Y-61336934D01*
X173760130Y-61371235D01*
X174083000Y-61371235D01*
X174083000Y-61615471D01*
X172649735Y-63048735D01*
X172394594Y-63430581D01*
X172305000Y-63881000D01*
X172305000Y-64643000D01*
X160147000Y-64643000D01*
X160147000Y-45123000D01*
X160655000Y-45123000D01*
X161009748Y-45052436D01*
X161128632Y-44973000D01*
X163195000Y-44973000D01*
X163492345Y-44913854D01*
X163744422Y-44745422D01*
X163912854Y-44493345D01*
X163942000Y-44346819D01*
X163942000Y-45466000D01*
X163957000Y-45541410D01*
X163957000Y-51562000D01*
X163965685Y-51608159D01*
X163992965Y-51650553D01*
X164034590Y-51678994D01*
X164084000Y-51689000D01*
X170180000Y-51689000D01*
X170226159Y-51680315D01*
X170268553Y-51653035D01*
X170296994Y-51611410D01*
X170307000Y-51562000D01*
X170307000Y-48006000D01*
X170298315Y-47959841D01*
X170271035Y-47917447D01*
X170229410Y-47889006D01*
X170180000Y-47879000D01*
X167132000Y-47879000D01*
X167132000Y-46355000D01*
X169418000Y-46355000D01*
X169464159Y-46346315D01*
X169506553Y-46319035D01*
X169534994Y-46277410D01*
X169545000Y-46228000D01*
X169545000Y-44958000D01*
X169536315Y-44911841D01*
X169509035Y-44869447D01*
X169467410Y-44841006D01*
X169418000Y-44831000D01*
X167117499Y-44831000D01*
X166896244Y-44739126D01*
X166607025Y-44738874D01*
X166425206Y-44814000D01*
X166060559Y-44814000D01*
X165880244Y-44739126D01*
X165591025Y-44738874D01*
X165496000Y-44778137D01*
X165496000Y-41419896D01*
X165563854Y-41318345D01*
X165623000Y-41021000D01*
X165563854Y-40723655D01*
X165395422Y-40471578D01*
X165143345Y-40303146D01*
X164846000Y-40244000D01*
X164548655Y-40303146D01*
X164296578Y-40471578D01*
X164169578Y-40598578D01*
X164001146Y-40850655D01*
X163942000Y-41148000D01*
X163942000Y-42775181D01*
X163912854Y-42628655D01*
X163744422Y-42376578D01*
X163492345Y-42208146D01*
X163195000Y-42149000D01*
X160655000Y-42149000D01*
X160357655Y-42208146D01*
X160147000Y-42348901D01*
X160147000Y-40005000D01*
X182753000Y-40005000D01*
X182753000Y-52705000D01*
G36*
X200749000Y-42291000D02*
X200819564Y-42645748D01*
X201020512Y-42946488D01*
X201266722Y-43111000D01*
X201168000Y-43111000D01*
X200947192Y-43154922D01*
X200759999Y-43279999D01*
X200759997Y-43280002D01*
X200674999Y-43365000D01*
X194582154Y-43365000D01*
X194545680Y-43276725D01*
X194341350Y-43072039D01*
X194074244Y-42961126D01*
X193785025Y-42960874D01*
X193517725Y-43071320D01*
X193313039Y-43275650D01*
X193202126Y-43542756D01*
X193201874Y-43831975D01*
X193256492Y-43964162D01*
X193139999Y-44041999D01*
X193139997Y-44042002D01*
X192377999Y-44803999D01*
X192252922Y-44991192D01*
X192208999Y-45212000D01*
X192209000Y-45212005D01*
X192209000Y-46157757D01*
X192170039Y-46196650D01*
X192059126Y-46463756D01*
X192058874Y-46752975D01*
X192169320Y-47020275D01*
X192373650Y-47224961D01*
X192640756Y-47335874D01*
X192929975Y-47336126D01*
X193197275Y-47225680D01*
X193401961Y-47021350D01*
X193512874Y-46754244D01*
X193513126Y-46465025D01*
X193402680Y-46197725D01*
X193363000Y-46157976D01*
X193363000Y-45451002D01*
X193787001Y-45027000D01*
X202946000Y-45027000D01*
X203071682Y-45002000D01*
X209575354Y-45002000D01*
X212173000Y-47599646D01*
X212173000Y-54152799D01*
X212123943Y-54076563D01*
X211981251Y-53979066D01*
X211811870Y-53944765D01*
X208812130Y-53944765D01*
X208653893Y-53974539D01*
X208508563Y-54068057D01*
X208411066Y-54210749D01*
X208376765Y-54380130D01*
X208376765Y-57379870D01*
X208406539Y-57538107D01*
X208500057Y-57683437D01*
X208642749Y-57780934D01*
X208812130Y-57815235D01*
X209721159Y-57815235D01*
X209243394Y-58293000D01*
X187998000Y-58293000D01*
X187998000Y-56178000D01*
X192024000Y-56178000D01*
X192235242Y-56135982D01*
X192414323Y-56016323D01*
X193176323Y-55254323D01*
X193295982Y-55075242D01*
X193338000Y-54864000D01*
X193338000Y-54324200D01*
X193401961Y-54260350D01*
X193512874Y-53993244D01*
X193513126Y-53704025D01*
X193402680Y-53436725D01*
X193198350Y-53232039D01*
X192931244Y-53121126D01*
X192642025Y-53120874D01*
X192374725Y-53231320D01*
X192170039Y-53435650D01*
X192059126Y-53702756D01*
X192058874Y-53991975D01*
X192169320Y-54259275D01*
X192234000Y-54324068D01*
X192234000Y-54635354D01*
X191795354Y-55074000D01*
X187998000Y-55074000D01*
X187998000Y-48260000D01*
X199009000Y-48260000D01*
X199009000Y-49530000D01*
X199017685Y-49576159D01*
X199044965Y-49618553D01*
X199086590Y-49646994D01*
X199136000Y-49657000D01*
X201803000Y-49657000D01*
X201803000Y-51308000D01*
X201811685Y-51354159D01*
X201838965Y-51396553D01*
X201880590Y-51424994D01*
X201930000Y-51435000D01*
X210312000Y-51435000D01*
X210358159Y-51426315D01*
X210400553Y-51399035D01*
X210428994Y-51357410D01*
X210439000Y-51308000D01*
X210439000Y-48260000D01*
X210430315Y-48213841D01*
X210403035Y-48171447D01*
X210361410Y-48143006D01*
X210312000Y-48133000D01*
X199136000Y-48133000D01*
X199089841Y-48141685D01*
X199047447Y-48168965D01*
X199019006Y-48210590D01*
X199009000Y-48260000D01*
X187998000Y-48260000D01*
X187998000Y-42166976D01*
X188216976Y-41948000D01*
X200749000Y-41948000D01*
X200749000Y-42291000D01*
X200749000Y-42291000D01*
G37*
X200749000Y-42291000D02*
X200819564Y-42645748D01*
X201020512Y-42946488D01*
X201266722Y-43111000D01*
X201168000Y-43111000D01*
X200947192Y-43154922D01*
X200759999Y-43279999D01*
X200759997Y-43280002D01*
X200674999Y-43365000D01*
X194582154Y-43365000D01*
X194545680Y-43276725D01*
X194341350Y-43072039D01*
X194074244Y-42961126D01*
X193785025Y-42960874D01*
X193517725Y-43071320D01*
X193313039Y-43275650D01*
X193202126Y-43542756D01*
X193201874Y-43831975D01*
X193256492Y-43964162D01*
X193139999Y-44041999D01*
X193139997Y-44042002D01*
X192377999Y-44803999D01*
X192252922Y-44991192D01*
X192208999Y-45212000D01*
X192209000Y-45212005D01*
X192209000Y-46157757D01*
X192170039Y-46196650D01*
X192059126Y-46463756D01*
X192058874Y-46752975D01*
X192169320Y-47020275D01*
X192373650Y-47224961D01*
X192640756Y-47335874D01*
X192929975Y-47336126D01*
X193197275Y-47225680D01*
X193401961Y-47021350D01*
X193512874Y-46754244D01*
X193513126Y-46465025D01*
X193402680Y-46197725D01*
X193363000Y-46157976D01*
X193363000Y-45451002D01*
X193787001Y-45027000D01*
X202946000Y-45027000D01*
X203071682Y-45002000D01*
X209575354Y-45002000D01*
X212173000Y-47599646D01*
X212173000Y-54152799D01*
X212123943Y-54076563D01*
X211981251Y-53979066D01*
X211811870Y-53944765D01*
X208812130Y-53944765D01*
X208653893Y-53974539D01*
X208508563Y-54068057D01*
X208411066Y-54210749D01*
X208376765Y-54380130D01*
X208376765Y-57379870D01*
X208406539Y-57538107D01*
X208500057Y-57683437D01*
X208642749Y-57780934D01*
X208812130Y-57815235D01*
X209721159Y-57815235D01*
X209243394Y-58293000D01*
X187998000Y-58293000D01*
X187998000Y-56178000D01*
X192024000Y-56178000D01*
X192235242Y-56135982D01*
X192414323Y-56016323D01*
X193176323Y-55254323D01*
X193295982Y-55075242D01*
X193338000Y-54864000D01*
X193338000Y-54324200D01*
X193401961Y-54260350D01*
X193512874Y-53993244D01*
X193513126Y-53704025D01*
X193402680Y-53436725D01*
X193198350Y-53232039D01*
X192931244Y-53121126D01*
X192642025Y-53120874D01*
X192374725Y-53231320D01*
X192170039Y-53435650D01*
X192059126Y-53702756D01*
X192058874Y-53991975D01*
X192169320Y-54259275D01*
X192234000Y-54324068D01*
X192234000Y-54635354D01*
X191795354Y-55074000D01*
X187998000Y-55074000D01*
X187998000Y-48260000D01*
X199009000Y-48260000D01*
X199009000Y-49530000D01*
X199017685Y-49576159D01*
X199044965Y-49618553D01*
X199086590Y-49646994D01*
X199136000Y-49657000D01*
X201803000Y-49657000D01*
X201803000Y-51308000D01*
X201811685Y-51354159D01*
X201838965Y-51396553D01*
X201880590Y-51424994D01*
X201930000Y-51435000D01*
X210312000Y-51435000D01*
X210358159Y-51426315D01*
X210400553Y-51399035D01*
X210428994Y-51357410D01*
X210439000Y-51308000D01*
X210439000Y-48260000D01*
X210430315Y-48213841D01*
X210403035Y-48171447D01*
X210361410Y-48143006D01*
X210312000Y-48133000D01*
X199136000Y-48133000D01*
X199089841Y-48141685D01*
X199047447Y-48168965D01*
X199019006Y-48210590D01*
X199009000Y-48260000D01*
X187998000Y-48260000D01*
X187998000Y-42166976D01*
X188216976Y-41948000D01*
X200749000Y-41948000D01*
X200749000Y-42291000D01*
G36*
X214757000Y-46915606D02*
X214757000Y-52779394D01*
X213978020Y-53558374D01*
X213785000Y-53365354D01*
X213785000Y-46863000D01*
X213742982Y-46651759D01*
X213742982Y-46651758D01*
X213623323Y-46472677D01*
X210448323Y-43297677D01*
X210269242Y-43178018D01*
X210058000Y-43136000D01*
X203706682Y-43136000D01*
X203581000Y-43111000D01*
X202085278Y-43111000D01*
X202331488Y-42946488D01*
X202532436Y-42645748D01*
X202550515Y-42554857D01*
X202692000Y-42583000D01*
X203046747Y-42512437D01*
X203347488Y-42311488D01*
X203548437Y-42010747D01*
X203619000Y-41656000D01*
X203548437Y-41301253D01*
X203347488Y-41000512D01*
X202712488Y-40365512D01*
X202605274Y-40293874D01*
X202411748Y-40164564D01*
X202057000Y-40094000D01*
X187833000Y-40094000D01*
X187478253Y-40164563D01*
X187177512Y-40365512D01*
X186690000Y-40853024D01*
X186690000Y-40057606D01*
X186742606Y-40005000D01*
X207846394Y-40005000D01*
X214757000Y-46915606D01*
X214757000Y-46915606D01*
G37*
X214757000Y-46915606D02*
X214757000Y-52779394D01*
X213978020Y-53558374D01*
X213785000Y-53365354D01*
X213785000Y-46863000D01*
X213742982Y-46651759D01*
X213742982Y-46651758D01*
X213623323Y-46472677D01*
X210448323Y-43297677D01*
X210269242Y-43178018D01*
X210058000Y-43136000D01*
X203706682Y-43136000D01*
X203581000Y-43111000D01*
X202085278Y-43111000D01*
X202331488Y-42946488D01*
X202532436Y-42645748D01*
X202550515Y-42554857D01*
X202692000Y-42583000D01*
X203046747Y-42512437D01*
X203347488Y-42311488D01*
X203548437Y-42010747D01*
X203619000Y-41656000D01*
X203548437Y-41301253D01*
X203347488Y-41000512D01*
X202712488Y-40365512D01*
X202605274Y-40293874D01*
X202411748Y-40164564D01*
X202057000Y-40094000D01*
X187833000Y-40094000D01*
X187478253Y-40164563D01*
X187177512Y-40365512D01*
X186690000Y-40853024D01*
X186690000Y-40057606D01*
X186742606Y-40005000D01*
X207846394Y-40005000D01*
X214757000Y-46915606D01*
G36*
X202311000Y-66493999D02*
X201322001Y-65504999D01*
X201134808Y-65379922D01*
X200914000Y-65335999D01*
X200913995Y-65336000D01*
X187779330Y-65336000D01*
X187724244Y-65313126D01*
X187435025Y-65312874D01*
X187167725Y-65423320D01*
X186963039Y-65627650D01*
X186852126Y-65894756D01*
X186851874Y-66183975D01*
X186962320Y-66451275D01*
X187166650Y-66655961D01*
X187421913Y-66761957D01*
X187360126Y-66910756D01*
X187359874Y-67199975D01*
X187470320Y-67467275D01*
X187674650Y-67671961D01*
X187941756Y-67782874D01*
X188230975Y-67783126D01*
X188498275Y-67672680D01*
X188702961Y-67468350D01*
X188813874Y-67201244D01*
X188813923Y-67145079D01*
X188961001Y-66998000D01*
X200420998Y-66998000D01*
X201099000Y-67676002D01*
X201099000Y-73420998D01*
X200625582Y-73894416D01*
X200533000Y-73876000D01*
X199263000Y-73876000D01*
X198912235Y-73945772D01*
X198912235Y-73938130D01*
X198882461Y-73779893D01*
X198788943Y-73634563D01*
X198646251Y-73537066D01*
X198476870Y-73502765D01*
X195477130Y-73502765D01*
X195318893Y-73532539D01*
X195173563Y-73626057D01*
X195076066Y-73768749D01*
X195041765Y-73938130D01*
X195041765Y-76937870D01*
X195071539Y-77096107D01*
X195165057Y-77241437D01*
X195307749Y-77338934D01*
X195477130Y-77373235D01*
X198476870Y-77373235D01*
X198635107Y-77343461D01*
X198780437Y-77249943D01*
X198877934Y-77107251D01*
X198912235Y-76937870D01*
X198912235Y-76803228D01*
X199263000Y-76873000D01*
X202311000Y-76873000D01*
X202311000Y-78994000D01*
X181737000Y-78994000D01*
X181737000Y-77006000D01*
X187579000Y-77006000D01*
X187790242Y-76963982D01*
X187969323Y-76844323D01*
X188013599Y-76800047D01*
X188103975Y-76800126D01*
X188371275Y-76689680D01*
X188575961Y-76485350D01*
X188686874Y-76218244D01*
X188687126Y-75929025D01*
X188576680Y-75661725D01*
X188372350Y-75457039D01*
X188105244Y-75346126D01*
X187816025Y-75345874D01*
X187548725Y-75456320D01*
X187344039Y-75660650D01*
X187243821Y-75902000D01*
X181737000Y-75902000D01*
X181737000Y-68453000D01*
X181726994Y-68403590D01*
X181699803Y-68363197D01*
X180309568Y-66972962D01*
X185332030Y-61950500D01*
X194497524Y-61950500D01*
X194916968Y-62369944D01*
X194990762Y-62554430D01*
X194850564Y-62764252D01*
X194780000Y-63119000D01*
X194780000Y-64389000D01*
X194850564Y-64743748D01*
X195051512Y-65044488D01*
X195352252Y-65245436D01*
X195707000Y-65316000D01*
X196061748Y-65245436D01*
X196362488Y-65044488D01*
X196563436Y-64743748D01*
X196580480Y-64658061D01*
X196813279Y-64614698D01*
X197116448Y-64417431D01*
X197321048Y-64119163D01*
X197395931Y-63765303D01*
X197329698Y-63409721D01*
X196567698Y-61504721D01*
X196564558Y-61499896D01*
X196563436Y-61494253D01*
X196466059Y-61348517D01*
X196370431Y-61201552D01*
X196365685Y-61198296D01*
X196362488Y-61193512D01*
X195874976Y-60706000D01*
X202311000Y-60706000D01*
X202311000Y-66493999D01*
X202311000Y-66493999D01*
G37*
X202311000Y-66493999D02*
X201322001Y-65504999D01*
X201134808Y-65379922D01*
X200914000Y-65335999D01*
X200913995Y-65336000D01*
X187779330Y-65336000D01*
X187724244Y-65313126D01*
X187435025Y-65312874D01*
X187167725Y-65423320D01*
X186963039Y-65627650D01*
X186852126Y-65894756D01*
X186851874Y-66183975D01*
X186962320Y-66451275D01*
X187166650Y-66655961D01*
X187421913Y-66761957D01*
X187360126Y-66910756D01*
X187359874Y-67199975D01*
X187470320Y-67467275D01*
X187674650Y-67671961D01*
X187941756Y-67782874D01*
X188230975Y-67783126D01*
X188498275Y-67672680D01*
X188702961Y-67468350D01*
X188813874Y-67201244D01*
X188813923Y-67145079D01*
X188961001Y-66998000D01*
X200420998Y-66998000D01*
X201099000Y-67676002D01*
X201099000Y-73420998D01*
X200625582Y-73894416D01*
X200533000Y-73876000D01*
X199263000Y-73876000D01*
X198912235Y-73945772D01*
X198912235Y-73938130D01*
X198882461Y-73779893D01*
X198788943Y-73634563D01*
X198646251Y-73537066D01*
X198476870Y-73502765D01*
X195477130Y-73502765D01*
X195318893Y-73532539D01*
X195173563Y-73626057D01*
X195076066Y-73768749D01*
X195041765Y-73938130D01*
X195041765Y-76937870D01*
X195071539Y-77096107D01*
X195165057Y-77241437D01*
X195307749Y-77338934D01*
X195477130Y-77373235D01*
X198476870Y-77373235D01*
X198635107Y-77343461D01*
X198780437Y-77249943D01*
X198877934Y-77107251D01*
X198912235Y-76937870D01*
X198912235Y-76803228D01*
X199263000Y-76873000D01*
X202311000Y-76873000D01*
X202311000Y-78994000D01*
X181737000Y-78994000D01*
X181737000Y-77006000D01*
X187579000Y-77006000D01*
X187790242Y-76963982D01*
X187969323Y-76844323D01*
X188013599Y-76800047D01*
X188103975Y-76800126D01*
X188371275Y-76689680D01*
X188575961Y-76485350D01*
X188686874Y-76218244D01*
X188687126Y-75929025D01*
X188576680Y-75661725D01*
X188372350Y-75457039D01*
X188105244Y-75346126D01*
X187816025Y-75345874D01*
X187548725Y-75456320D01*
X187344039Y-75660650D01*
X187243821Y-75902000D01*
X181737000Y-75902000D01*
X181737000Y-68453000D01*
X181726994Y-68403590D01*
X181699803Y-68363197D01*
X180309568Y-66972962D01*
X185332030Y-61950500D01*
X194497524Y-61950500D01*
X194916968Y-62369944D01*
X194990762Y-62554430D01*
X194850564Y-62764252D01*
X194780000Y-63119000D01*
X194780000Y-64389000D01*
X194850564Y-64743748D01*
X195051512Y-65044488D01*
X195352252Y-65245436D01*
X195707000Y-65316000D01*
X196061748Y-65245436D01*
X196362488Y-65044488D01*
X196563436Y-64743748D01*
X196580480Y-64658061D01*
X196813279Y-64614698D01*
X197116448Y-64417431D01*
X197321048Y-64119163D01*
X197395931Y-63765303D01*
X197329698Y-63409721D01*
X196567698Y-61504721D01*
X196564558Y-61499896D01*
X196563436Y-61494253D01*
X196466059Y-61348517D01*
X196370431Y-61201552D01*
X196365685Y-61198296D01*
X196362488Y-61193512D01*
X195874976Y-60706000D01*
X202311000Y-60706000D01*
X202311000Y-66493999D01*
G36*
X218152000Y-61341000D02*
X218241594Y-61791418D01*
X218496735Y-62173265D01*
X218878582Y-62428406D01*
X219329000Y-62518000D01*
X219754538Y-62518000D01*
X219760430Y-62526818D01*
X220304488Y-62890346D01*
X220946248Y-63018000D01*
X221521752Y-63018000D01*
X222163512Y-62890346D01*
X222707570Y-62526818D01*
X223018000Y-62062227D01*
X223018000Y-65699773D01*
X222707570Y-65235182D01*
X222163512Y-64871654D01*
X221521752Y-64744000D01*
X220946248Y-64744000D01*
X220304488Y-64871654D01*
X219957488Y-65103512D01*
X216555488Y-61701512D01*
X216448274Y-61629874D01*
X216254748Y-61500564D01*
X215900000Y-61430000D01*
X209804000Y-61430000D01*
X209449252Y-61500564D01*
X209148512Y-61701512D01*
X208947564Y-62002252D01*
X208877000Y-62357000D01*
X208947564Y-62711748D01*
X209148512Y-63012488D01*
X209449252Y-63213436D01*
X209804000Y-63284000D01*
X215516024Y-63284000D01*
X219308512Y-67076488D01*
X219484765Y-67194257D01*
X219760430Y-67606818D01*
X220304488Y-67970346D01*
X220946248Y-68098000D01*
X221521752Y-68098000D01*
X222163512Y-67970346D01*
X222707570Y-67606818D01*
X223018000Y-67142227D01*
X223018000Y-78024064D01*
X219254064Y-81788000D01*
X209223002Y-81788000D01*
X209703998Y-81307003D01*
X209704001Y-81307001D01*
X209784722Y-81186192D01*
X209829078Y-81119809D01*
X209873000Y-80899000D01*
X209873000Y-79064243D01*
X209911961Y-79025350D01*
X210022874Y-78758244D01*
X210023126Y-78469025D01*
X209912680Y-78201725D01*
X209873000Y-78161976D01*
X209873000Y-73489796D01*
X209958001Y-73433001D01*
X215672998Y-67718003D01*
X215673001Y-67718001D01*
X215798078Y-67530808D01*
X215816738Y-67437000D01*
X215842001Y-67310000D01*
X215842000Y-67309995D01*
X215842000Y-66040000D01*
X215798078Y-65819192D01*
X215673001Y-65631999D01*
X215672998Y-65631997D01*
X214678852Y-64637851D01*
X214721874Y-64534244D01*
X214722126Y-64245025D01*
X214611680Y-63977725D01*
X214407350Y-63773039D01*
X214140244Y-63662126D01*
X213851025Y-63661874D01*
X213583725Y-63772320D01*
X213379039Y-63976650D01*
X213268126Y-64243756D01*
X213267874Y-64532975D01*
X213378320Y-64800275D01*
X213435394Y-64857449D01*
X213461922Y-64990808D01*
X213586999Y-65178001D01*
X214357502Y-65948503D01*
X214091725Y-66058320D01*
X214051976Y-66098000D01*
X207209932Y-66098000D01*
X207157488Y-66019512D01*
X206856748Y-65818564D01*
X206502000Y-65748000D01*
X206147252Y-65818564D01*
X205846512Y-66019512D01*
X205645564Y-66320252D01*
X205575000Y-66675000D01*
X205575000Y-74165024D01*
X204721024Y-75019000D01*
X203073000Y-75019000D01*
X203073000Y-60198000D01*
X203062994Y-60148590D01*
X203034553Y-60106965D01*
X202992159Y-60079685D01*
X202946000Y-60071000D01*
X190552606Y-60071000D01*
X191695606Y-58928000D01*
X213418000Y-58928000D01*
X213418000Y-60127757D01*
X213379039Y-60166650D01*
X213268126Y-60433756D01*
X213267874Y-60722975D01*
X213378320Y-60990275D01*
X213582650Y-61194961D01*
X213849756Y-61305874D01*
X214138975Y-61306126D01*
X214406275Y-61195680D01*
X214610961Y-60991350D01*
X214721874Y-60724244D01*
X214722126Y-60435025D01*
X214611680Y-60167725D01*
X214572000Y-60127976D01*
X214572000Y-58928000D01*
X215392000Y-58928000D01*
X215441410Y-58917994D01*
X215483035Y-58889553D01*
X215510315Y-58847159D01*
X215519000Y-58801000D01*
X215519000Y-57696000D01*
X216535000Y-57696000D01*
X216889748Y-57625436D01*
X217190488Y-57424488D01*
X217426976Y-57188000D01*
X218152000Y-57188000D01*
X218152000Y-61341000D01*
X218152000Y-61341000D01*
G37*
X218152000Y-61341000D02*
X218241594Y-61791418D01*
X218496735Y-62173265D01*
X218878582Y-62428406D01*
X219329000Y-62518000D01*
X219754538Y-62518000D01*
X219760430Y-62526818D01*
X220304488Y-62890346D01*
X220946248Y-63018000D01*
X221521752Y-63018000D01*
X222163512Y-62890346D01*
X222707570Y-62526818D01*
X223018000Y-62062227D01*
X223018000Y-65699773D01*
X222707570Y-65235182D01*
X222163512Y-64871654D01*
X221521752Y-64744000D01*
X220946248Y-64744000D01*
X220304488Y-64871654D01*
X219957488Y-65103512D01*
X216555488Y-61701512D01*
X216448274Y-61629874D01*
X216254748Y-61500564D01*
X215900000Y-61430000D01*
X209804000Y-61430000D01*
X209449252Y-61500564D01*
X209148512Y-61701512D01*
X208947564Y-62002252D01*
X208877000Y-62357000D01*
X208947564Y-62711748D01*
X209148512Y-63012488D01*
X209449252Y-63213436D01*
X209804000Y-63284000D01*
X215516024Y-63284000D01*
X219308512Y-67076488D01*
X219484765Y-67194257D01*
X219760430Y-67606818D01*
X220304488Y-67970346D01*
X220946248Y-68098000D01*
X221521752Y-68098000D01*
X222163512Y-67970346D01*
X222707570Y-67606818D01*
X223018000Y-67142227D01*
X223018000Y-78024064D01*
X219254064Y-81788000D01*
X209223002Y-81788000D01*
X209703998Y-81307003D01*
X209704001Y-81307001D01*
X209784722Y-81186192D01*
X209829078Y-81119809D01*
X209873000Y-80899000D01*
X209873000Y-79064243D01*
X209911961Y-79025350D01*
X210022874Y-78758244D01*
X210023126Y-78469025D01*
X209912680Y-78201725D01*
X209873000Y-78161976D01*
X209873000Y-73489796D01*
X209958001Y-73433001D01*
X215672998Y-67718003D01*
X215673001Y-67718001D01*
X215798078Y-67530808D01*
X215816738Y-67437000D01*
X215842001Y-67310000D01*
X215842000Y-67309995D01*
X215842000Y-66040000D01*
X215798078Y-65819192D01*
X215673001Y-65631999D01*
X215672998Y-65631997D01*
X214678852Y-64637851D01*
X214721874Y-64534244D01*
X214722126Y-64245025D01*
X214611680Y-63977725D01*
X214407350Y-63773039D01*
X214140244Y-63662126D01*
X213851025Y-63661874D01*
X213583725Y-63772320D01*
X213379039Y-63976650D01*
X213268126Y-64243756D01*
X213267874Y-64532975D01*
X213378320Y-64800275D01*
X213435394Y-64857449D01*
X213461922Y-64990808D01*
X213586999Y-65178001D01*
X214357502Y-65948503D01*
X214091725Y-66058320D01*
X214051976Y-66098000D01*
X207209932Y-66098000D01*
X207157488Y-66019512D01*
X206856748Y-65818564D01*
X206502000Y-65748000D01*
X206147252Y-65818564D01*
X205846512Y-66019512D01*
X205645564Y-66320252D01*
X205575000Y-66675000D01*
X205575000Y-74165024D01*
X204721024Y-75019000D01*
X203073000Y-75019000D01*
X203073000Y-60198000D01*
X203062994Y-60148590D01*
X203034553Y-60106965D01*
X202992159Y-60079685D01*
X202946000Y-60071000D01*
X190552606Y-60071000D01*
X191695606Y-58928000D01*
X213418000Y-58928000D01*
X213418000Y-60127757D01*
X213379039Y-60166650D01*
X213268126Y-60433756D01*
X213267874Y-60722975D01*
X213378320Y-60990275D01*
X213582650Y-61194961D01*
X213849756Y-61305874D01*
X214138975Y-61306126D01*
X214406275Y-61195680D01*
X214610961Y-60991350D01*
X214721874Y-60724244D01*
X214722126Y-60435025D01*
X214611680Y-60167725D01*
X214572000Y-60127976D01*
X214572000Y-58928000D01*
X215392000Y-58928000D01*
X215441410Y-58917994D01*
X215483035Y-58889553D01*
X215510315Y-58847159D01*
X215519000Y-58801000D01*
X215519000Y-57696000D01*
X216535000Y-57696000D01*
X216889748Y-57625436D01*
X217190488Y-57424488D01*
X217426976Y-57188000D01*
X218152000Y-57188000D01*
X218152000Y-61341000D01*
G36*
X214090650Y-67290961D02*
X214357310Y-67401689D01*
X209455113Y-72303885D01*
X209441244Y-72298126D01*
X209152025Y-72297874D01*
X208884725Y-72408320D01*
X208680039Y-72612650D01*
X208569126Y-72879756D01*
X208568874Y-73168975D01*
X208679320Y-73436275D01*
X208719000Y-73476024D01*
X208719000Y-78161757D01*
X208680039Y-78200650D01*
X208569126Y-78467756D01*
X208568874Y-78756975D01*
X208679320Y-79024275D01*
X208719000Y-79064024D01*
X208719000Y-80659999D01*
X208548998Y-80830000D01*
X188959606Y-80830000D01*
X187758606Y-79629000D01*
X202946000Y-79629000D01*
X202995410Y-79618994D01*
X203037035Y-79590553D01*
X203064315Y-79548159D01*
X203073000Y-79502000D01*
X203073000Y-76873000D01*
X205105000Y-76873000D01*
X205459748Y-76802436D01*
X205760488Y-76601488D01*
X207157488Y-75204488D01*
X207188719Y-75157747D01*
X207358436Y-74903748D01*
X207429000Y-74549000D01*
X207429000Y-67252000D01*
X214051757Y-67252000D01*
X214090650Y-67290961D01*
X214090650Y-67290961D01*
G37*
X214090650Y-67290961D02*
X214357310Y-67401689D01*
X209455113Y-72303885D01*
X209441244Y-72298126D01*
X209152025Y-72297874D01*
X208884725Y-72408320D01*
X208680039Y-72612650D01*
X208569126Y-72879756D01*
X208568874Y-73168975D01*
X208679320Y-73436275D01*
X208719000Y-73476024D01*
X208719000Y-78161757D01*
X208680039Y-78200650D01*
X208569126Y-78467756D01*
X208568874Y-78756975D01*
X208679320Y-79024275D01*
X208719000Y-79064024D01*
X208719000Y-80659999D01*
X208548998Y-80830000D01*
X188959606Y-80830000D01*
X187758606Y-79629000D01*
X202946000Y-79629000D01*
X202995410Y-79618994D01*
X203037035Y-79590553D01*
X203064315Y-79548159D01*
X203073000Y-79502000D01*
X203073000Y-76873000D01*
X205105000Y-76873000D01*
X205459748Y-76802436D01*
X205760488Y-76601488D01*
X207157488Y-75204488D01*
X207188719Y-75157747D01*
X207358436Y-74903748D01*
X207429000Y-74549000D01*
X207429000Y-67252000D01*
X214051757Y-67252000D01*
X214090650Y-67290961D01*
G36*
X223018000Y-44528252D02*
X222903381Y-44449936D01*
X222734000Y-44415635D01*
X219734000Y-44415635D01*
X219575763Y-44445409D01*
X219430433Y-44538927D01*
X219332936Y-44681619D01*
X219298635Y-44851000D01*
X219298635Y-45005826D01*
X219259581Y-45013594D01*
X218877735Y-45268735D01*
X217734735Y-46411735D01*
X217479594Y-46793581D01*
X217410274Y-47142078D01*
X217390000Y-47244000D01*
X217390000Y-51181000D01*
X217479594Y-51631418D01*
X217734735Y-52013265D01*
X218116582Y-52268406D01*
X218567000Y-52358000D01*
X219754538Y-52358000D01*
X219760430Y-52366818D01*
X220304488Y-52730346D01*
X220946248Y-52858000D01*
X221521752Y-52858000D01*
X222163512Y-52730346D01*
X222707570Y-52366818D01*
X223018000Y-51902227D01*
X223018000Y-55539773D01*
X222707570Y-55075182D01*
X222163512Y-54711654D01*
X221521752Y-54584000D01*
X220946248Y-54584000D01*
X220304488Y-54711654D01*
X219788773Y-55056244D01*
X219653265Y-54920735D01*
X219271419Y-54665594D01*
X218821000Y-54576000D01*
X215519000Y-54576000D01*
X215519000Y-46609000D01*
X215508994Y-46559590D01*
X215481803Y-46519197D01*
X208242803Y-39280197D01*
X208200789Y-39252334D01*
X208153000Y-39243000D01*
X194997606Y-39243000D01*
X194102606Y-38348000D01*
X223018000Y-38348000D01*
X223018000Y-44528252D01*
X223018000Y-44528252D01*
G37*
X223018000Y-44528252D02*
X222903381Y-44449936D01*
X222734000Y-44415635D01*
X219734000Y-44415635D01*
X219575763Y-44445409D01*
X219430433Y-44538927D01*
X219332936Y-44681619D01*
X219298635Y-44851000D01*
X219298635Y-45005826D01*
X219259581Y-45013594D01*
X218877735Y-45268735D01*
X217734735Y-46411735D01*
X217479594Y-46793581D01*
X217410274Y-47142078D01*
X217390000Y-47244000D01*
X217390000Y-51181000D01*
X217479594Y-51631418D01*
X217734735Y-52013265D01*
X218116582Y-52268406D01*
X218567000Y-52358000D01*
X219754538Y-52358000D01*
X219760430Y-52366818D01*
X220304488Y-52730346D01*
X220946248Y-52858000D01*
X221521752Y-52858000D01*
X222163512Y-52730346D01*
X222707570Y-52366818D01*
X223018000Y-51902227D01*
X223018000Y-55539773D01*
X222707570Y-55075182D01*
X222163512Y-54711654D01*
X221521752Y-54584000D01*
X220946248Y-54584000D01*
X220304488Y-54711654D01*
X219788773Y-55056244D01*
X219653265Y-54920735D01*
X219271419Y-54665594D01*
X218821000Y-54576000D01*
X215519000Y-54576000D01*
X215519000Y-46609000D01*
X215508994Y-46559590D01*
X215481803Y-46519197D01*
X208242803Y-39280197D01*
X208200789Y-39252334D01*
X208153000Y-39243000D01*
X194997606Y-39243000D01*
X194102606Y-38348000D01*
X223018000Y-38348000D01*
X223018000Y-44528252D01*
G36*
X163777394Y-39116000D02*
X159766000Y-39116000D01*
X159716590Y-39126006D01*
X159676197Y-39153197D01*
X159422197Y-39407197D01*
X159394334Y-39449211D01*
X159385000Y-39497000D01*
X159385000Y-43269000D01*
X156464000Y-43269000D01*
X156109252Y-43339564D01*
X155892754Y-43484224D01*
X153740265Y-41331735D01*
X153358419Y-41076594D01*
X152908000Y-40987000D01*
X128526154Y-40987000D01*
X128402143Y-40801405D01*
X127776979Y-40383684D01*
X127039548Y-40237000D01*
X125944452Y-40237000D01*
X125207021Y-40383684D01*
X124581857Y-40801405D01*
X124164136Y-41426569D01*
X124017452Y-42164000D01*
X124164136Y-42901431D01*
X124581857Y-43526595D01*
X125207021Y-43944316D01*
X125565000Y-44015522D01*
X125565000Y-45392478D01*
X125207021Y-45463684D01*
X124581857Y-45881405D01*
X124164136Y-46506569D01*
X124017452Y-47244000D01*
X124164136Y-47981431D01*
X124581857Y-48606595D01*
X125207021Y-49024316D01*
X125944452Y-49171000D01*
X127039548Y-49171000D01*
X127776979Y-49024316D01*
X128402143Y-48606595D01*
X128819864Y-47981431D01*
X128966548Y-47244000D01*
X128819864Y-46506569D01*
X128536119Y-46081913D01*
X145453816Y-46081913D01*
X145647046Y-46634320D01*
X146036964Y-47070732D01*
X146564209Y-47324709D01*
X146579974Y-47327358D01*
X146812000Y-47206217D01*
X146812000Y-45847000D01*
X145598076Y-45847000D01*
X145453816Y-46081913D01*
X128536119Y-46081913D01*
X128402143Y-45881405D01*
X127776979Y-45463684D01*
X127419000Y-45392478D01*
X127419000Y-44015522D01*
X127776979Y-43944316D01*
X128402143Y-43526595D01*
X128526154Y-43341000D01*
X130561000Y-43341000D01*
X130561000Y-43470831D01*
X130534433Y-43487927D01*
X130436936Y-43630619D01*
X130402635Y-43800000D01*
X130402635Y-45100000D01*
X130432409Y-45258237D01*
X130525927Y-45403567D01*
X130668619Y-45501064D01*
X130838000Y-45535365D01*
X132138000Y-45535365D01*
X132296237Y-45505591D01*
X132441567Y-45412073D01*
X132484651Y-45349016D01*
X136768590Y-45349016D01*
X136824271Y-45579611D01*
X137307078Y-45747622D01*
X137817428Y-45718083D01*
X138151729Y-45579611D01*
X138205219Y-45358087D01*
X145453816Y-45358087D01*
X145598076Y-45593000D01*
X146812000Y-45593000D01*
X146812000Y-44233783D01*
X147066000Y-44233783D01*
X147066000Y-45593000D01*
X147086000Y-45593000D01*
X147086000Y-45847000D01*
X147066000Y-45847000D01*
X147066000Y-47206217D01*
X147298026Y-47327358D01*
X147313791Y-47324709D01*
X147841036Y-47070732D01*
X148230954Y-46634320D01*
X148305138Y-46422243D01*
X148566408Y-46813262D01*
X148985109Y-47093029D01*
X149479000Y-47191270D01*
X149972891Y-47093029D01*
X150391592Y-46813262D01*
X150671359Y-46394561D01*
X150720035Y-46149850D01*
X150720035Y-46736000D01*
X150749809Y-46894237D01*
X150843327Y-47039567D01*
X150986019Y-47137064D01*
X151155400Y-47171365D01*
X152882600Y-47171365D01*
X153040837Y-47141591D01*
X153186167Y-47048073D01*
X153283664Y-46905381D01*
X153317965Y-46736000D01*
X153317965Y-44704000D01*
X153288191Y-44545763D01*
X153194673Y-44400433D01*
X153051981Y-44302936D01*
X152882600Y-44268635D01*
X151155400Y-44268635D01*
X150997163Y-44298409D01*
X150851833Y-44391927D01*
X150754336Y-44534619D01*
X150720035Y-44704000D01*
X150720035Y-45290150D01*
X150671359Y-45045439D01*
X150391592Y-44626738D01*
X149972891Y-44346971D01*
X149479000Y-44248730D01*
X148985109Y-44346971D01*
X148566408Y-44626738D01*
X148305138Y-45017757D01*
X148230954Y-44805680D01*
X147841036Y-44369268D01*
X147313791Y-44115291D01*
X147298026Y-44112642D01*
X147066000Y-44233783D01*
X146812000Y-44233783D01*
X146579974Y-44112642D01*
X146564209Y-44115291D01*
X146036964Y-44369268D01*
X145647046Y-44805680D01*
X145453816Y-45358087D01*
X138205219Y-45358087D01*
X138207410Y-45349016D01*
X137488000Y-44629605D01*
X136768590Y-45349016D01*
X132484651Y-45349016D01*
X132539064Y-45269381D01*
X132573365Y-45100000D01*
X132573365Y-44269078D01*
X136190378Y-44269078D01*
X136219917Y-44779428D01*
X136358389Y-45113729D01*
X136588984Y-45169410D01*
X137308395Y-44450000D01*
X137667605Y-44450000D01*
X138387016Y-45169410D01*
X138617611Y-45113729D01*
X138785622Y-44630922D01*
X138756083Y-44120572D01*
X138617611Y-43786271D01*
X138387016Y-43730590D01*
X137667605Y-44450000D01*
X137308395Y-44450000D01*
X136588984Y-43730590D01*
X136358389Y-43786271D01*
X136190378Y-44269078D01*
X132573365Y-44269078D01*
X132573365Y-43800000D01*
X132543591Y-43641763D01*
X132450073Y-43496433D01*
X132415000Y-43472469D01*
X132415000Y-43341000D01*
X136819294Y-43341000D01*
X136768590Y-43550984D01*
X137488000Y-44270395D01*
X138207410Y-43550984D01*
X138156706Y-43341000D01*
X152420470Y-43341000D01*
X154652000Y-45572530D01*
X154652000Y-77724000D01*
X154741594Y-78174419D01*
X154996735Y-78556265D01*
X155885735Y-79445265D01*
X156267582Y-79700406D01*
X156718000Y-79790001D01*
X156718005Y-79790000D01*
X174625000Y-79790000D01*
X174697125Y-79775653D01*
X174660126Y-79864756D01*
X174659874Y-80153975D01*
X174770320Y-80421275D01*
X174974650Y-80625961D01*
X175241756Y-80736874D01*
X175530975Y-80737126D01*
X175798275Y-80626680D01*
X176002961Y-80422350D01*
X176113874Y-80155244D01*
X176113923Y-80099079D01*
X177634924Y-78578078D01*
X177689975Y-78578126D01*
X177957275Y-78467680D01*
X178161961Y-78263350D01*
X178272874Y-77996244D01*
X178273126Y-77707025D01*
X178162680Y-77439725D01*
X177958350Y-77235039D01*
X177717357Y-77134969D01*
X177803532Y-77006000D01*
X180975000Y-77006000D01*
X180975000Y-79449394D01*
X179594394Y-80830000D01*
X146670001Y-80830000D01*
X145738000Y-79897998D01*
X145738000Y-77920000D01*
X145916103Y-77920000D01*
X145975357Y-78217891D01*
X146255124Y-78636592D01*
X146673825Y-78916359D01*
X147167716Y-79014600D01*
X147218284Y-79014600D01*
X147712175Y-78916359D01*
X148130876Y-78636592D01*
X148410643Y-78217891D01*
X148463000Y-77954675D01*
X148515357Y-78217891D01*
X148795124Y-78636592D01*
X149213825Y-78916359D01*
X149707716Y-79014600D01*
X149758284Y-79014600D01*
X150252175Y-78916359D01*
X150670876Y-78636592D01*
X150903268Y-78288792D01*
X150990312Y-78498947D01*
X151384510Y-78930821D01*
X151913973Y-79178968D01*
X152146000Y-79058469D01*
X152146000Y-77851000D01*
X152400000Y-77851000D01*
X152400000Y-79058469D01*
X152632027Y-79178968D01*
X153161490Y-78930821D01*
X153555688Y-78498947D01*
X153727958Y-78083026D01*
X153606817Y-77851000D01*
X152400000Y-77851000D01*
X152146000Y-77851000D01*
X152126000Y-77851000D01*
X152126000Y-77597000D01*
X152146000Y-77597000D01*
X152146000Y-77577000D01*
X152400000Y-77577000D01*
X152400000Y-77597000D01*
X153606817Y-77597000D01*
X153727958Y-77364974D01*
X153555688Y-76949053D01*
X153161490Y-76517179D01*
X152820560Y-76357393D01*
X153210876Y-76096592D01*
X153490643Y-75677891D01*
X153588884Y-75184000D01*
X153490643Y-74690109D01*
X153210876Y-74271408D01*
X152850000Y-74030278D01*
X152850000Y-73406005D01*
X152850001Y-73406000D01*
X152806078Y-73185192D01*
X152681001Y-72997999D01*
X150649001Y-70965999D01*
X150461808Y-70840922D01*
X150310000Y-70810724D01*
X150310000Y-70211607D01*
X150340999Y-70258001D01*
X151610997Y-71527998D01*
X151610999Y-71528001D01*
X153196922Y-73113923D01*
X153196874Y-73168975D01*
X153307320Y-73436275D01*
X153511650Y-73640961D01*
X153778756Y-73751874D01*
X154067975Y-73752126D01*
X154335275Y-73641680D01*
X154539961Y-73437350D01*
X154650874Y-73170244D01*
X154651126Y-72881025D01*
X154540680Y-72613725D01*
X154336350Y-72409039D01*
X154069244Y-72298126D01*
X154013078Y-72298077D01*
X152463164Y-70748162D01*
X152439001Y-70711999D01*
X152402835Y-70687834D01*
X151326000Y-69610998D01*
X151326000Y-69181816D01*
X151341927Y-69206567D01*
X151484619Y-69304064D01*
X151654000Y-69338365D01*
X152154000Y-69338365D01*
X152312237Y-69308591D01*
X152457567Y-69215073D01*
X152555064Y-69072381D01*
X152589365Y-68903000D01*
X152589365Y-68003000D01*
X152718635Y-68003000D01*
X152718635Y-68903000D01*
X152748409Y-69061237D01*
X152827000Y-69183370D01*
X152827000Y-69329995D01*
X152826999Y-69330000D01*
X152870922Y-69550808D01*
X152995999Y-69738001D01*
X153069922Y-69811924D01*
X153069874Y-69866975D01*
X153180320Y-70134275D01*
X153384650Y-70338961D01*
X153651756Y-70449874D01*
X153940975Y-70450126D01*
X154208275Y-70339680D01*
X154412961Y-70135350D01*
X154523874Y-69868244D01*
X154524126Y-69579025D01*
X154413680Y-69311725D01*
X154209350Y-69107039D01*
X154060557Y-69045254D01*
X154089365Y-68903000D01*
X154089365Y-68003000D01*
X154059591Y-67844763D01*
X153966073Y-67699433D01*
X153823381Y-67601936D01*
X153654000Y-67567635D01*
X153154000Y-67567635D01*
X152995763Y-67597409D01*
X152850433Y-67690927D01*
X152752936Y-67833619D01*
X152718635Y-68003000D01*
X152589365Y-68003000D01*
X152559591Y-67844763D01*
X152481000Y-67722630D01*
X152481000Y-67521002D01*
X153028636Y-66973365D01*
X153773000Y-66973365D01*
X153931237Y-66943591D01*
X154076567Y-66850073D01*
X154174064Y-66707381D01*
X154208365Y-66538000D01*
X154208365Y-65288000D01*
X154203414Y-65261688D01*
X154208275Y-65259680D01*
X154412961Y-65055350D01*
X154523874Y-64788244D01*
X154524126Y-64499025D01*
X154413680Y-64231725D01*
X154209350Y-64027039D01*
X153942244Y-63916126D01*
X153886079Y-63916077D01*
X153697001Y-63726999D01*
X153509808Y-63601922D01*
X153435969Y-63587234D01*
X153424591Y-63526763D01*
X153331073Y-63381433D01*
X153188381Y-63283936D01*
X153019000Y-63249635D01*
X152519000Y-63249635D01*
X152360763Y-63279409D01*
X152215433Y-63372927D01*
X152117936Y-63515619D01*
X152083635Y-63685000D01*
X152083635Y-64585000D01*
X152113409Y-64743237D01*
X152206927Y-64888567D01*
X152349619Y-64986064D01*
X152448785Y-65006146D01*
X152371936Y-65118619D01*
X152337635Y-65288000D01*
X152337635Y-66032364D01*
X152208365Y-66161634D01*
X152208365Y-65288000D01*
X152178591Y-65129763D01*
X152085073Y-64984433D01*
X151942381Y-64886936D01*
X151846000Y-64867418D01*
X151846000Y-64862778D01*
X151920064Y-64754381D01*
X151954365Y-64585000D01*
X151954365Y-63685000D01*
X151924591Y-63526763D01*
X151831073Y-63381433D01*
X151688381Y-63283936D01*
X151519000Y-63249635D01*
X151019000Y-63249635D01*
X150860763Y-63279409D01*
X150715433Y-63372927D01*
X150617936Y-63515619D01*
X150583635Y-63685000D01*
X150583635Y-64585000D01*
X150613409Y-64743237D01*
X150692000Y-64865370D01*
X150692000Y-64867876D01*
X150614763Y-64882409D01*
X150530907Y-64936369D01*
X150564000Y-64770000D01*
X150564000Y-62215002D01*
X152934998Y-59844003D01*
X152935001Y-59844001D01*
X153037900Y-59690000D01*
X153060078Y-59656809D01*
X153104000Y-59436000D01*
X153104000Y-55753000D01*
X153060078Y-55532192D01*
X152935001Y-55344999D01*
X152934998Y-55344997D01*
X152723000Y-55132998D01*
X152723000Y-52124365D01*
X153009600Y-52124365D01*
X153167837Y-52094591D01*
X153313167Y-52001073D01*
X153410664Y-51858381D01*
X153444965Y-51689000D01*
X153444965Y-49657000D01*
X153415191Y-49498763D01*
X153321673Y-49353433D01*
X153178981Y-49255936D01*
X153009600Y-49221635D01*
X151282400Y-49221635D01*
X151124163Y-49251409D01*
X150978833Y-49344927D01*
X150881336Y-49487619D01*
X150847035Y-49657000D01*
X150847035Y-50243150D01*
X150798359Y-49998439D01*
X150518592Y-49579738D01*
X150099891Y-49299971D01*
X149606000Y-49201730D01*
X149112109Y-49299971D01*
X148693408Y-49579738D01*
X148432138Y-49970757D01*
X148357954Y-49758680D01*
X147968036Y-49322268D01*
X147440791Y-49068291D01*
X147425026Y-49065642D01*
X147193000Y-49186783D01*
X147193000Y-50546000D01*
X147213000Y-50546000D01*
X147213000Y-50800000D01*
X147193000Y-50800000D01*
X147193000Y-52159217D01*
X147425026Y-52280358D01*
X147440791Y-52277709D01*
X147968036Y-52023732D01*
X148357954Y-51587320D01*
X148432138Y-51375243D01*
X148693408Y-51766262D01*
X149029000Y-51990497D01*
X149029000Y-55371995D01*
X149028999Y-55372000D01*
X149072922Y-55592808D01*
X149197999Y-55780001D01*
X151315000Y-57897001D01*
X151315000Y-58942999D01*
X148943999Y-61313999D01*
X148818922Y-61501192D01*
X148774999Y-61722000D01*
X148775000Y-61722005D01*
X148775000Y-62174700D01*
X148742078Y-62009192D01*
X148617001Y-61821999D01*
X148490001Y-61694999D01*
X148370110Y-61614892D01*
X148805924Y-61179078D01*
X148860975Y-61179126D01*
X149128275Y-61068680D01*
X149332961Y-60864350D01*
X149443874Y-60597244D01*
X149443947Y-60513148D01*
X149636275Y-60433680D01*
X149840961Y-60229350D01*
X149951874Y-59962244D01*
X149951920Y-59909081D01*
X150003975Y-59909126D01*
X150271275Y-59798680D01*
X150475961Y-59594350D01*
X150556225Y-59401054D01*
X150638975Y-59401126D01*
X150906275Y-59290680D01*
X151110961Y-59086350D01*
X151221874Y-58819244D01*
X151222126Y-58530025D01*
X151111680Y-58262725D01*
X150907350Y-58058039D01*
X150640244Y-57947126D01*
X150584078Y-57947077D01*
X145315001Y-52677999D01*
X145127808Y-52552922D01*
X144907000Y-52508999D01*
X144906995Y-52509000D01*
X140195300Y-52509000D01*
X140195300Y-51974750D01*
X140036550Y-51816000D01*
X139037060Y-51816000D01*
X139037060Y-51836000D01*
X138783060Y-51836000D01*
X138783060Y-51816000D01*
X137783570Y-51816000D01*
X137624820Y-51974750D01*
X137624820Y-52509000D01*
X137045941Y-52509000D01*
X136495545Y-51958603D01*
X136495545Y-50839370D01*
X136471779Y-50713060D01*
X137624820Y-50713060D01*
X137624820Y-51403250D01*
X137783570Y-51562000D01*
X138783060Y-51562000D01*
X138783060Y-50363120D01*
X139037060Y-50363120D01*
X139037060Y-51562000D01*
X140036550Y-51562000D01*
X140195300Y-51403250D01*
X140195300Y-51034913D01*
X145580816Y-51034913D01*
X145774046Y-51587320D01*
X146163964Y-52023732D01*
X146691209Y-52277709D01*
X146706974Y-52280358D01*
X146939000Y-52159217D01*
X146939000Y-50800000D01*
X145725076Y-50800000D01*
X145580816Y-51034913D01*
X140195300Y-51034913D01*
X140195300Y-50713060D01*
X140098627Y-50479671D01*
X139930043Y-50311087D01*
X145580816Y-50311087D01*
X145725076Y-50546000D01*
X146939000Y-50546000D01*
X146939000Y-49186783D01*
X146706974Y-49065642D01*
X146691209Y-49068291D01*
X146163964Y-49322268D01*
X145774046Y-49758680D01*
X145580816Y-50311087D01*
X139930043Y-50311087D01*
X139919998Y-50301043D01*
X139686609Y-50204370D01*
X139195810Y-50204370D01*
X139037060Y-50363120D01*
X138783060Y-50363120D01*
X138624310Y-50204370D01*
X138133511Y-50204370D01*
X137900122Y-50301043D01*
X137721493Y-50479671D01*
X137624820Y-50713060D01*
X136471779Y-50713060D01*
X136465771Y-50681133D01*
X136372253Y-50535803D01*
X136229561Y-50438306D01*
X136060180Y-50404005D01*
X134759700Y-50404005D01*
X134601463Y-50433779D01*
X134456133Y-50527297D01*
X134358636Y-50669989D01*
X134324335Y-50839370D01*
X134324335Y-51089074D01*
X134250174Y-51089009D01*
X134239591Y-51032763D01*
X134146073Y-50887433D01*
X134003381Y-50789936D01*
X133834000Y-50755635D01*
X132834000Y-50755635D01*
X132675763Y-50785409D01*
X132530433Y-50878927D01*
X132444281Y-51005014D01*
X132372327Y-50831301D01*
X132193698Y-50652673D01*
X131960309Y-50556000D01*
X131619750Y-50556000D01*
X131461000Y-50714750D01*
X131461000Y-51689000D01*
X131481000Y-51689000D01*
X131481000Y-51943000D01*
X131461000Y-51943000D01*
X131461000Y-52917250D01*
X131619750Y-53076000D01*
X131960309Y-53076000D01*
X132193698Y-52979327D01*
X132372327Y-52800699D01*
X132445058Y-52625110D01*
X132521927Y-52744567D01*
X132664619Y-52842064D01*
X132834000Y-52876365D01*
X133834000Y-52876365D01*
X133992237Y-52846591D01*
X134137567Y-52753073D01*
X134235064Y-52610381D01*
X134248707Y-52543009D01*
X134325171Y-52543076D01*
X134354109Y-52696867D01*
X134447627Y-52842197D01*
X134590319Y-52939694D01*
X134759700Y-52973995D01*
X135878934Y-52973995D01*
X135975944Y-53071005D01*
X134759700Y-53071005D01*
X134601463Y-53100779D01*
X134456133Y-53194297D01*
X134358636Y-53336989D01*
X134324335Y-53506370D01*
X134324335Y-53629074D01*
X134250174Y-53629009D01*
X134239591Y-53572763D01*
X134146073Y-53427433D01*
X134003381Y-53329936D01*
X133834000Y-53295635D01*
X132834000Y-53295635D01*
X132675763Y-53325409D01*
X132530433Y-53418927D01*
X132444281Y-53545014D01*
X132372327Y-53371301D01*
X132193698Y-53192673D01*
X131960309Y-53096000D01*
X131619750Y-53096000D01*
X131461000Y-53254750D01*
X131461000Y-54229000D01*
X131481000Y-54229000D01*
X131481000Y-54483000D01*
X131461000Y-54483000D01*
X131461000Y-55457250D01*
X131619750Y-55616000D01*
X131960309Y-55616000D01*
X132193698Y-55519327D01*
X132372327Y-55340699D01*
X132445058Y-55165110D01*
X132521927Y-55284567D01*
X132664619Y-55382064D01*
X132834000Y-55416365D01*
X133834000Y-55416365D01*
X133992237Y-55386591D01*
X134137567Y-55293073D01*
X134235064Y-55150381D01*
X134248707Y-55083009D01*
X134324335Y-55083075D01*
X134324335Y-55205630D01*
X134354109Y-55363867D01*
X134447627Y-55509197D01*
X134590319Y-55606694D01*
X134759700Y-55640995D01*
X134890390Y-55640995D01*
X135001939Y-55807941D01*
X135059003Y-55865005D01*
X134759700Y-55865005D01*
X134601463Y-55894779D01*
X134456133Y-55988297D01*
X134358636Y-56130989D01*
X134324335Y-56300370D01*
X134324335Y-56323985D01*
X134257244Y-56296126D01*
X134250195Y-56296120D01*
X134239591Y-56239763D01*
X134146073Y-56094433D01*
X134003381Y-55996936D01*
X133834000Y-55962635D01*
X132834000Y-55962635D01*
X132675763Y-55992409D01*
X132530433Y-56085927D01*
X132444281Y-56212014D01*
X132372327Y-56038301D01*
X132193698Y-55859673D01*
X131960309Y-55763000D01*
X131619750Y-55763000D01*
X131461000Y-55921750D01*
X131461000Y-56896000D01*
X131481000Y-56896000D01*
X131481000Y-57150000D01*
X131461000Y-57150000D01*
X131461000Y-58124250D01*
X131619750Y-58283000D01*
X131960309Y-58283000D01*
X132193698Y-58186327D01*
X132372327Y-58007699D01*
X132445058Y-57832110D01*
X132521927Y-57951567D01*
X132664619Y-58049064D01*
X132834000Y-58083365D01*
X133834000Y-58083365D01*
X133992237Y-58053591D01*
X134137567Y-57960073D01*
X134235064Y-57817381D01*
X134248685Y-57750120D01*
X134255975Y-57750126D01*
X134324335Y-57721880D01*
X134324335Y-57999630D01*
X134354109Y-58157867D01*
X134447627Y-58303197D01*
X134590319Y-58400694D01*
X134759700Y-58434995D01*
X135088993Y-58434995D01*
X135313004Y-58659005D01*
X134759700Y-58659005D01*
X134601463Y-58688779D01*
X134456133Y-58782297D01*
X134383525Y-58888563D01*
X134257244Y-58836126D01*
X134250195Y-58836120D01*
X134239591Y-58779763D01*
X134146073Y-58634433D01*
X134003381Y-58536936D01*
X133834000Y-58502635D01*
X132834000Y-58502635D01*
X132675763Y-58532409D01*
X132530433Y-58625927D01*
X132444281Y-58752014D01*
X132372327Y-58578301D01*
X132193698Y-58399673D01*
X131960309Y-58303000D01*
X131619750Y-58303000D01*
X131461000Y-58461750D01*
X131461000Y-59436000D01*
X131481000Y-59436000D01*
X131481000Y-59690000D01*
X131461000Y-59690000D01*
X131461000Y-60664250D01*
X131619750Y-60823000D01*
X131960309Y-60823000D01*
X132193698Y-60726327D01*
X132372327Y-60547699D01*
X132445058Y-60372110D01*
X132521927Y-60491567D01*
X132664619Y-60589064D01*
X132834000Y-60623365D01*
X133834000Y-60623365D01*
X133992237Y-60593591D01*
X134137567Y-60500073D01*
X134204385Y-60402282D01*
X134281759Y-60453982D01*
X134324335Y-60462451D01*
X134324335Y-60793630D01*
X134354109Y-60951867D01*
X134447627Y-61097197D01*
X134590319Y-61194694D01*
X134759700Y-61228995D01*
X135878934Y-61228995D01*
X136398937Y-61748998D01*
X136398939Y-61749001D01*
X136586132Y-61874078D01*
X136806940Y-61918000D01*
X138433999Y-61918000D01*
X137259999Y-63091999D01*
X137134922Y-63279192D01*
X137090999Y-63500000D01*
X137091000Y-63500005D01*
X137091000Y-63800238D01*
X137017381Y-63749936D01*
X136998008Y-63746013D01*
X136998126Y-63610025D01*
X136887680Y-63342725D01*
X136683350Y-63138039D01*
X136416244Y-63027126D01*
X136127025Y-63026874D01*
X135859725Y-63137320D01*
X135850630Y-63146399D01*
X135850630Y-63051690D01*
X135691880Y-62892940D01*
X134493000Y-62892940D01*
X134493000Y-63892430D01*
X134651750Y-64051180D01*
X135341940Y-64051180D01*
X135561565Y-63960208D01*
X135546936Y-63981619D01*
X135512635Y-64151000D01*
X135512635Y-64651000D01*
X135542409Y-64809237D01*
X135635927Y-64954567D01*
X135778619Y-65052064D01*
X135948000Y-65086365D01*
X136396633Y-65086365D01*
X136267363Y-65215635D01*
X135948000Y-65215635D01*
X135789763Y-65245409D01*
X135667630Y-65324000D01*
X135535262Y-65324000D01*
X135527703Y-65312253D01*
X135385011Y-65214756D01*
X135215630Y-65180455D01*
X133516370Y-65180455D01*
X133358133Y-65210229D01*
X133212803Y-65303747D01*
X133115306Y-65446439D01*
X133081005Y-65615820D01*
X133081005Y-65689060D01*
X132361940Y-65689060D01*
X132141132Y-65732982D01*
X131953939Y-65858059D01*
X131925999Y-65885999D01*
X131800922Y-66073192D01*
X131756999Y-66294000D01*
X131757000Y-66294005D01*
X131757000Y-68636757D01*
X131718039Y-68675650D01*
X131607126Y-68942756D01*
X131606874Y-69231975D01*
X131717320Y-69499275D01*
X131921650Y-69703961D01*
X132188756Y-69814874D01*
X132477975Y-69815126D01*
X132745275Y-69704680D01*
X132949961Y-69500350D01*
X133060874Y-69233244D01*
X133061126Y-68944025D01*
X132950680Y-68676725D01*
X132911000Y-68636976D01*
X132911000Y-66843060D01*
X133081005Y-66843060D01*
X133081005Y-66916300D01*
X133110779Y-67074537D01*
X133204297Y-67219867D01*
X133346989Y-67317364D01*
X133516370Y-67351665D01*
X135215630Y-67351665D01*
X135373867Y-67321891D01*
X135519197Y-67228373D01*
X135616694Y-67085681D01*
X135650995Y-66916300D01*
X135650995Y-66478000D01*
X135670222Y-66478000D01*
X135778619Y-66552064D01*
X135948000Y-66586365D01*
X136848000Y-66586365D01*
X137006237Y-66556591D01*
X137151567Y-66463073D01*
X137249064Y-66320381D01*
X137283365Y-66151000D01*
X137283365Y-65831637D01*
X138075998Y-65039003D01*
X138076001Y-65039001D01*
X138201078Y-64851808D01*
X138245000Y-64631000D01*
X138245000Y-63739002D01*
X139304001Y-62680000D01*
X147632000Y-62680000D01*
X147632000Y-64064757D01*
X147593039Y-64103650D01*
X147482126Y-64370756D01*
X147481874Y-64659975D01*
X147494371Y-64690221D01*
X147465244Y-64678126D01*
X147176025Y-64677874D01*
X146908725Y-64788320D01*
X146704039Y-64992650D01*
X146593126Y-65259756D01*
X146592874Y-65548975D01*
X146703320Y-65816275D01*
X146907650Y-66020961D01*
X147174756Y-66131874D01*
X147230921Y-66131923D01*
X147800999Y-66702001D01*
X147988192Y-66827078D01*
X148209000Y-66871001D01*
X148209005Y-66871000D01*
X148462995Y-66871000D01*
X148463000Y-66871001D01*
X148683808Y-66827078D01*
X148871001Y-66702001D01*
X149133503Y-66439498D01*
X149243320Y-66705275D01*
X149447650Y-66909961D01*
X149714756Y-67020874D01*
X150003975Y-67021126D01*
X150172000Y-66951700D01*
X150172000Y-69615393D01*
X150141001Y-69568999D01*
X147234498Y-66662496D01*
X147174680Y-66517725D01*
X146970350Y-66313039D01*
X146703244Y-66202126D01*
X146414025Y-66201874D01*
X146146725Y-66312320D01*
X145942039Y-66516650D01*
X145831126Y-66783756D01*
X145830874Y-67072975D01*
X145941320Y-67340275D01*
X146145650Y-67544961D01*
X146412756Y-67655874D01*
X146596032Y-67656034D01*
X148557019Y-69617021D01*
X148355039Y-69818650D01*
X148244126Y-70085756D01*
X148244077Y-70141921D01*
X148054999Y-70330999D01*
X147929922Y-70518192D01*
X147885999Y-70739000D01*
X147886000Y-70739005D01*
X147886000Y-73885035D01*
X146373000Y-73885035D01*
X146373000Y-70231000D01*
X146344109Y-70085756D01*
X146329078Y-70010191D01*
X146234232Y-69868244D01*
X146204001Y-69822999D01*
X146203998Y-69822997D01*
X144999078Y-68618076D01*
X144999126Y-68563025D01*
X144888680Y-68295725D01*
X144684350Y-68091039D01*
X144417244Y-67980126D01*
X144128025Y-67979874D01*
X143860725Y-68090320D01*
X143656039Y-68294650D01*
X143545126Y-68561756D01*
X143544874Y-68850975D01*
X143655320Y-69118275D01*
X143859650Y-69322961D01*
X144126756Y-69433874D01*
X144182921Y-69433923D01*
X145219000Y-70470001D01*
X145219000Y-76580995D01*
X145218999Y-76581000D01*
X145255799Y-76766000D01*
X144554965Y-76766000D01*
X144554965Y-76327000D01*
X144525191Y-76168763D01*
X144431673Y-76023433D01*
X144288981Y-75925936D01*
X144119600Y-75891635D01*
X142392400Y-75891635D01*
X142234163Y-75921409D01*
X142088833Y-76014927D01*
X141991336Y-76157619D01*
X141957035Y-76327000D01*
X141957035Y-76913150D01*
X141908359Y-76668439D01*
X141628592Y-76249738D01*
X141568209Y-76209391D01*
X141635275Y-76181680D01*
X141839961Y-75977350D01*
X141950874Y-75710244D01*
X141951126Y-75421025D01*
X141840680Y-75153725D01*
X141636350Y-74949039D01*
X141369244Y-74838126D01*
X141080025Y-74837874D01*
X140812725Y-74948320D01*
X140608039Y-75152650D01*
X140497126Y-75419756D01*
X140497077Y-75475921D01*
X140307999Y-75664999D01*
X140182922Y-75852192D01*
X140149895Y-76018223D01*
X139803408Y-76249738D01*
X139542138Y-76640757D01*
X139467954Y-76428680D01*
X139078036Y-75992268D01*
X138550791Y-75738291D01*
X138535026Y-75735642D01*
X138303000Y-75856783D01*
X138303000Y-77216000D01*
X138323000Y-77216000D01*
X138323000Y-77470000D01*
X138303000Y-77470000D01*
X138303000Y-78829217D01*
X138535026Y-78950358D01*
X138550791Y-78947709D01*
X139078036Y-78693732D01*
X139467954Y-78257320D01*
X139542138Y-78045243D01*
X139803408Y-78436262D01*
X140222109Y-78716029D01*
X140716000Y-78814270D01*
X141209891Y-78716029D01*
X141628592Y-78436262D01*
X141908359Y-78017561D01*
X141957035Y-77772850D01*
X141957035Y-78359000D01*
X141986809Y-78517237D01*
X142080327Y-78662567D01*
X142223019Y-78760064D01*
X142392400Y-78794365D01*
X144119600Y-78794365D01*
X144277837Y-78764591D01*
X144423167Y-78671073D01*
X144520664Y-78528381D01*
X144554965Y-78359000D01*
X144554965Y-77920000D01*
X144584000Y-77920000D01*
X144584000Y-80136995D01*
X144583999Y-80137000D01*
X144627922Y-80357808D01*
X144752999Y-80545001D01*
X145741999Y-81534000D01*
X122428000Y-81534000D01*
X122428000Y-75946000D01*
X122754635Y-75946000D01*
X122754635Y-77978000D01*
X122784409Y-78136237D01*
X122877927Y-78281567D01*
X123020619Y-78379064D01*
X123190000Y-78413365D01*
X125222000Y-78413365D01*
X125380237Y-78383591D01*
X125525567Y-78290073D01*
X125623064Y-78147381D01*
X125657365Y-77978000D01*
X125657365Y-77922476D01*
X125697375Y-77982355D01*
X126165518Y-78295158D01*
X126717730Y-78405000D01*
X126774270Y-78405000D01*
X127326482Y-78295158D01*
X127794625Y-77982355D01*
X128107428Y-77514212D01*
X128217270Y-76962000D01*
X128107428Y-76409788D01*
X127794625Y-75941645D01*
X127326482Y-75628842D01*
X126774270Y-75519000D01*
X126717730Y-75519000D01*
X126165518Y-75628842D01*
X125697375Y-75941645D01*
X125657365Y-76001524D01*
X125657365Y-75946000D01*
X125627591Y-75787763D01*
X125534073Y-75642433D01*
X125391381Y-75544936D01*
X125222000Y-75510635D01*
X123190000Y-75510635D01*
X123031763Y-75540409D01*
X122886433Y-75633927D01*
X122788936Y-75776619D01*
X122754635Y-75946000D01*
X122428000Y-75946000D01*
X122428000Y-73422975D01*
X131606874Y-73422975D01*
X131717320Y-73690275D01*
X131757000Y-73730024D01*
X131757000Y-76072995D01*
X131756999Y-76073000D01*
X131800922Y-76293808D01*
X131925999Y-76481001D01*
X132496033Y-77051035D01*
X132495874Y-77232975D01*
X132606320Y-77500275D01*
X132810650Y-77704961D01*
X133077756Y-77815874D01*
X133366975Y-77816126D01*
X133634275Y-77705680D01*
X133635043Y-77704913D01*
X136690816Y-77704913D01*
X136884046Y-78257320D01*
X137273964Y-78693732D01*
X137801209Y-78947709D01*
X137816974Y-78950358D01*
X138049000Y-78829217D01*
X138049000Y-77470000D01*
X136835076Y-77470000D01*
X136690816Y-77704913D01*
X133635043Y-77704913D01*
X133838961Y-77501350D01*
X133949874Y-77234244D01*
X133950094Y-76981087D01*
X136690816Y-76981087D01*
X136835076Y-77216000D01*
X138049000Y-77216000D01*
X138049000Y-75856783D01*
X137816974Y-75735642D01*
X137801209Y-75738291D01*
X137273964Y-75992268D01*
X136884046Y-76428680D01*
X136690816Y-76981087D01*
X133950094Y-76981087D01*
X133950126Y-76945025D01*
X133839680Y-76677725D01*
X133635350Y-76473039D01*
X133489463Y-76412461D01*
X132911000Y-75833998D01*
X132911000Y-73730243D01*
X132949961Y-73691350D01*
X133060874Y-73424244D01*
X133061126Y-73135025D01*
X132950680Y-72867725D01*
X132746350Y-72663039D01*
X132479244Y-72552126D01*
X132190025Y-72551874D01*
X131922725Y-72662320D01*
X131718039Y-72866650D01*
X131607126Y-73133756D01*
X131606874Y-73422975D01*
X122428000Y-73422975D01*
X122428000Y-51816000D01*
X124766730Y-51816000D01*
X124864971Y-52309891D01*
X125144738Y-52728592D01*
X125563439Y-53008359D01*
X125953767Y-53086000D01*
X125563439Y-53163641D01*
X125144738Y-53443408D01*
X124864971Y-53862109D01*
X124766730Y-54356000D01*
X124864971Y-54849891D01*
X125144738Y-55268592D01*
X125563439Y-55548359D01*
X125953767Y-55626000D01*
X125563439Y-55703641D01*
X125144738Y-55983408D01*
X124864971Y-56402109D01*
X124766730Y-56896000D01*
X124864971Y-57389891D01*
X125144738Y-57808592D01*
X125563439Y-58088359D01*
X125953767Y-58166000D01*
X125563439Y-58243641D01*
X125144738Y-58523408D01*
X124864971Y-58942109D01*
X124766730Y-59436000D01*
X124864971Y-59929891D01*
X125144738Y-60348592D01*
X125563439Y-60628359D01*
X125808150Y-60677035D01*
X125222000Y-60677035D01*
X125063763Y-60706809D01*
X124918433Y-60800327D01*
X124820936Y-60943019D01*
X124786635Y-61112400D01*
X124786635Y-62839600D01*
X124816409Y-62997837D01*
X124909927Y-63143167D01*
X125052619Y-63240664D01*
X125222000Y-63274965D01*
X127254000Y-63274965D01*
X127412237Y-63245191D01*
X127557567Y-63151673D01*
X127625882Y-63051690D01*
X132881370Y-63051690D01*
X132881370Y-63542489D01*
X132978043Y-63775878D01*
X133156671Y-63954507D01*
X133390060Y-64051180D01*
X134080250Y-64051180D01*
X134239000Y-63892430D01*
X134239000Y-62892940D01*
X133040120Y-62892940D01*
X132881370Y-63051690D01*
X127625882Y-63051690D01*
X127655064Y-63008981D01*
X127689365Y-62839600D01*
X127689365Y-61989391D01*
X132881370Y-61989391D01*
X132881370Y-62480190D01*
X133040120Y-62638940D01*
X134239000Y-62638940D01*
X134239000Y-61639450D01*
X134493000Y-61639450D01*
X134493000Y-62638940D01*
X135691880Y-62638940D01*
X135850630Y-62480190D01*
X135850630Y-61989391D01*
X135753957Y-61756002D01*
X135575329Y-61577373D01*
X135341940Y-61480700D01*
X134651750Y-61480700D01*
X134493000Y-61639450D01*
X134239000Y-61639450D01*
X134080250Y-61480700D01*
X133390060Y-61480700D01*
X133156671Y-61577373D01*
X132978043Y-61756002D01*
X132881370Y-61989391D01*
X127689365Y-61989391D01*
X127689365Y-61112400D01*
X127659591Y-60954163D01*
X127566073Y-60808833D01*
X127423381Y-60711336D01*
X127254000Y-60677035D01*
X126667850Y-60677035D01*
X126912561Y-60628359D01*
X127331262Y-60348592D01*
X127611029Y-59929891D01*
X127627168Y-59848750D01*
X130199000Y-59848750D01*
X130199000Y-60314310D01*
X130295673Y-60547699D01*
X130474302Y-60726327D01*
X130707691Y-60823000D01*
X131048250Y-60823000D01*
X131207000Y-60664250D01*
X131207000Y-59690000D01*
X130357750Y-59690000D01*
X130199000Y-59848750D01*
X127627168Y-59848750D01*
X127709270Y-59436000D01*
X127611029Y-58942109D01*
X127523886Y-58811690D01*
X130199000Y-58811690D01*
X130199000Y-59277250D01*
X130357750Y-59436000D01*
X131207000Y-59436000D01*
X131207000Y-58461750D01*
X131048250Y-58303000D01*
X130707691Y-58303000D01*
X130474302Y-58399673D01*
X130295673Y-58578301D01*
X130199000Y-58811690D01*
X127523886Y-58811690D01*
X127331262Y-58523408D01*
X126912561Y-58243641D01*
X126522233Y-58166000D01*
X126912561Y-58088359D01*
X127331262Y-57808592D01*
X127611029Y-57389891D01*
X127627168Y-57308750D01*
X130199000Y-57308750D01*
X130199000Y-57774310D01*
X130295673Y-58007699D01*
X130474302Y-58186327D01*
X130707691Y-58283000D01*
X131048250Y-58283000D01*
X131207000Y-58124250D01*
X131207000Y-57150000D01*
X130357750Y-57150000D01*
X130199000Y-57308750D01*
X127627168Y-57308750D01*
X127709270Y-56896000D01*
X127611029Y-56402109D01*
X127523886Y-56271690D01*
X130199000Y-56271690D01*
X130199000Y-56737250D01*
X130357750Y-56896000D01*
X131207000Y-56896000D01*
X131207000Y-55921750D01*
X131048250Y-55763000D01*
X130707691Y-55763000D01*
X130474302Y-55859673D01*
X130295673Y-56038301D01*
X130199000Y-56271690D01*
X127523886Y-56271690D01*
X127331262Y-55983408D01*
X126912561Y-55703641D01*
X126522233Y-55626000D01*
X126912561Y-55548359D01*
X127331262Y-55268592D01*
X127611029Y-54849891D01*
X127652430Y-54641750D01*
X130199000Y-54641750D01*
X130199000Y-55107310D01*
X130295673Y-55340699D01*
X130474302Y-55519327D01*
X130707691Y-55616000D01*
X131048250Y-55616000D01*
X131207000Y-55457250D01*
X131207000Y-54483000D01*
X130357750Y-54483000D01*
X130199000Y-54641750D01*
X127652430Y-54641750D01*
X127709270Y-54356000D01*
X127611029Y-53862109D01*
X127439028Y-53604690D01*
X130199000Y-53604690D01*
X130199000Y-54070250D01*
X130357750Y-54229000D01*
X131207000Y-54229000D01*
X131207000Y-53254750D01*
X131048250Y-53096000D01*
X130707691Y-53096000D01*
X130474302Y-53192673D01*
X130295673Y-53371301D01*
X130199000Y-53604690D01*
X127439028Y-53604690D01*
X127331262Y-53443408D01*
X126912561Y-53163641D01*
X126522233Y-53086000D01*
X126912561Y-53008359D01*
X127331262Y-52728592D01*
X127611029Y-52309891D01*
X127652430Y-52101750D01*
X130199000Y-52101750D01*
X130199000Y-52567310D01*
X130295673Y-52800699D01*
X130474302Y-52979327D01*
X130707691Y-53076000D01*
X131048250Y-53076000D01*
X131207000Y-52917250D01*
X131207000Y-51943000D01*
X130357750Y-51943000D01*
X130199000Y-52101750D01*
X127652430Y-52101750D01*
X127709270Y-51816000D01*
X127611029Y-51322109D01*
X127439028Y-51064690D01*
X130199000Y-51064690D01*
X130199000Y-51530250D01*
X130357750Y-51689000D01*
X131207000Y-51689000D01*
X131207000Y-50714750D01*
X131048250Y-50556000D01*
X130707691Y-50556000D01*
X130474302Y-50652673D01*
X130295673Y-50831301D01*
X130199000Y-51064690D01*
X127439028Y-51064690D01*
X127331262Y-50903408D01*
X126912561Y-50623641D01*
X126418670Y-50525400D01*
X126057330Y-50525400D01*
X125563439Y-50623641D01*
X125144738Y-50903408D01*
X124864971Y-51322109D01*
X124766730Y-51816000D01*
X122428000Y-51816000D01*
X122428000Y-38348000D01*
X164545394Y-38348000D01*
X163777394Y-39116000D01*
X163777394Y-39116000D01*
G37*
X163777394Y-39116000D02*
X159766000Y-39116000D01*
X159716590Y-39126006D01*
X159676197Y-39153197D01*
X159422197Y-39407197D01*
X159394334Y-39449211D01*
X159385000Y-39497000D01*
X159385000Y-43269000D01*
X156464000Y-43269000D01*
X156109252Y-43339564D01*
X155892754Y-43484224D01*
X153740265Y-41331735D01*
X153358419Y-41076594D01*
X152908000Y-40987000D01*
X128526154Y-40987000D01*
X128402143Y-40801405D01*
X127776979Y-40383684D01*
X127039548Y-40237000D01*
X125944452Y-40237000D01*
X125207021Y-40383684D01*
X124581857Y-40801405D01*
X124164136Y-41426569D01*
X124017452Y-42164000D01*
X124164136Y-42901431D01*
X124581857Y-43526595D01*
X125207021Y-43944316D01*
X125565000Y-44015522D01*
X125565000Y-45392478D01*
X125207021Y-45463684D01*
X124581857Y-45881405D01*
X124164136Y-46506569D01*
X124017452Y-47244000D01*
X124164136Y-47981431D01*
X124581857Y-48606595D01*
X125207021Y-49024316D01*
X125944452Y-49171000D01*
X127039548Y-49171000D01*
X127776979Y-49024316D01*
X128402143Y-48606595D01*
X128819864Y-47981431D01*
X128966548Y-47244000D01*
X128819864Y-46506569D01*
X128536119Y-46081913D01*
X145453816Y-46081913D01*
X145647046Y-46634320D01*
X146036964Y-47070732D01*
X146564209Y-47324709D01*
X146579974Y-47327358D01*
X146812000Y-47206217D01*
X146812000Y-45847000D01*
X145598076Y-45847000D01*
X145453816Y-46081913D01*
X128536119Y-46081913D01*
X128402143Y-45881405D01*
X127776979Y-45463684D01*
X127419000Y-45392478D01*
X127419000Y-44015522D01*
X127776979Y-43944316D01*
X128402143Y-43526595D01*
X128526154Y-43341000D01*
X130561000Y-43341000D01*
X130561000Y-43470831D01*
X130534433Y-43487927D01*
X130436936Y-43630619D01*
X130402635Y-43800000D01*
X130402635Y-45100000D01*
X130432409Y-45258237D01*
X130525927Y-45403567D01*
X130668619Y-45501064D01*
X130838000Y-45535365D01*
X132138000Y-45535365D01*
X132296237Y-45505591D01*
X132441567Y-45412073D01*
X132484651Y-45349016D01*
X136768590Y-45349016D01*
X136824271Y-45579611D01*
X137307078Y-45747622D01*
X137817428Y-45718083D01*
X138151729Y-45579611D01*
X138205219Y-45358087D01*
X145453816Y-45358087D01*
X145598076Y-45593000D01*
X146812000Y-45593000D01*
X146812000Y-44233783D01*
X147066000Y-44233783D01*
X147066000Y-45593000D01*
X147086000Y-45593000D01*
X147086000Y-45847000D01*
X147066000Y-45847000D01*
X147066000Y-47206217D01*
X147298026Y-47327358D01*
X147313791Y-47324709D01*
X147841036Y-47070732D01*
X148230954Y-46634320D01*
X148305138Y-46422243D01*
X148566408Y-46813262D01*
X148985109Y-47093029D01*
X149479000Y-47191270D01*
X149972891Y-47093029D01*
X150391592Y-46813262D01*
X150671359Y-46394561D01*
X150720035Y-46149850D01*
X150720035Y-46736000D01*
X150749809Y-46894237D01*
X150843327Y-47039567D01*
X150986019Y-47137064D01*
X151155400Y-47171365D01*
X152882600Y-47171365D01*
X153040837Y-47141591D01*
X153186167Y-47048073D01*
X153283664Y-46905381D01*
X153317965Y-46736000D01*
X153317965Y-44704000D01*
X153288191Y-44545763D01*
X153194673Y-44400433D01*
X153051981Y-44302936D01*
X152882600Y-44268635D01*
X151155400Y-44268635D01*
X150997163Y-44298409D01*
X150851833Y-44391927D01*
X150754336Y-44534619D01*
X150720035Y-44704000D01*
X150720035Y-45290150D01*
X150671359Y-45045439D01*
X150391592Y-44626738D01*
X149972891Y-44346971D01*
X149479000Y-44248730D01*
X148985109Y-44346971D01*
X148566408Y-44626738D01*
X148305138Y-45017757D01*
X148230954Y-44805680D01*
X147841036Y-44369268D01*
X147313791Y-44115291D01*
X147298026Y-44112642D01*
X147066000Y-44233783D01*
X146812000Y-44233783D01*
X146579974Y-44112642D01*
X146564209Y-44115291D01*
X146036964Y-44369268D01*
X145647046Y-44805680D01*
X145453816Y-45358087D01*
X138205219Y-45358087D01*
X138207410Y-45349016D01*
X137488000Y-44629605D01*
X136768590Y-45349016D01*
X132484651Y-45349016D01*
X132539064Y-45269381D01*
X132573365Y-45100000D01*
X132573365Y-44269078D01*
X136190378Y-44269078D01*
X136219917Y-44779428D01*
X136358389Y-45113729D01*
X136588984Y-45169410D01*
X137308395Y-44450000D01*
X137667605Y-44450000D01*
X138387016Y-45169410D01*
X138617611Y-45113729D01*
X138785622Y-44630922D01*
X138756083Y-44120572D01*
X138617611Y-43786271D01*
X138387016Y-43730590D01*
X137667605Y-44450000D01*
X137308395Y-44450000D01*
X136588984Y-43730590D01*
X136358389Y-43786271D01*
X136190378Y-44269078D01*
X132573365Y-44269078D01*
X132573365Y-43800000D01*
X132543591Y-43641763D01*
X132450073Y-43496433D01*
X132415000Y-43472469D01*
X132415000Y-43341000D01*
X136819294Y-43341000D01*
X136768590Y-43550984D01*
X137488000Y-44270395D01*
X138207410Y-43550984D01*
X138156706Y-43341000D01*
X152420470Y-43341000D01*
X154652000Y-45572530D01*
X154652000Y-77724000D01*
X154741594Y-78174419D01*
X154996735Y-78556265D01*
X155885735Y-79445265D01*
X156267582Y-79700406D01*
X156718000Y-79790001D01*
X156718005Y-79790000D01*
X174625000Y-79790000D01*
X174697125Y-79775653D01*
X174660126Y-79864756D01*
X174659874Y-80153975D01*
X174770320Y-80421275D01*
X174974650Y-80625961D01*
X175241756Y-80736874D01*
X175530975Y-80737126D01*
X175798275Y-80626680D01*
X176002961Y-80422350D01*
X176113874Y-80155244D01*
X176113923Y-80099079D01*
X177634924Y-78578078D01*
X177689975Y-78578126D01*
X177957275Y-78467680D01*
X178161961Y-78263350D01*
X178272874Y-77996244D01*
X178273126Y-77707025D01*
X178162680Y-77439725D01*
X177958350Y-77235039D01*
X177717357Y-77134969D01*
X177803532Y-77006000D01*
X180975000Y-77006000D01*
X180975000Y-79449394D01*
X179594394Y-80830000D01*
X146670001Y-80830000D01*
X145738000Y-79897998D01*
X145738000Y-77920000D01*
X145916103Y-77920000D01*
X145975357Y-78217891D01*
X146255124Y-78636592D01*
X146673825Y-78916359D01*
X147167716Y-79014600D01*
X147218284Y-79014600D01*
X147712175Y-78916359D01*
X148130876Y-78636592D01*
X148410643Y-78217891D01*
X148463000Y-77954675D01*
X148515357Y-78217891D01*
X148795124Y-78636592D01*
X149213825Y-78916359D01*
X149707716Y-79014600D01*
X149758284Y-79014600D01*
X150252175Y-78916359D01*
X150670876Y-78636592D01*
X150903268Y-78288792D01*
X150990312Y-78498947D01*
X151384510Y-78930821D01*
X151913973Y-79178968D01*
X152146000Y-79058469D01*
X152146000Y-77851000D01*
X152400000Y-77851000D01*
X152400000Y-79058469D01*
X152632027Y-79178968D01*
X153161490Y-78930821D01*
X153555688Y-78498947D01*
X153727958Y-78083026D01*
X153606817Y-77851000D01*
X152400000Y-77851000D01*
X152146000Y-77851000D01*
X152126000Y-77851000D01*
X152126000Y-77597000D01*
X152146000Y-77597000D01*
X152146000Y-77577000D01*
X152400000Y-77577000D01*
X152400000Y-77597000D01*
X153606817Y-77597000D01*
X153727958Y-77364974D01*
X153555688Y-76949053D01*
X153161490Y-76517179D01*
X152820560Y-76357393D01*
X153210876Y-76096592D01*
X153490643Y-75677891D01*
X153588884Y-75184000D01*
X153490643Y-74690109D01*
X153210876Y-74271408D01*
X152850000Y-74030278D01*
X152850000Y-73406005D01*
X152850001Y-73406000D01*
X152806078Y-73185192D01*
X152681001Y-72997999D01*
X150649001Y-70965999D01*
X150461808Y-70840922D01*
X150310000Y-70810724D01*
X150310000Y-70211607D01*
X150340999Y-70258001D01*
X151610997Y-71527998D01*
X151610999Y-71528001D01*
X153196922Y-73113923D01*
X153196874Y-73168975D01*
X153307320Y-73436275D01*
X153511650Y-73640961D01*
X153778756Y-73751874D01*
X154067975Y-73752126D01*
X154335275Y-73641680D01*
X154539961Y-73437350D01*
X154650874Y-73170244D01*
X154651126Y-72881025D01*
X154540680Y-72613725D01*
X154336350Y-72409039D01*
X154069244Y-72298126D01*
X154013078Y-72298077D01*
X152463164Y-70748162D01*
X152439001Y-70711999D01*
X152402835Y-70687834D01*
X151326000Y-69610998D01*
X151326000Y-69181816D01*
X151341927Y-69206567D01*
X151484619Y-69304064D01*
X151654000Y-69338365D01*
X152154000Y-69338365D01*
X152312237Y-69308591D01*
X152457567Y-69215073D01*
X152555064Y-69072381D01*
X152589365Y-68903000D01*
X152589365Y-68003000D01*
X152718635Y-68003000D01*
X152718635Y-68903000D01*
X152748409Y-69061237D01*
X152827000Y-69183370D01*
X152827000Y-69329995D01*
X152826999Y-69330000D01*
X152870922Y-69550808D01*
X152995999Y-69738001D01*
X153069922Y-69811924D01*
X153069874Y-69866975D01*
X153180320Y-70134275D01*
X153384650Y-70338961D01*
X153651756Y-70449874D01*
X153940975Y-70450126D01*
X154208275Y-70339680D01*
X154412961Y-70135350D01*
X154523874Y-69868244D01*
X154524126Y-69579025D01*
X154413680Y-69311725D01*
X154209350Y-69107039D01*
X154060557Y-69045254D01*
X154089365Y-68903000D01*
X154089365Y-68003000D01*
X154059591Y-67844763D01*
X153966073Y-67699433D01*
X153823381Y-67601936D01*
X153654000Y-67567635D01*
X153154000Y-67567635D01*
X152995763Y-67597409D01*
X152850433Y-67690927D01*
X152752936Y-67833619D01*
X152718635Y-68003000D01*
X152589365Y-68003000D01*
X152559591Y-67844763D01*
X152481000Y-67722630D01*
X152481000Y-67521002D01*
X153028636Y-66973365D01*
X153773000Y-66973365D01*
X153931237Y-66943591D01*
X154076567Y-66850073D01*
X154174064Y-66707381D01*
X154208365Y-66538000D01*
X154208365Y-65288000D01*
X154203414Y-65261688D01*
X154208275Y-65259680D01*
X154412961Y-65055350D01*
X154523874Y-64788244D01*
X154524126Y-64499025D01*
X154413680Y-64231725D01*
X154209350Y-64027039D01*
X153942244Y-63916126D01*
X153886079Y-63916077D01*
X153697001Y-63726999D01*
X153509808Y-63601922D01*
X153435969Y-63587234D01*
X153424591Y-63526763D01*
X153331073Y-63381433D01*
X153188381Y-63283936D01*
X153019000Y-63249635D01*
X152519000Y-63249635D01*
X152360763Y-63279409D01*
X152215433Y-63372927D01*
X152117936Y-63515619D01*
X152083635Y-63685000D01*
X152083635Y-64585000D01*
X152113409Y-64743237D01*
X152206927Y-64888567D01*
X152349619Y-64986064D01*
X152448785Y-65006146D01*
X152371936Y-65118619D01*
X152337635Y-65288000D01*
X152337635Y-66032364D01*
X152208365Y-66161634D01*
X152208365Y-65288000D01*
X152178591Y-65129763D01*
X152085073Y-64984433D01*
X151942381Y-64886936D01*
X151846000Y-64867418D01*
X151846000Y-64862778D01*
X151920064Y-64754381D01*
X151954365Y-64585000D01*
X151954365Y-63685000D01*
X151924591Y-63526763D01*
X151831073Y-63381433D01*
X151688381Y-63283936D01*
X151519000Y-63249635D01*
X151019000Y-63249635D01*
X150860763Y-63279409D01*
X150715433Y-63372927D01*
X150617936Y-63515619D01*
X150583635Y-63685000D01*
X150583635Y-64585000D01*
X150613409Y-64743237D01*
X150692000Y-64865370D01*
X150692000Y-64867876D01*
X150614763Y-64882409D01*
X150530907Y-64936369D01*
X150564000Y-64770000D01*
X150564000Y-62215002D01*
X152934998Y-59844003D01*
X152935001Y-59844001D01*
X153037900Y-59690000D01*
X153060078Y-59656809D01*
X153104000Y-59436000D01*
X153104000Y-55753000D01*
X153060078Y-55532192D01*
X152935001Y-55344999D01*
X152934998Y-55344997D01*
X152723000Y-55132998D01*
X152723000Y-52124365D01*
X153009600Y-52124365D01*
X153167837Y-52094591D01*
X153313167Y-52001073D01*
X153410664Y-51858381D01*
X153444965Y-51689000D01*
X153444965Y-49657000D01*
X153415191Y-49498763D01*
X153321673Y-49353433D01*
X153178981Y-49255936D01*
X153009600Y-49221635D01*
X151282400Y-49221635D01*
X151124163Y-49251409D01*
X150978833Y-49344927D01*
X150881336Y-49487619D01*
X150847035Y-49657000D01*
X150847035Y-50243150D01*
X150798359Y-49998439D01*
X150518592Y-49579738D01*
X150099891Y-49299971D01*
X149606000Y-49201730D01*
X149112109Y-49299971D01*
X148693408Y-49579738D01*
X148432138Y-49970757D01*
X148357954Y-49758680D01*
X147968036Y-49322268D01*
X147440791Y-49068291D01*
X147425026Y-49065642D01*
X147193000Y-49186783D01*
X147193000Y-50546000D01*
X147213000Y-50546000D01*
X147213000Y-50800000D01*
X147193000Y-50800000D01*
X147193000Y-52159217D01*
X147425026Y-52280358D01*
X147440791Y-52277709D01*
X147968036Y-52023732D01*
X148357954Y-51587320D01*
X148432138Y-51375243D01*
X148693408Y-51766262D01*
X149029000Y-51990497D01*
X149029000Y-55371995D01*
X149028999Y-55372000D01*
X149072922Y-55592808D01*
X149197999Y-55780001D01*
X151315000Y-57897001D01*
X151315000Y-58942999D01*
X148943999Y-61313999D01*
X148818922Y-61501192D01*
X148774999Y-61722000D01*
X148775000Y-61722005D01*
X148775000Y-62174700D01*
X148742078Y-62009192D01*
X148617001Y-61821999D01*
X148490001Y-61694999D01*
X148370110Y-61614892D01*
X148805924Y-61179078D01*
X148860975Y-61179126D01*
X149128275Y-61068680D01*
X149332961Y-60864350D01*
X149443874Y-60597244D01*
X149443947Y-60513148D01*
X149636275Y-60433680D01*
X149840961Y-60229350D01*
X149951874Y-59962244D01*
X149951920Y-59909081D01*
X150003975Y-59909126D01*
X150271275Y-59798680D01*
X150475961Y-59594350D01*
X150556225Y-59401054D01*
X150638975Y-59401126D01*
X150906275Y-59290680D01*
X151110961Y-59086350D01*
X151221874Y-58819244D01*
X151222126Y-58530025D01*
X151111680Y-58262725D01*
X150907350Y-58058039D01*
X150640244Y-57947126D01*
X150584078Y-57947077D01*
X145315001Y-52677999D01*
X145127808Y-52552922D01*
X144907000Y-52508999D01*
X144906995Y-52509000D01*
X140195300Y-52509000D01*
X140195300Y-51974750D01*
X140036550Y-51816000D01*
X139037060Y-51816000D01*
X139037060Y-51836000D01*
X138783060Y-51836000D01*
X138783060Y-51816000D01*
X137783570Y-51816000D01*
X137624820Y-51974750D01*
X137624820Y-52509000D01*
X137045941Y-52509000D01*
X136495545Y-51958603D01*
X136495545Y-50839370D01*
X136471779Y-50713060D01*
X137624820Y-50713060D01*
X137624820Y-51403250D01*
X137783570Y-51562000D01*
X138783060Y-51562000D01*
X138783060Y-50363120D01*
X139037060Y-50363120D01*
X139037060Y-51562000D01*
X140036550Y-51562000D01*
X140195300Y-51403250D01*
X140195300Y-51034913D01*
X145580816Y-51034913D01*
X145774046Y-51587320D01*
X146163964Y-52023732D01*
X146691209Y-52277709D01*
X146706974Y-52280358D01*
X146939000Y-52159217D01*
X146939000Y-50800000D01*
X145725076Y-50800000D01*
X145580816Y-51034913D01*
X140195300Y-51034913D01*
X140195300Y-50713060D01*
X140098627Y-50479671D01*
X139930043Y-50311087D01*
X145580816Y-50311087D01*
X145725076Y-50546000D01*
X146939000Y-50546000D01*
X146939000Y-49186783D01*
X146706974Y-49065642D01*
X146691209Y-49068291D01*
X146163964Y-49322268D01*
X145774046Y-49758680D01*
X145580816Y-50311087D01*
X139930043Y-50311087D01*
X139919998Y-50301043D01*
X139686609Y-50204370D01*
X139195810Y-50204370D01*
X139037060Y-50363120D01*
X138783060Y-50363120D01*
X138624310Y-50204370D01*
X138133511Y-50204370D01*
X137900122Y-50301043D01*
X137721493Y-50479671D01*
X137624820Y-50713060D01*
X136471779Y-50713060D01*
X136465771Y-50681133D01*
X136372253Y-50535803D01*
X136229561Y-50438306D01*
X136060180Y-50404005D01*
X134759700Y-50404005D01*
X134601463Y-50433779D01*
X134456133Y-50527297D01*
X134358636Y-50669989D01*
X134324335Y-50839370D01*
X134324335Y-51089074D01*
X134250174Y-51089009D01*
X134239591Y-51032763D01*
X134146073Y-50887433D01*
X134003381Y-50789936D01*
X133834000Y-50755635D01*
X132834000Y-50755635D01*
X132675763Y-50785409D01*
X132530433Y-50878927D01*
X132444281Y-51005014D01*
X132372327Y-50831301D01*
X132193698Y-50652673D01*
X131960309Y-50556000D01*
X131619750Y-50556000D01*
X131461000Y-50714750D01*
X131461000Y-51689000D01*
X131481000Y-51689000D01*
X131481000Y-51943000D01*
X131461000Y-51943000D01*
X131461000Y-52917250D01*
X131619750Y-53076000D01*
X131960309Y-53076000D01*
X132193698Y-52979327D01*
X132372327Y-52800699D01*
X132445058Y-52625110D01*
X132521927Y-52744567D01*
X132664619Y-52842064D01*
X132834000Y-52876365D01*
X133834000Y-52876365D01*
X133992237Y-52846591D01*
X134137567Y-52753073D01*
X134235064Y-52610381D01*
X134248707Y-52543009D01*
X134325171Y-52543076D01*
X134354109Y-52696867D01*
X134447627Y-52842197D01*
X134590319Y-52939694D01*
X134759700Y-52973995D01*
X135878934Y-52973995D01*
X135975944Y-53071005D01*
X134759700Y-53071005D01*
X134601463Y-53100779D01*
X134456133Y-53194297D01*
X134358636Y-53336989D01*
X134324335Y-53506370D01*
X134324335Y-53629074D01*
X134250174Y-53629009D01*
X134239591Y-53572763D01*
X134146073Y-53427433D01*
X134003381Y-53329936D01*
X133834000Y-53295635D01*
X132834000Y-53295635D01*
X132675763Y-53325409D01*
X132530433Y-53418927D01*
X132444281Y-53545014D01*
X132372327Y-53371301D01*
X132193698Y-53192673D01*
X131960309Y-53096000D01*
X131619750Y-53096000D01*
X131461000Y-53254750D01*
X131461000Y-54229000D01*
X131481000Y-54229000D01*
X131481000Y-54483000D01*
X131461000Y-54483000D01*
X131461000Y-55457250D01*
X131619750Y-55616000D01*
X131960309Y-55616000D01*
X132193698Y-55519327D01*
X132372327Y-55340699D01*
X132445058Y-55165110D01*
X132521927Y-55284567D01*
X132664619Y-55382064D01*
X132834000Y-55416365D01*
X133834000Y-55416365D01*
X133992237Y-55386591D01*
X134137567Y-55293073D01*
X134235064Y-55150381D01*
X134248707Y-55083009D01*
X134324335Y-55083075D01*
X134324335Y-55205630D01*
X134354109Y-55363867D01*
X134447627Y-55509197D01*
X134590319Y-55606694D01*
X134759700Y-55640995D01*
X134890390Y-55640995D01*
X135001939Y-55807941D01*
X135059003Y-55865005D01*
X134759700Y-55865005D01*
X134601463Y-55894779D01*
X134456133Y-55988297D01*
X134358636Y-56130989D01*
X134324335Y-56300370D01*
X134324335Y-56323985D01*
X134257244Y-56296126D01*
X134250195Y-56296120D01*
X134239591Y-56239763D01*
X134146073Y-56094433D01*
X134003381Y-55996936D01*
X133834000Y-55962635D01*
X132834000Y-55962635D01*
X132675763Y-55992409D01*
X132530433Y-56085927D01*
X132444281Y-56212014D01*
X132372327Y-56038301D01*
X132193698Y-55859673D01*
X131960309Y-55763000D01*
X131619750Y-55763000D01*
X131461000Y-55921750D01*
X131461000Y-56896000D01*
X131481000Y-56896000D01*
X131481000Y-57150000D01*
X131461000Y-57150000D01*
X131461000Y-58124250D01*
X131619750Y-58283000D01*
X131960309Y-58283000D01*
X132193698Y-58186327D01*
X132372327Y-58007699D01*
X132445058Y-57832110D01*
X132521927Y-57951567D01*
X132664619Y-58049064D01*
X132834000Y-58083365D01*
X133834000Y-58083365D01*
X133992237Y-58053591D01*
X134137567Y-57960073D01*
X134235064Y-57817381D01*
X134248685Y-57750120D01*
X134255975Y-57750126D01*
X134324335Y-57721880D01*
X134324335Y-57999630D01*
X134354109Y-58157867D01*
X134447627Y-58303197D01*
X134590319Y-58400694D01*
X134759700Y-58434995D01*
X135088993Y-58434995D01*
X135313004Y-58659005D01*
X134759700Y-58659005D01*
X134601463Y-58688779D01*
X134456133Y-58782297D01*
X134383525Y-58888563D01*
X134257244Y-58836126D01*
X134250195Y-58836120D01*
X134239591Y-58779763D01*
X134146073Y-58634433D01*
X134003381Y-58536936D01*
X133834000Y-58502635D01*
X132834000Y-58502635D01*
X132675763Y-58532409D01*
X132530433Y-58625927D01*
X132444281Y-58752014D01*
X132372327Y-58578301D01*
X132193698Y-58399673D01*
X131960309Y-58303000D01*
X131619750Y-58303000D01*
X131461000Y-58461750D01*
X131461000Y-59436000D01*
X131481000Y-59436000D01*
X131481000Y-59690000D01*
X131461000Y-59690000D01*
X131461000Y-60664250D01*
X131619750Y-60823000D01*
X131960309Y-60823000D01*
X132193698Y-60726327D01*
X132372327Y-60547699D01*
X132445058Y-60372110D01*
X132521927Y-60491567D01*
X132664619Y-60589064D01*
X132834000Y-60623365D01*
X133834000Y-60623365D01*
X133992237Y-60593591D01*
X134137567Y-60500073D01*
X134204385Y-60402282D01*
X134281759Y-60453982D01*
X134324335Y-60462451D01*
X134324335Y-60793630D01*
X134354109Y-60951867D01*
X134447627Y-61097197D01*
X134590319Y-61194694D01*
X134759700Y-61228995D01*
X135878934Y-61228995D01*
X136398937Y-61748998D01*
X136398939Y-61749001D01*
X136586132Y-61874078D01*
X136806940Y-61918000D01*
X138433999Y-61918000D01*
X137259999Y-63091999D01*
X137134922Y-63279192D01*
X137090999Y-63500000D01*
X137091000Y-63500005D01*
X137091000Y-63800238D01*
X137017381Y-63749936D01*
X136998008Y-63746013D01*
X136998126Y-63610025D01*
X136887680Y-63342725D01*
X136683350Y-63138039D01*
X136416244Y-63027126D01*
X136127025Y-63026874D01*
X135859725Y-63137320D01*
X135850630Y-63146399D01*
X135850630Y-63051690D01*
X135691880Y-62892940D01*
X134493000Y-62892940D01*
X134493000Y-63892430D01*
X134651750Y-64051180D01*
X135341940Y-64051180D01*
X135561565Y-63960208D01*
X135546936Y-63981619D01*
X135512635Y-64151000D01*
X135512635Y-64651000D01*
X135542409Y-64809237D01*
X135635927Y-64954567D01*
X135778619Y-65052064D01*
X135948000Y-65086365D01*
X136396633Y-65086365D01*
X136267363Y-65215635D01*
X135948000Y-65215635D01*
X135789763Y-65245409D01*
X135667630Y-65324000D01*
X135535262Y-65324000D01*
X135527703Y-65312253D01*
X135385011Y-65214756D01*
X135215630Y-65180455D01*
X133516370Y-65180455D01*
X133358133Y-65210229D01*
X133212803Y-65303747D01*
X133115306Y-65446439D01*
X133081005Y-65615820D01*
X133081005Y-65689060D01*
X132361940Y-65689060D01*
X132141132Y-65732982D01*
X131953939Y-65858059D01*
X131925999Y-65885999D01*
X131800922Y-66073192D01*
X131756999Y-66294000D01*
X131757000Y-66294005D01*
X131757000Y-68636757D01*
X131718039Y-68675650D01*
X131607126Y-68942756D01*
X131606874Y-69231975D01*
X131717320Y-69499275D01*
X131921650Y-69703961D01*
X132188756Y-69814874D01*
X132477975Y-69815126D01*
X132745275Y-69704680D01*
X132949961Y-69500350D01*
X133060874Y-69233244D01*
X133061126Y-68944025D01*
X132950680Y-68676725D01*
X132911000Y-68636976D01*
X132911000Y-66843060D01*
X133081005Y-66843060D01*
X133081005Y-66916300D01*
X133110779Y-67074537D01*
X133204297Y-67219867D01*
X133346989Y-67317364D01*
X133516370Y-67351665D01*
X135215630Y-67351665D01*
X135373867Y-67321891D01*
X135519197Y-67228373D01*
X135616694Y-67085681D01*
X135650995Y-66916300D01*
X135650995Y-66478000D01*
X135670222Y-66478000D01*
X135778619Y-66552064D01*
X135948000Y-66586365D01*
X136848000Y-66586365D01*
X137006237Y-66556591D01*
X137151567Y-66463073D01*
X137249064Y-66320381D01*
X137283365Y-66151000D01*
X137283365Y-65831637D01*
X138075998Y-65039003D01*
X138076001Y-65039001D01*
X138201078Y-64851808D01*
X138245000Y-64631000D01*
X138245000Y-63739002D01*
X139304001Y-62680000D01*
X147632000Y-62680000D01*
X147632000Y-64064757D01*
X147593039Y-64103650D01*
X147482126Y-64370756D01*
X147481874Y-64659975D01*
X147494371Y-64690221D01*
X147465244Y-64678126D01*
X147176025Y-64677874D01*
X146908725Y-64788320D01*
X146704039Y-64992650D01*
X146593126Y-65259756D01*
X146592874Y-65548975D01*
X146703320Y-65816275D01*
X146907650Y-66020961D01*
X147174756Y-66131874D01*
X147230921Y-66131923D01*
X147800999Y-66702001D01*
X147988192Y-66827078D01*
X148209000Y-66871001D01*
X148209005Y-66871000D01*
X148462995Y-66871000D01*
X148463000Y-66871001D01*
X148683808Y-66827078D01*
X148871001Y-66702001D01*
X149133503Y-66439498D01*
X149243320Y-66705275D01*
X149447650Y-66909961D01*
X149714756Y-67020874D01*
X150003975Y-67021126D01*
X150172000Y-66951700D01*
X150172000Y-69615393D01*
X150141001Y-69568999D01*
X147234498Y-66662496D01*
X147174680Y-66517725D01*
X146970350Y-66313039D01*
X146703244Y-66202126D01*
X146414025Y-66201874D01*
X146146725Y-66312320D01*
X145942039Y-66516650D01*
X145831126Y-66783756D01*
X145830874Y-67072975D01*
X145941320Y-67340275D01*
X146145650Y-67544961D01*
X146412756Y-67655874D01*
X146596032Y-67656034D01*
X148557019Y-69617021D01*
X148355039Y-69818650D01*
X148244126Y-70085756D01*
X148244077Y-70141921D01*
X148054999Y-70330999D01*
X147929922Y-70518192D01*
X147885999Y-70739000D01*
X147886000Y-70739005D01*
X147886000Y-73885035D01*
X146373000Y-73885035D01*
X146373000Y-70231000D01*
X146344109Y-70085756D01*
X146329078Y-70010191D01*
X146234232Y-69868244D01*
X146204001Y-69822999D01*
X146203998Y-69822997D01*
X144999078Y-68618076D01*
X144999126Y-68563025D01*
X144888680Y-68295725D01*
X144684350Y-68091039D01*
X144417244Y-67980126D01*
X144128025Y-67979874D01*
X143860725Y-68090320D01*
X143656039Y-68294650D01*
X143545126Y-68561756D01*
X143544874Y-68850975D01*
X143655320Y-69118275D01*
X143859650Y-69322961D01*
X144126756Y-69433874D01*
X144182921Y-69433923D01*
X145219000Y-70470001D01*
X145219000Y-76580995D01*
X145218999Y-76581000D01*
X145255799Y-76766000D01*
X144554965Y-76766000D01*
X144554965Y-76327000D01*
X144525191Y-76168763D01*
X144431673Y-76023433D01*
X144288981Y-75925936D01*
X144119600Y-75891635D01*
X142392400Y-75891635D01*
X142234163Y-75921409D01*
X142088833Y-76014927D01*
X141991336Y-76157619D01*
X141957035Y-76327000D01*
X141957035Y-76913150D01*
X141908359Y-76668439D01*
X141628592Y-76249738D01*
X141568209Y-76209391D01*
X141635275Y-76181680D01*
X141839961Y-75977350D01*
X141950874Y-75710244D01*
X141951126Y-75421025D01*
X141840680Y-75153725D01*
X141636350Y-74949039D01*
X141369244Y-74838126D01*
X141080025Y-74837874D01*
X140812725Y-74948320D01*
X140608039Y-75152650D01*
X140497126Y-75419756D01*
X140497077Y-75475921D01*
X140307999Y-75664999D01*
X140182922Y-75852192D01*
X140149895Y-76018223D01*
X139803408Y-76249738D01*
X139542138Y-76640757D01*
X139467954Y-76428680D01*
X139078036Y-75992268D01*
X138550791Y-75738291D01*
X138535026Y-75735642D01*
X138303000Y-75856783D01*
X138303000Y-77216000D01*
X138323000Y-77216000D01*
X138323000Y-77470000D01*
X138303000Y-77470000D01*
X138303000Y-78829217D01*
X138535026Y-78950358D01*
X138550791Y-78947709D01*
X139078036Y-78693732D01*
X139467954Y-78257320D01*
X139542138Y-78045243D01*
X139803408Y-78436262D01*
X140222109Y-78716029D01*
X140716000Y-78814270D01*
X141209891Y-78716029D01*
X141628592Y-78436262D01*
X141908359Y-78017561D01*
X141957035Y-77772850D01*
X141957035Y-78359000D01*
X141986809Y-78517237D01*
X142080327Y-78662567D01*
X142223019Y-78760064D01*
X142392400Y-78794365D01*
X144119600Y-78794365D01*
X144277837Y-78764591D01*
X144423167Y-78671073D01*
X144520664Y-78528381D01*
X144554965Y-78359000D01*
X144554965Y-77920000D01*
X144584000Y-77920000D01*
X144584000Y-80136995D01*
X144583999Y-80137000D01*
X144627922Y-80357808D01*
X144752999Y-80545001D01*
X145741999Y-81534000D01*
X122428000Y-81534000D01*
X122428000Y-75946000D01*
X122754635Y-75946000D01*
X122754635Y-77978000D01*
X122784409Y-78136237D01*
X122877927Y-78281567D01*
X123020619Y-78379064D01*
X123190000Y-78413365D01*
X125222000Y-78413365D01*
X125380237Y-78383591D01*
X125525567Y-78290073D01*
X125623064Y-78147381D01*
X125657365Y-77978000D01*
X125657365Y-77922476D01*
X125697375Y-77982355D01*
X126165518Y-78295158D01*
X126717730Y-78405000D01*
X126774270Y-78405000D01*
X127326482Y-78295158D01*
X127794625Y-77982355D01*
X128107428Y-77514212D01*
X128217270Y-76962000D01*
X128107428Y-76409788D01*
X127794625Y-75941645D01*
X127326482Y-75628842D01*
X126774270Y-75519000D01*
X126717730Y-75519000D01*
X126165518Y-75628842D01*
X125697375Y-75941645D01*
X125657365Y-76001524D01*
X125657365Y-75946000D01*
X125627591Y-75787763D01*
X125534073Y-75642433D01*
X125391381Y-75544936D01*
X125222000Y-75510635D01*
X123190000Y-75510635D01*
X123031763Y-75540409D01*
X122886433Y-75633927D01*
X122788936Y-75776619D01*
X122754635Y-75946000D01*
X122428000Y-75946000D01*
X122428000Y-73422975D01*
X131606874Y-73422975D01*
X131717320Y-73690275D01*
X131757000Y-73730024D01*
X131757000Y-76072995D01*
X131756999Y-76073000D01*
X131800922Y-76293808D01*
X131925999Y-76481001D01*
X132496033Y-77051035D01*
X132495874Y-77232975D01*
X132606320Y-77500275D01*
X132810650Y-77704961D01*
X133077756Y-77815874D01*
X133366975Y-77816126D01*
X133634275Y-77705680D01*
X133635043Y-77704913D01*
X136690816Y-77704913D01*
X136884046Y-78257320D01*
X137273964Y-78693732D01*
X137801209Y-78947709D01*
X137816974Y-78950358D01*
X138049000Y-78829217D01*
X138049000Y-77470000D01*
X136835076Y-77470000D01*
X136690816Y-77704913D01*
X133635043Y-77704913D01*
X133838961Y-77501350D01*
X133949874Y-77234244D01*
X133950094Y-76981087D01*
X136690816Y-76981087D01*
X136835076Y-77216000D01*
X138049000Y-77216000D01*
X138049000Y-75856783D01*
X137816974Y-75735642D01*
X137801209Y-75738291D01*
X137273964Y-75992268D01*
X136884046Y-76428680D01*
X136690816Y-76981087D01*
X133950094Y-76981087D01*
X133950126Y-76945025D01*
X133839680Y-76677725D01*
X133635350Y-76473039D01*
X133489463Y-76412461D01*
X132911000Y-75833998D01*
X132911000Y-73730243D01*
X132949961Y-73691350D01*
X133060874Y-73424244D01*
X133061126Y-73135025D01*
X132950680Y-72867725D01*
X132746350Y-72663039D01*
X132479244Y-72552126D01*
X132190025Y-72551874D01*
X131922725Y-72662320D01*
X131718039Y-72866650D01*
X131607126Y-73133756D01*
X131606874Y-73422975D01*
X122428000Y-73422975D01*
X122428000Y-51816000D01*
X124766730Y-51816000D01*
X124864971Y-52309891D01*
X125144738Y-52728592D01*
X125563439Y-53008359D01*
X125953767Y-53086000D01*
X125563439Y-53163641D01*
X125144738Y-53443408D01*
X124864971Y-53862109D01*
X124766730Y-54356000D01*
X124864971Y-54849891D01*
X125144738Y-55268592D01*
X125563439Y-55548359D01*
X125953767Y-55626000D01*
X125563439Y-55703641D01*
X125144738Y-55983408D01*
X124864971Y-56402109D01*
X124766730Y-56896000D01*
X124864971Y-57389891D01*
X125144738Y-57808592D01*
X125563439Y-58088359D01*
X125953767Y-58166000D01*
X125563439Y-58243641D01*
X125144738Y-58523408D01*
X124864971Y-58942109D01*
X124766730Y-59436000D01*
X124864971Y-59929891D01*
X125144738Y-60348592D01*
X125563439Y-60628359D01*
X125808150Y-60677035D01*
X125222000Y-60677035D01*
X125063763Y-60706809D01*
X124918433Y-60800327D01*
X124820936Y-60943019D01*
X124786635Y-61112400D01*
X124786635Y-62839600D01*
X124816409Y-62997837D01*
X124909927Y-63143167D01*
X125052619Y-63240664D01*
X125222000Y-63274965D01*
X127254000Y-63274965D01*
X127412237Y-63245191D01*
X127557567Y-63151673D01*
X127625882Y-63051690D01*
X132881370Y-63051690D01*
X132881370Y-63542489D01*
X132978043Y-63775878D01*
X133156671Y-63954507D01*
X133390060Y-64051180D01*
X134080250Y-64051180D01*
X134239000Y-63892430D01*
X134239000Y-62892940D01*
X133040120Y-62892940D01*
X132881370Y-63051690D01*
X127625882Y-63051690D01*
X127655064Y-63008981D01*
X127689365Y-62839600D01*
X127689365Y-61989391D01*
X132881370Y-61989391D01*
X132881370Y-62480190D01*
X133040120Y-62638940D01*
X134239000Y-62638940D01*
X134239000Y-61639450D01*
X134493000Y-61639450D01*
X134493000Y-62638940D01*
X135691880Y-62638940D01*
X135850630Y-62480190D01*
X135850630Y-61989391D01*
X135753957Y-61756002D01*
X135575329Y-61577373D01*
X135341940Y-61480700D01*
X134651750Y-61480700D01*
X134493000Y-61639450D01*
X134239000Y-61639450D01*
X134080250Y-61480700D01*
X133390060Y-61480700D01*
X133156671Y-61577373D01*
X132978043Y-61756002D01*
X132881370Y-61989391D01*
X127689365Y-61989391D01*
X127689365Y-61112400D01*
X127659591Y-60954163D01*
X127566073Y-60808833D01*
X127423381Y-60711336D01*
X127254000Y-60677035D01*
X126667850Y-60677035D01*
X126912561Y-60628359D01*
X127331262Y-60348592D01*
X127611029Y-59929891D01*
X127627168Y-59848750D01*
X130199000Y-59848750D01*
X130199000Y-60314310D01*
X130295673Y-60547699D01*
X130474302Y-60726327D01*
X130707691Y-60823000D01*
X131048250Y-60823000D01*
X131207000Y-60664250D01*
X131207000Y-59690000D01*
X130357750Y-59690000D01*
X130199000Y-59848750D01*
X127627168Y-59848750D01*
X127709270Y-59436000D01*
X127611029Y-58942109D01*
X127523886Y-58811690D01*
X130199000Y-58811690D01*
X130199000Y-59277250D01*
X130357750Y-59436000D01*
X131207000Y-59436000D01*
X131207000Y-58461750D01*
X131048250Y-58303000D01*
X130707691Y-58303000D01*
X130474302Y-58399673D01*
X130295673Y-58578301D01*
X130199000Y-58811690D01*
X127523886Y-58811690D01*
X127331262Y-58523408D01*
X126912561Y-58243641D01*
X126522233Y-58166000D01*
X126912561Y-58088359D01*
X127331262Y-57808592D01*
X127611029Y-57389891D01*
X127627168Y-57308750D01*
X130199000Y-57308750D01*
X130199000Y-57774310D01*
X130295673Y-58007699D01*
X130474302Y-58186327D01*
X130707691Y-58283000D01*
X131048250Y-58283000D01*
X131207000Y-58124250D01*
X131207000Y-57150000D01*
X130357750Y-57150000D01*
X130199000Y-57308750D01*
X127627168Y-57308750D01*
X127709270Y-56896000D01*
X127611029Y-56402109D01*
X127523886Y-56271690D01*
X130199000Y-56271690D01*
X130199000Y-56737250D01*
X130357750Y-56896000D01*
X131207000Y-56896000D01*
X131207000Y-55921750D01*
X131048250Y-55763000D01*
X130707691Y-55763000D01*
X130474302Y-55859673D01*
X130295673Y-56038301D01*
X130199000Y-56271690D01*
X127523886Y-56271690D01*
X127331262Y-55983408D01*
X126912561Y-55703641D01*
X126522233Y-55626000D01*
X126912561Y-55548359D01*
X127331262Y-55268592D01*
X127611029Y-54849891D01*
X127652430Y-54641750D01*
X130199000Y-54641750D01*
X130199000Y-55107310D01*
X130295673Y-55340699D01*
X130474302Y-55519327D01*
X130707691Y-55616000D01*
X131048250Y-55616000D01*
X131207000Y-55457250D01*
X131207000Y-54483000D01*
X130357750Y-54483000D01*
X130199000Y-54641750D01*
X127652430Y-54641750D01*
X127709270Y-54356000D01*
X127611029Y-53862109D01*
X127439028Y-53604690D01*
X130199000Y-53604690D01*
X130199000Y-54070250D01*
X130357750Y-54229000D01*
X131207000Y-54229000D01*
X131207000Y-53254750D01*
X131048250Y-53096000D01*
X130707691Y-53096000D01*
X130474302Y-53192673D01*
X130295673Y-53371301D01*
X130199000Y-53604690D01*
X127439028Y-53604690D01*
X127331262Y-53443408D01*
X126912561Y-53163641D01*
X126522233Y-53086000D01*
X126912561Y-53008359D01*
X127331262Y-52728592D01*
X127611029Y-52309891D01*
X127652430Y-52101750D01*
X130199000Y-52101750D01*
X130199000Y-52567310D01*
X130295673Y-52800699D01*
X130474302Y-52979327D01*
X130707691Y-53076000D01*
X131048250Y-53076000D01*
X131207000Y-52917250D01*
X131207000Y-51943000D01*
X130357750Y-51943000D01*
X130199000Y-52101750D01*
X127652430Y-52101750D01*
X127709270Y-51816000D01*
X127611029Y-51322109D01*
X127439028Y-51064690D01*
X130199000Y-51064690D01*
X130199000Y-51530250D01*
X130357750Y-51689000D01*
X131207000Y-51689000D01*
X131207000Y-50714750D01*
X131048250Y-50556000D01*
X130707691Y-50556000D01*
X130474302Y-50652673D01*
X130295673Y-50831301D01*
X130199000Y-51064690D01*
X127439028Y-51064690D01*
X127331262Y-50903408D01*
X126912561Y-50623641D01*
X126418670Y-50525400D01*
X126057330Y-50525400D01*
X125563439Y-50623641D01*
X125144738Y-50903408D01*
X124864971Y-51322109D01*
X124766730Y-51816000D01*
X122428000Y-51816000D01*
X122428000Y-38348000D01*
X164545394Y-38348000D01*
X163777394Y-39116000D01*
G36*
X194130394Y-39243000D02*
X186436000Y-39243000D01*
X186386590Y-39253006D01*
X186346197Y-39280197D01*
X185965197Y-39661197D01*
X185937334Y-39703211D01*
X185928000Y-39751000D01*
X185928000Y-57404000D01*
X185938006Y-57453410D01*
X185965197Y-57493803D01*
X186144000Y-57672606D01*
X186144000Y-58163024D01*
X184427257Y-59879767D01*
X184144081Y-59936094D01*
X183942180Y-60071000D01*
X183896000Y-60071000D01*
X183846590Y-60081006D01*
X183806197Y-60108197D01*
X178218197Y-65696197D01*
X178190334Y-65738211D01*
X178184284Y-65769186D01*
X175951735Y-68001735D01*
X175696594Y-68383581D01*
X175663760Y-68548650D01*
X175607000Y-68834000D01*
X175607000Y-75966470D01*
X174137470Y-77436000D01*
X157205530Y-77436000D01*
X157006000Y-77236470D01*
X157006000Y-75394820D01*
X161783005Y-75394820D01*
X161783005Y-76695300D01*
X161812779Y-76853537D01*
X161906297Y-76998867D01*
X162048989Y-77096364D01*
X162218370Y-77130665D01*
X163917630Y-77130665D01*
X164075867Y-77100891D01*
X164221197Y-77007373D01*
X164318694Y-76864681D01*
X164350584Y-76707204D01*
X164573756Y-76799874D01*
X164862975Y-76800126D01*
X165130275Y-76689680D01*
X165334961Y-76485350D01*
X165445874Y-76218244D01*
X165445923Y-76162079D01*
X167031998Y-74576003D01*
X167032001Y-74576001D01*
X167157078Y-74388808D01*
X167166913Y-74339365D01*
X167201001Y-74168000D01*
X167201000Y-74167995D01*
X167201000Y-73564750D01*
X170966000Y-73564750D01*
X170966000Y-74030310D01*
X171062673Y-74263699D01*
X171241302Y-74442327D01*
X171474691Y-74539000D01*
X171815250Y-74539000D01*
X171974000Y-74380250D01*
X171974000Y-73406000D01*
X171124750Y-73406000D01*
X170966000Y-73564750D01*
X167201000Y-73564750D01*
X167201000Y-72527690D01*
X170966000Y-72527690D01*
X170966000Y-72993250D01*
X171124750Y-73152000D01*
X171974000Y-73152000D01*
X171974000Y-72177750D01*
X171815250Y-72019000D01*
X171474691Y-72019000D01*
X171241302Y-72115673D01*
X171062673Y-72294301D01*
X170966000Y-72527690D01*
X167201000Y-72527690D01*
X167201000Y-69412243D01*
X167239961Y-69373350D01*
X167350874Y-69106244D01*
X167351126Y-68817025D01*
X167240680Y-68549725D01*
X167036350Y-68345039D01*
X166769244Y-68234126D01*
X166480025Y-68233874D01*
X166212725Y-68344320D01*
X166008039Y-68548650D01*
X165897126Y-68815756D01*
X165896874Y-69104975D01*
X166007320Y-69372275D01*
X166047000Y-69412024D01*
X166047000Y-73928999D01*
X164630076Y-75345922D01*
X164575025Y-75345874D01*
X164352995Y-75437615D01*
X164352995Y-75394820D01*
X164323221Y-75236583D01*
X164229703Y-75091253D01*
X164087011Y-74993756D01*
X163917630Y-74959455D01*
X162218370Y-74959455D01*
X162060133Y-74989229D01*
X161914803Y-75082747D01*
X161817306Y-75225439D01*
X161783005Y-75394820D01*
X157006000Y-75394820D01*
X157006000Y-72830690D01*
X161583370Y-72830690D01*
X161583370Y-73321489D01*
X161680043Y-73554878D01*
X161858671Y-73733507D01*
X162092060Y-73830180D01*
X162782250Y-73830180D01*
X162941000Y-73671430D01*
X162941000Y-72671940D01*
X163195000Y-72671940D01*
X163195000Y-73671430D01*
X163353750Y-73830180D01*
X164043940Y-73830180D01*
X164277329Y-73733507D01*
X164455957Y-73554878D01*
X164552630Y-73321489D01*
X164552630Y-72830690D01*
X164393880Y-72671940D01*
X163195000Y-72671940D01*
X162941000Y-72671940D01*
X161742120Y-72671940D01*
X161583370Y-72830690D01*
X157006000Y-72830690D01*
X157006000Y-69367400D01*
X159610035Y-69367400D01*
X159610035Y-71602600D01*
X159639809Y-71760837D01*
X159733327Y-71906167D01*
X159876019Y-72003664D01*
X160045400Y-72037965D01*
X161583370Y-72037965D01*
X161583370Y-72259190D01*
X161742120Y-72417940D01*
X162941000Y-72417940D01*
X162941000Y-71418450D01*
X163195000Y-71418450D01*
X163195000Y-72417940D01*
X164393880Y-72417940D01*
X164552630Y-72259190D01*
X164552630Y-71768391D01*
X164455957Y-71535002D01*
X164277329Y-71356373D01*
X164043940Y-71259700D01*
X163353750Y-71259700D01*
X163195000Y-71418450D01*
X162941000Y-71418450D01*
X162782250Y-71259700D01*
X162715965Y-71259700D01*
X162715965Y-69367400D01*
X162686191Y-69209163D01*
X162592673Y-69063833D01*
X162449981Y-68966336D01*
X162280600Y-68932035D01*
X160045400Y-68932035D01*
X159887163Y-68961809D01*
X159741833Y-69055327D01*
X159644336Y-69198019D01*
X159610035Y-69367400D01*
X157006000Y-69367400D01*
X157006000Y-45123000D01*
X159385000Y-45123000D01*
X159385000Y-65405000D01*
X159395006Y-65454410D01*
X159423447Y-65496035D01*
X159465841Y-65523315D01*
X159512000Y-65532000D01*
X172305000Y-65532000D01*
X172305000Y-70612000D01*
X172394594Y-71062419D01*
X172649735Y-71444265D01*
X172940000Y-71734530D01*
X172940000Y-72107100D01*
X172727309Y-72019000D01*
X172386750Y-72019000D01*
X172228000Y-72177750D01*
X172228000Y-73152000D01*
X172248000Y-73152000D01*
X172248000Y-73406000D01*
X172228000Y-73406000D01*
X172228000Y-74380250D01*
X172386750Y-74539000D01*
X172727309Y-74539000D01*
X172940000Y-74450900D01*
X172940000Y-74896000D01*
X171323000Y-74896000D01*
X170872582Y-74985594D01*
X170490735Y-75240735D01*
X170235594Y-75622582D01*
X170146000Y-76073000D01*
X170235594Y-76523418D01*
X170490735Y-76905265D01*
X170872582Y-77160406D01*
X171323000Y-77250000D01*
X173609000Y-77250000D01*
X174059419Y-77160406D01*
X174441265Y-76905265D01*
X174949262Y-76397267D01*
X174949265Y-76397265D01*
X175204406Y-76015418D01*
X175294000Y-75565000D01*
X175294000Y-71247005D01*
X175294001Y-71247000D01*
X175204406Y-70796582D01*
X175165931Y-70739000D01*
X174949265Y-70414735D01*
X174949262Y-70414733D01*
X174659000Y-70124471D01*
X174659000Y-65532000D01*
X175768000Y-65532000D01*
X175817410Y-65521994D01*
X175857803Y-65494803D01*
X183604803Y-57747803D01*
X183632666Y-57705789D01*
X183642000Y-57658000D01*
X183642000Y-39370000D01*
X183631994Y-39320590D01*
X183603553Y-39278965D01*
X183561159Y-39251685D01*
X183515000Y-39243000D01*
X164771606Y-39243000D01*
X165666606Y-38348000D01*
X193235394Y-38348000D01*
X194130394Y-39243000D01*
X194130394Y-39243000D01*
G37*
X194130394Y-39243000D02*
X186436000Y-39243000D01*
X186386590Y-39253006D01*
X186346197Y-39280197D01*
X185965197Y-39661197D01*
X185937334Y-39703211D01*
X185928000Y-39751000D01*
X185928000Y-57404000D01*
X185938006Y-57453410D01*
X185965197Y-57493803D01*
X186144000Y-57672606D01*
X186144000Y-58163024D01*
X184427257Y-59879767D01*
X184144081Y-59936094D01*
X183942180Y-60071000D01*
X183896000Y-60071000D01*
X183846590Y-60081006D01*
X183806197Y-60108197D01*
X178218197Y-65696197D01*
X178190334Y-65738211D01*
X178184284Y-65769186D01*
X175951735Y-68001735D01*
X175696594Y-68383581D01*
X175663760Y-68548650D01*
X175607000Y-68834000D01*
X175607000Y-75966470D01*
X174137470Y-77436000D01*
X157205530Y-77436000D01*
X157006000Y-77236470D01*
X157006000Y-75394820D01*
X161783005Y-75394820D01*
X161783005Y-76695300D01*
X161812779Y-76853537D01*
X161906297Y-76998867D01*
X162048989Y-77096364D01*
X162218370Y-77130665D01*
X163917630Y-77130665D01*
X164075867Y-77100891D01*
X164221197Y-77007373D01*
X164318694Y-76864681D01*
X164350584Y-76707204D01*
X164573756Y-76799874D01*
X164862975Y-76800126D01*
X165130275Y-76689680D01*
X165334961Y-76485350D01*
X165445874Y-76218244D01*
X165445923Y-76162079D01*
X167031998Y-74576003D01*
X167032001Y-74576001D01*
X167157078Y-74388808D01*
X167166913Y-74339365D01*
X167201001Y-74168000D01*
X167201000Y-74167995D01*
X167201000Y-73564750D01*
X170966000Y-73564750D01*
X170966000Y-74030310D01*
X171062673Y-74263699D01*
X171241302Y-74442327D01*
X171474691Y-74539000D01*
X171815250Y-74539000D01*
X171974000Y-74380250D01*
X171974000Y-73406000D01*
X171124750Y-73406000D01*
X170966000Y-73564750D01*
X167201000Y-73564750D01*
X167201000Y-72527690D01*
X170966000Y-72527690D01*
X170966000Y-72993250D01*
X171124750Y-73152000D01*
X171974000Y-73152000D01*
X171974000Y-72177750D01*
X171815250Y-72019000D01*
X171474691Y-72019000D01*
X171241302Y-72115673D01*
X171062673Y-72294301D01*
X170966000Y-72527690D01*
X167201000Y-72527690D01*
X167201000Y-69412243D01*
X167239961Y-69373350D01*
X167350874Y-69106244D01*
X167351126Y-68817025D01*
X167240680Y-68549725D01*
X167036350Y-68345039D01*
X166769244Y-68234126D01*
X166480025Y-68233874D01*
X166212725Y-68344320D01*
X166008039Y-68548650D01*
X165897126Y-68815756D01*
X165896874Y-69104975D01*
X166007320Y-69372275D01*
X166047000Y-69412024D01*
X166047000Y-73928999D01*
X164630076Y-75345922D01*
X164575025Y-75345874D01*
X164352995Y-75437615D01*
X164352995Y-75394820D01*
X164323221Y-75236583D01*
X164229703Y-75091253D01*
X164087011Y-74993756D01*
X163917630Y-74959455D01*
X162218370Y-74959455D01*
X162060133Y-74989229D01*
X161914803Y-75082747D01*
X161817306Y-75225439D01*
X161783005Y-75394820D01*
X157006000Y-75394820D01*
X157006000Y-72830690D01*
X161583370Y-72830690D01*
X161583370Y-73321489D01*
X161680043Y-73554878D01*
X161858671Y-73733507D01*
X162092060Y-73830180D01*
X162782250Y-73830180D01*
X162941000Y-73671430D01*
X162941000Y-72671940D01*
X163195000Y-72671940D01*
X163195000Y-73671430D01*
X163353750Y-73830180D01*
X164043940Y-73830180D01*
X164277329Y-73733507D01*
X164455957Y-73554878D01*
X164552630Y-73321489D01*
X164552630Y-72830690D01*
X164393880Y-72671940D01*
X163195000Y-72671940D01*
X162941000Y-72671940D01*
X161742120Y-72671940D01*
X161583370Y-72830690D01*
X157006000Y-72830690D01*
X157006000Y-69367400D01*
X159610035Y-69367400D01*
X159610035Y-71602600D01*
X159639809Y-71760837D01*
X159733327Y-71906167D01*
X159876019Y-72003664D01*
X160045400Y-72037965D01*
X161583370Y-72037965D01*
X161583370Y-72259190D01*
X161742120Y-72417940D01*
X162941000Y-72417940D01*
X162941000Y-71418450D01*
X163195000Y-71418450D01*
X163195000Y-72417940D01*
X164393880Y-72417940D01*
X164552630Y-72259190D01*
X164552630Y-71768391D01*
X164455957Y-71535002D01*
X164277329Y-71356373D01*
X164043940Y-71259700D01*
X163353750Y-71259700D01*
X163195000Y-71418450D01*
X162941000Y-71418450D01*
X162782250Y-71259700D01*
X162715965Y-71259700D01*
X162715965Y-69367400D01*
X162686191Y-69209163D01*
X162592673Y-69063833D01*
X162449981Y-68966336D01*
X162280600Y-68932035D01*
X160045400Y-68932035D01*
X159887163Y-68961809D01*
X159741833Y-69055327D01*
X159644336Y-69198019D01*
X159610035Y-69367400D01*
X157006000Y-69367400D01*
X157006000Y-45123000D01*
X159385000Y-45123000D01*
X159385000Y-65405000D01*
X159395006Y-65454410D01*
X159423447Y-65496035D01*
X159465841Y-65523315D01*
X159512000Y-65532000D01*
X172305000Y-65532000D01*
X172305000Y-70612000D01*
X172394594Y-71062419D01*
X172649735Y-71444265D01*
X172940000Y-71734530D01*
X172940000Y-72107100D01*
X172727309Y-72019000D01*
X172386750Y-72019000D01*
X172228000Y-72177750D01*
X172228000Y-73152000D01*
X172248000Y-73152000D01*
X172248000Y-73406000D01*
X172228000Y-73406000D01*
X172228000Y-74380250D01*
X172386750Y-74539000D01*
X172727309Y-74539000D01*
X172940000Y-74450900D01*
X172940000Y-74896000D01*
X171323000Y-74896000D01*
X170872582Y-74985594D01*
X170490735Y-75240735D01*
X170235594Y-75622582D01*
X170146000Y-76073000D01*
X170235594Y-76523418D01*
X170490735Y-76905265D01*
X170872582Y-77160406D01*
X171323000Y-77250000D01*
X173609000Y-77250000D01*
X174059419Y-77160406D01*
X174441265Y-76905265D01*
X174949262Y-76397267D01*
X174949265Y-76397265D01*
X175204406Y-76015418D01*
X175294000Y-75565000D01*
X175294000Y-71247005D01*
X175294001Y-71247000D01*
X175204406Y-70796582D01*
X175165931Y-70739000D01*
X174949265Y-70414735D01*
X174949262Y-70414733D01*
X174659000Y-70124471D01*
X174659000Y-65532000D01*
X175768000Y-65532000D01*
X175817410Y-65521994D01*
X175857803Y-65494803D01*
X183604803Y-57747803D01*
X183632666Y-57705789D01*
X183642000Y-57658000D01*
X183642000Y-39370000D01*
X183631994Y-39320590D01*
X183603553Y-39278965D01*
X183561159Y-39251685D01*
X183515000Y-39243000D01*
X164771606Y-39243000D01*
X165666606Y-38348000D01*
X193235394Y-38348000D01*
X194130394Y-39243000D01*
G36*
X180975000Y-68759606D02*
X180975000Y-75902000D01*
X177961000Y-75902000D01*
X177961000Y-69321530D01*
X179748962Y-67533568D01*
X180975000Y-68759606D01*
X180975000Y-68759606D01*
G37*
X180975000Y-68759606D02*
X180975000Y-75902000D01*
X177961000Y-75902000D01*
X177961000Y-69321530D01*
X179748962Y-67533568D01*
X180975000Y-68759606D01*
G36*
X137624820Y-59658250D02*
X137783570Y-59817000D01*
X138783060Y-59817000D01*
X138783060Y-59797000D01*
X139037060Y-59797000D01*
X139037060Y-59817000D01*
X140036550Y-59817000D01*
X140195300Y-59658250D01*
X140195300Y-59124000D01*
X147715998Y-59124000D01*
X147808981Y-59216983D01*
X147684025Y-59216874D01*
X147416725Y-59327320D01*
X147376976Y-59367000D01*
X141732005Y-59367000D01*
X141732000Y-59366999D01*
X141520859Y-59408999D01*
X141511192Y-59410922D01*
X141323999Y-59535999D01*
X141323997Y-59536002D01*
X141008077Y-59851922D01*
X140953025Y-59851874D01*
X140685725Y-59962320D01*
X140481039Y-60166650D01*
X140370126Y-60433756D01*
X140369874Y-60722975D01*
X140386825Y-60764000D01*
X140195300Y-60764000D01*
X140195300Y-60229750D01*
X140036550Y-60071000D01*
X139037060Y-60071000D01*
X139037060Y-60091000D01*
X138783060Y-60091000D01*
X138783060Y-60071000D01*
X137783570Y-60071000D01*
X137624820Y-60229750D01*
X137624820Y-60764000D01*
X137045941Y-60764000D01*
X136495545Y-60213603D01*
X136495545Y-59124000D01*
X137624820Y-59124000D01*
X137624820Y-59658250D01*
X137624820Y-59658250D01*
G37*
X137624820Y-59658250D02*
X137783570Y-59817000D01*
X138783060Y-59817000D01*
X138783060Y-59797000D01*
X139037060Y-59797000D01*
X139037060Y-59817000D01*
X140036550Y-59817000D01*
X140195300Y-59658250D01*
X140195300Y-59124000D01*
X147715998Y-59124000D01*
X147808981Y-59216983D01*
X147684025Y-59216874D01*
X147416725Y-59327320D01*
X147376976Y-59367000D01*
X141732005Y-59367000D01*
X141732000Y-59366999D01*
X141520859Y-59408999D01*
X141511192Y-59410922D01*
X141323999Y-59535999D01*
X141323997Y-59536002D01*
X141008077Y-59851922D01*
X140953025Y-59851874D01*
X140685725Y-59962320D01*
X140481039Y-60166650D01*
X140370126Y-60433756D01*
X140369874Y-60722975D01*
X140386825Y-60764000D01*
X140195300Y-60764000D01*
X140195300Y-60229750D01*
X140036550Y-60071000D01*
X139037060Y-60071000D01*
X139037060Y-60091000D01*
X138783060Y-60091000D01*
X138783060Y-60071000D01*
X137783570Y-60071000D01*
X137624820Y-60229750D01*
X137624820Y-60764000D01*
X137045941Y-60764000D01*
X136495545Y-60213603D01*
X136495545Y-59124000D01*
X137624820Y-59124000D01*
X137624820Y-59658250D01*
G36*
X189939394Y-60071000D02*
X186857976Y-60071000D01*
X187726488Y-59202488D01*
X187806995Y-59082000D01*
X187825036Y-59055000D01*
X190955394Y-59055000D01*
X189939394Y-60071000D01*
X189939394Y-60071000D01*
G37*
X189939394Y-60071000D02*
X186857976Y-60071000D01*
X187726488Y-59202488D01*
X187806995Y-59082000D01*
X187825036Y-59055000D01*
X190955394Y-59055000D01*
X189939394Y-60071000D01*
G36*
X137624820Y-56864250D02*
X137783570Y-57023000D01*
X138783060Y-57023000D01*
X138783060Y-57003000D01*
X139037060Y-57003000D01*
X139037060Y-57023000D01*
X140036550Y-57023000D01*
X140195300Y-56864250D01*
X140195300Y-56330000D01*
X146191998Y-56330000D01*
X147831999Y-57970000D01*
X140195300Y-57970000D01*
X140195300Y-57435750D01*
X140053525Y-57293975D01*
X141893874Y-57293975D01*
X142004320Y-57561275D01*
X142208650Y-57765961D01*
X142475756Y-57876874D01*
X142764975Y-57877126D01*
X143032275Y-57766680D01*
X143097068Y-57702000D01*
X145065800Y-57702000D01*
X145129650Y-57765961D01*
X145396756Y-57876874D01*
X145685975Y-57877126D01*
X145953275Y-57766680D01*
X146157961Y-57562350D01*
X146268874Y-57295244D01*
X146269126Y-57006025D01*
X146158680Y-56738725D01*
X145954350Y-56534039D01*
X145687244Y-56423126D01*
X145398025Y-56422874D01*
X145130725Y-56533320D01*
X145065932Y-56598000D01*
X143097200Y-56598000D01*
X143033350Y-56534039D01*
X142766244Y-56423126D01*
X142477025Y-56422874D01*
X142209725Y-56533320D01*
X142005039Y-56737650D01*
X141894126Y-57004756D01*
X141893874Y-57293975D01*
X140053525Y-57293975D01*
X140036550Y-57277000D01*
X139037060Y-57277000D01*
X139037060Y-57297000D01*
X138783060Y-57297000D01*
X138783060Y-57277000D01*
X137783570Y-57277000D01*
X137624820Y-57435750D01*
X137624820Y-57970000D01*
X136495545Y-57970000D01*
X136495545Y-56330000D01*
X137624820Y-56330000D01*
X137624820Y-56864250D01*
X137624820Y-56864250D01*
G37*
X137624820Y-56864250D02*
X137783570Y-57023000D01*
X138783060Y-57023000D01*
X138783060Y-57003000D01*
X139037060Y-57003000D01*
X139037060Y-57023000D01*
X140036550Y-57023000D01*
X140195300Y-56864250D01*
X140195300Y-56330000D01*
X146191998Y-56330000D01*
X147831999Y-57970000D01*
X140195300Y-57970000D01*
X140195300Y-57435750D01*
X140053525Y-57293975D01*
X141893874Y-57293975D01*
X142004320Y-57561275D01*
X142208650Y-57765961D01*
X142475756Y-57876874D01*
X142764975Y-57877126D01*
X143032275Y-57766680D01*
X143097068Y-57702000D01*
X145065800Y-57702000D01*
X145129650Y-57765961D01*
X145396756Y-57876874D01*
X145685975Y-57877126D01*
X145953275Y-57766680D01*
X146157961Y-57562350D01*
X146268874Y-57295244D01*
X146269126Y-57006025D01*
X146158680Y-56738725D01*
X145954350Y-56534039D01*
X145687244Y-56423126D01*
X145398025Y-56422874D01*
X145130725Y-56533320D01*
X145065932Y-56598000D01*
X143097200Y-56598000D01*
X143033350Y-56534039D01*
X142766244Y-56423126D01*
X142477025Y-56422874D01*
X142209725Y-56533320D01*
X142005039Y-56737650D01*
X141894126Y-57004756D01*
X141893874Y-57293975D01*
X140053525Y-57293975D01*
X140036550Y-57277000D01*
X139037060Y-57277000D01*
X139037060Y-57297000D01*
X138783060Y-57297000D01*
X138783060Y-57277000D01*
X137783570Y-57277000D01*
X137624820Y-57435750D01*
X137624820Y-57970000D01*
X136495545Y-57970000D01*
X136495545Y-56330000D01*
X137624820Y-56330000D01*
X137624820Y-56864250D01*
G36*
X136564599Y-53604690D02*
X136586132Y-53619078D01*
X136806940Y-53663000D01*
X137624820Y-53663000D01*
X137624820Y-54070250D01*
X137783570Y-54229000D01*
X138783060Y-54229000D01*
X138783060Y-54209000D01*
X139037060Y-54209000D01*
X139037060Y-54229000D01*
X140036550Y-54229000D01*
X140195300Y-54070250D01*
X140195300Y-53663000D01*
X144667998Y-53663000D01*
X146180998Y-55176000D01*
X140195300Y-55176000D01*
X140195300Y-54641750D01*
X140036550Y-54483000D01*
X139037060Y-54483000D01*
X139037060Y-54503000D01*
X138783060Y-54503000D01*
X138783060Y-54483000D01*
X137783570Y-54483000D01*
X137624820Y-54641750D01*
X137624820Y-55176000D01*
X136495545Y-55176000D01*
X136495545Y-53558550D01*
X136564599Y-53604690D01*
X136564599Y-53604690D01*
G37*
X136564599Y-53604690D02*
X136586132Y-53619078D01*
X136806940Y-53663000D01*
X137624820Y-53663000D01*
X137624820Y-54070250D01*
X137783570Y-54229000D01*
X138783060Y-54229000D01*
X138783060Y-54209000D01*
X139037060Y-54209000D01*
X139037060Y-54229000D01*
X140036550Y-54229000D01*
X140195300Y-54070250D01*
X140195300Y-53663000D01*
X144667998Y-53663000D01*
X146180998Y-55176000D01*
X140195300Y-55176000D01*
X140195300Y-54641750D01*
X140036550Y-54483000D01*
X139037060Y-54483000D01*
X139037060Y-54503000D01*
X138783060Y-54503000D01*
X138783060Y-54483000D01*
X137783570Y-54483000D01*
X137624820Y-54641750D01*
X137624820Y-55176000D01*
X136495545Y-55176000D01*
X136495545Y-53558550D01*
X136564599Y-53604690D01*
M02*
